{
.formatVersion = 3;
DisplayStrings = (
"‍"
);
familyName = "ዋልድባ - ጥንት";
customParameters = (
{
name = glyphOrder;
value = (
FL20,
space,
exclam,
quotedbl,
numbersign,
dollar,
percent,
ampersand,
quotesingle,
parenleft,
parenright,
asterisk,
plus,
comma,
hyphen,
period,
slash,
zero,
one,
two,
three,
four,
five,
six,
seven,
eight,
nine,
colon,
semicolon,
less,
equal,
greater,
question,
at,
A,
B,
C,
D,
E,
F,
G,
H,
I,
J,
K,
L,
M,
N,
O,
P,
Q,
R,
S,
T,
U,
V,
W,
X,
Y,
Z,
bracketleft,
backslash,
bracketright,
asciicircum,
underscore,
grave,
a,
b,
c,
d,
e,
f,
g,
h,
i,
j,
k,
l,
m,
n,
o,
p,
q,
r,
s,
t,
u,
v,
w,
x,
y,
z,
braceleft,
bar,
braceright,
asciitilde,
exclamdown,
cent,
sterling,
currency,
yen,
brokenbar,
section,
dieresis,
copyright,
ordfeminine,
guillemotleft,
logicalnot,
uni00AD,
registered,
overscore,
degree,
plusminus,
twosuperior,
threesuperior,
acute,
mu,
paragraph,
middot,
cedilla,
onesuperior,
ordmasculine,
guillemotright,
onequarter,
onehalf,
threequarters,
questiondown,
Agrave,
Aacute,
Acircumflex,
Atilde,
Adieresis,
Aring,
AE,
Ccedilla,
Egrave,
Eacute,
Ecircumflex,
Edieresis,
Igrave,
Iacute,
Icircumflex,
Idieresis,
Eth,
Ntilde,
Ograve,
Oacute,
Ocircumflex,
Otilde,
Odieresis,
multiply,
Oslash,
Ugrave,
Uacute,
Ucircumflex,
Udieresis,
Yacute,
Thorn,
germandbls,
agrave,
aacute,
acircumflex,
atilde,
adieresis,
aring,
ae,
ccedilla,
egrave,
eacute,
ecircumflex,
edieresis,
igrave,
iacute,
icircumflex,
idieresis,
eth,
ntilde,
ograve,
oacute,
ocircumflex,
otilde,
odieresis,
divide,
oslash,
ugrave,
uacute,
ucircumflex,
udieresis,
yacute,
thorn,
ydieresis,
OE,
oe,
Scaron,
scaron,
Ydieresis,
Zcaron,
zcaron,
florin,
circumflex,
tilde,
uni1200,
uni1201,
uni1202,
uni1203,
uni1204,
uni1205,
uni1206,
uni1208,
uni1209,
uni120A,
uni120B,
uni120C,
uni120D,
uni120E,
uni120F,
uni1210,
uni1211,
uni1212,
uni1213,
uni1214,
uni1215,
uni1216,
uni1217,
uni1218,
uni1219,
uni121A,
uni121B,
uni121C,
uni121D,
uni121E,
uni121F,
uni1220,
uni1221,
uni1222,
uni1223,
uni1224,
uni1225,

glyphs = (
{
glyphname = exclam;
layers = (
{
layerId = "D3759F44-48FA-4031-889A-0E35E35DF10A";
shapes = (
{
closed = 1;
nodes = (
(590,412,l),
(551,1217,l),
(729,1217,l),
(688,412,l)
);
},
{
closed = 1;
nodes = (
(702,225,o),
(786,150,o),
(786,94,q),
(786,39,o),
(700,-37,o),
(639,-37,q),
(578,-37,o),
(492,41,o),
(492,96,q),
(492,152,o),
(578,225,o),
(639,225,q)
);
}
);
width = 1278;
}
);
unicode = 33;
},
{
glyphname = quotedbl;
layers = (
{
layerId = "D3759F44-48FA-4031-889A-0E35E35DF10A";
shapes = (
{
closed = 1;
nodes = (
(516,600,l),
(358,600,l),
(334,1200,l),
(537,1200,l)
);
},
{
closed = 1;
nodes = (
(920,600,l),
(762,600,l),
(741,1200,l),
(944,1200,l)
);
}
);
width = 1278;
}
);
unicode = 34;
},
{
glyphname = numbersign;
layers = (
{
layerId = "D3759F44-48FA-4031-889A-0E35E35DF10A";
shapes = (
{
closed = 1;
nodes = (
(502,967,l),
(811,967,l),
(838,1403,l),
(938,1403,l),
(911,967,l),
(1112,967,l),
(1112,829,l),
(905,829,l),
(885,473,l),
(1112,473,l),
(1112,334,l),
(877,334,l),
(852,-121,l),
(752,-121,l),
(778,334,l),
(467,334,l),
(442,-121,l),
(342,-121,l),
(367,334,l),
(166,334,l),
(166,473,l),
(375,473,l),
(395,829,l),
(166,829,l),
(166,967,l),
(403,967,l),
(428,1403,l),
(528,1403,l)
);
},
{
closed = 1;
nodes = (
(475,473,l),
(784,473,l),
(805,829,l),
(496,829,l)
);
}
);
width = 1278;
}
);
unicode = 35;
},
{
glyphname = dollar;
layers = (
{
layerId = "D3759F44-48FA-4031-889A-0E35E35DF10A";
shapes = (
{
closed = 1;
nodes = (
(1014,1165,l),
(1012,1143,o),
(1010,1096,o),
(1010,1063,q),
(1010,961,o),
(1026,805,o),
(1032,752,q),
(936,741,l),
(920,846,o),
(860,971,o),
(791,1040,o),
(715,1065,o),
(686,1071,q),
(686,637,l),
(752,618,o),
(883,575,o),
(983,510,o),
(1047,408,o),
(1047,330,q),
(1047,262,o),
(991,158,o),
(893,82,o),
(760,37,o),
(686,31,q),
(686,-289,l),
(584,-289,l),
(584,31,l),
(567,31,o),
(539,33,o),
(500,43,o),
(446,57,o),
(408,70,q),
(383,78,o),
(365,82,o),
(360,82,q),
(338,82,o),
(332,55,o),
(330,18,q),
(229,18,l),
(236,137,o),
(223,326,o),
(209,432,q),
(309,432,l),
(315,395,o),
(340,301,o),
(397,211,o),
(500,143,o),
(584,131,q),
(584,555,l),
(530,571,o),
(412,608,o),
(311,678,o),
(246,784,o),
(246,866,q),
(246,1001,o),
(430,1163,o),
(584,1176,q),
(584,1397,l),
(686,1397,l),
(686,1176,l),
(758,1167,o),
(834,1130,q),
(860,1118,o),
(874,1112,o),
(885,1112,q),
(901,1112,o),
(909,1133,o),
(913,1165,q)
);
},
{
closed = 1;
nodes = (
(584,1073,l),
(557,1069,o),
(481,1053,o),
(410,1008,o),
(356,934,o),
(356,870,q),
(356,819,o),
(395,754,o),
(461,709,o),
(541,680,o),
(584,668,q)
);
},
{
closed = 1;
nodes = (
(686,131,l),
(721,135,o),
(805,154,o),
(883,199,o),
(936,272,o),
(936,328,q),
(936,377,o),
(891,442,o),
(819,487,o),
(731,518,o),
(686,530,q)
);
}
);
width = 1278;
}
);
unicode = 36;
},
{
glyphname = percent;
layers = (
{
layerId = "D3759F44-48FA-4031-889A-0E35E35DF10A";
shapes = (
{
closed = 1;
nodes = (
(928,539,o),
(1042,487,o),
(1118,406,o),
(1157,303,o),
(1157,254,q),
(1157,203,o),
(1116,102,o),
(1040,20,o),
(926,-31,o),
(854,-31,q),
(780,-31,o),
(670,20,o),
(592,104,o),
(553,205,o),
(553,254,q),
(553,301,o),
(592,403,o),
(668,485,o),
(780,539,o),
(854,539,q)
);
},
{
closed = 1;
nodes = (
(809,438,o),
(741,408,o),
(694,356,o),
(670,289,o),
(670,256,q),
(670,182,o),
(764,70,o),
(854,70,q),
(899,70,o),
(969,102,o),
(1018,156,o),
(1042,221,o),
(1042,256,q),
(1042,287,o),
(1018,354,o),
(971,408,o),
(901,438,o),
(854,438,q)
);
},
{
closed = 1;
nodes = (
(469,1309,o),
(582,1257,o),
(657,1174,o),
(698,1073,o),
(698,1022,q),
(698,971,o),
(657,868,o),
(582,788,o),
(469,739,o),
(395,739,q),
(326,739,o),
(213,791,o),
(137,868,o),
(96,971,o),
(96,1022,q),
(96,1071,o),
(135,1174,o),
(211,1257,o),
(322,1309,o),
(395,1309,q)
);
},
{
closed = 1;
nodes = (
(352,1208,o),
(281,1176,o),
(233,1122,o),
(211,1057,o),
(211,1022,q),
(211,989,o),
(236,922,o),
(283,870,o),
(354,840,o),
(397,840,q),
(487,840,o),
(584,950,o),
(584,1022,q),
(584,1094,o),
(487,1208,o),
(397,1208,q)
);
},
{
closed = 1;
nodes = (
(227,412,l),
(184,512,l),
(1051,895,l),
(1094,795,l)
);
}
);
width = 1278;
}
);
unicode = 37;
},
{
glyphname = ampersand;
layers = (
{
layerId = "D3759F44-48FA-4031-889A-0E35E35DF10A";
shapes = (
{
closed = 1;
nodes = (
(1126,496,l),
(999,496,l),
(961,383,o),
(905,266,o),
(889,236,q),
(981,100,l),
(1141,100,l),
(1141,0,l),
(899,0,l),
(811,127,l),
(793,106,o),
(741,57,o),
(670,12,o),
(575,-16,o),
(518,-16,q),
(442,-16,o),
(328,37,o),
(250,125,o),
(209,236,o),
(209,295,q),
(209,403,o),
(340,594,o),
(463,639,q),
(463,645,o),
(455,653,q),
(418,707,o),
(373,776,o),
(348,831,o),
(338,877,o),
(338,907,q),
(338,1012,o),
(485,1151,o),
(614,1151,q),
(659,1151,o),
(741,1130,o),
(782,1114,q),
(827,1098,o),
(856,1090,o),
(868,1090,q),
(895,1090,o),
(936,1104,o),
(948,1108,q),
(850,954,l),
(809,983,o),
(694,1049,o),
(614,1049,q),
(569,1049,o),
(512,1022,o),
(477,981,o),
(465,936,o),
(465,915,q),
(465,877,o),
(508,803,o),
(547,743,q),
(823,332,l),
(844,373,o),
(866,424,o),
(887,475,o),
(907,541,o),
(924,596,q),
(1126,596,l)
);
},
{
closed = 1;
nodes = (
(520,563,l),
(489,549,o),
(430,508,o),
(381,446,o),
(350,369,o),
(350,319,q),
(350,281,o),
(371,201,o),
(420,135,o),
(492,94,o),
(543,94,q),
(584,94,o),
(651,119,o),
(702,158,o),
(741,199,o),
(754,213,q)
);
}
);
width = 1278;
}
);
unicode = 38;
},
{
glyphname = quotesingle;
layers = (
{
layerId = "D3759F44-48FA-4031-889A-0E35E35DF10A";
shapes = (
{
closed = 1;
nodes = (
(717,598,l),
(557,598,l),
(518,1200,l),
(760,1200,l)
);
}
);
width = 1278;
}
);
unicode = 39;
},
{
glyphname = parenleft;
layers = (
{
layerId = "D3759F44-48FA-4031-889A-0E35E35DF10A";
shapes = (
{
closed = 1;
nodes = (
(987,1382,l),
(952,1317,o),
(866,1143,o),
(791,940,o),
(739,709,o),
(739,588,q),
(739,467,o),
(791,236,o),
(866,33,o),
(952,-141,o),
(987,-205,q),
(877,-205,l),
(817,-115,o),
(721,90,o),
(649,299,o),
(610,500,o),
(610,588,q),
(610,674,o),
(647,874,o),
(717,1083,o),
(815,1290,o),
(877,1382,q)
);
}
);
width = 1278;
}
);
unicode = 40;
},
{
glyphname = parenright;
layers = (
{
layerId = "D3759F44-48FA-4031-889A-0E35E35DF10A";
shapes = (
{
closed = 1;
nodes = (
(291,-205,l),
(324,-147,o),
(410,23,o),
(487,229,o),
(541,465,o),
(541,588,q),
(541,711,o),
(487,944,o),
(410,1149,o),
(324,1321,o),
(291,1382,q),
(403,1382,l),
(535,1178,o),
(670,754,o),
(670,588,q),
(670,500,o),
(633,303,o),
(565,96,o),
(465,-111,o),
(403,-205,q)
);
}
);
width = 1278;
}
);
unicode = 41;
},
{
glyphname = asterisk;
layers = (
{
layerId = "D3759F44-48FA-4031-889A-0E35E35DF10A";
shapes = (
{
closed = 1;
nodes = (
(698,887,l),
(997,995,l),
(1042,858,l),
(735,774,l),
(934,526,l),
(815,438,l),
(639,705,l),
(463,438,l),
(344,526,l),
(543,774,l),
(236,858,l),
(281,995,l),
(580,887,l),
(567,1200,l),
(711,1200,l)
);
}
);
width = 1278;
}
);
unicode = 42;
},
{
glyphname = plus;
layers = (
{
layerId = "D3759F44-48FA-4031-889A-0E35E35DF10A";
shapes = (
{
closed = 1;
nodes = (
(692,698,l),
(1137,698,l),
(1137,592,l),
(692,592,l),
(692,156,l),
(586,156,l),
(586,592,l),
(141,592,l),
(141,698,l),
(586,698,l),
(586,1135,l),
(692,1135,l)
);
}
);
width = 1278;
}
);
unicode = 43;
},
{
glyphname = comma;
layers = (
{
layerId = "D3759F44-48FA-4031-889A-0E35E35DF10A";
shapes = (
{
closed = 1;
nodes = (
(528,-231,l),
(377,-231,l),
(539,283,l),
(760,283,l)
);
}
);
width = 1278;
}
);
unicode = 44;
},
{
glyphname = hyphen;
layers = (
{
layerId = "D3759F44-48FA-4031-889A-0E35E35DF10A";
shapes = (
{
closed = 1;
nodes = (
(414,676,l),
(864,676,l),
(864,557,l),
(414,557,l)
);
}
);
width = 1278;
}
);
unicode = 45;
},
{
glyphname = period;
layers = (
{
layerId = "D3759F44-48FA-4031-889A-0E35E35DF10A";
shapes = (
{
closed = 1;
nodes = (
(672,254,o),
(729,231,o),
(776,195,o),
(803,141,o),
(803,109,q),
(803,74,o),
(774,20,o),
(727,-16,o),
(670,-37,o),
(639,-37,q),
(610,-37,o),
(553,-16,o),
(504,18,o),
(475,72,o),
(475,109,q),
(475,143,o),
(504,197,o),
(551,233,o),
(608,254,o),
(639,254,q)
);
}
);
width = 1278;
}
);
unicode = 46;
},
{
glyphname = slash;
layers = (
{
layerId = "D3759F44-48FA-4031-889A-0E35E35DF10A";
shapes = (
{
closed = 1;
nodes = (
(285,-283,l),
(195,-242,l),
(993,1495,l),
(1083,1456,l)
);
}
);
width = 1278;
}
);
unicode = 47;
},
{
glyphname = zero;
layers = (
{
layerId = "D3759F44-48FA-4031-889A-0E35E35DF10A";
shapes = (
{
closed = 1;
nodes = (
(768,1323,o),
(928,1188,o),
(1014,987,o),
(1044,750,o),
(1044,645,q),
(1044,541,o),
(1014,305,o),
(928,102,o),
(768,-31,o),
(639,-31,q),
(510,-31,o),
(350,104,o),
(264,305,o),
(233,543,o),
(233,645,q),
(233,750,o),
(264,987,o),
(350,1188,o),
(510,1323,o),
(639,1323,q)
);
},
{
closed = 1;
nodes = (
(543,1227,o),
(428,1108,o),
(367,934,o),
(348,731,o),
(348,647,q),
(348,563,o),
(367,360,o),
(428,182,o),
(543,66,o),
(637,66,q),
(733,66,o),
(848,184,o),
(911,360,o),
(930,565,o),
(930,647,q),
(930,733,o),
(911,936,o),
(850,1110,o),
(735,1227,o),
(639,1227,q)
);
}
);
width = 1278;
}
);
unicode = 48;
},
{
glyphname = one;
layers = (
{
layerId = "D3759F44-48FA-4031-889A-0E35E35DF10A";
shapes = (
{
closed = 1;
nodes = (
(711,1323,l),
(711,100,l),
(1075,100,l),
(1075,0,l),
(233,0,l),
(233,100,l),
(604,100,l),
(604,1200,l),
(264,1042,l),
(221,1135,l),
(643,1323,l)
);
}
);
width = 1278;
}
);
unicode = 49;
},
{
glyphname = two;
layers = (
{
layerId = "D3759F44-48FA-4031-889A-0E35E35DF10A";
shapes = (
{
closed = 1;
nodes = (
(1006,0,l),
(174,0,l),
(174,113,l),
(209,143,o),
(354,270,o),
(526,426,o),
(702,590,o),
(766,655,q),
(844,733,o),
(893,858,o),
(893,934,q),
(893,1010,o),
(831,1116,o),
(741,1184,o),
(639,1217,o),
(598,1217,q),
(569,1217,o),
(473,1196,o),
(385,1147,o),
(324,1061,o),
(328,995,q),
(217,995,l),
(217,1133,l),
(276,1204,o),
(403,1282,o),
(512,1317,o),
(590,1323,o),
(602,1323,q),
(678,1323,o),
(821,1268,o),
(938,1165,o),
(1008,1018,o),
(1008,928,q),
(1008,860,o),
(973,754,o),
(936,692,q),
(909,651,o),
(791,522,o),
(625,365,o),
(424,190,o),
(317,104,q),
(317,100,l),
(905,100,l),
(905,311,l),
(1006,311,l)
);
}
);
width = 1278;
}
);
unicode = 50;
},
{
glyphname = three;
layers = (
{
layerId = "D3759F44-48FA-4031-889A-0E35E35DF10A";
shapes = (
{
closed = 1;
nodes = (
(219,168,l),
(301,129,o),
(483,70,o),
(573,70,q),
(631,70,o),
(743,106,o),
(834,180,o),
(887,289,o),
(887,360,q),
(887,434,o),
(836,532,o),
(774,590,o),
(715,616,o),
(709,618,q),
(653,637,o),
(553,641,o),
(502,637,q),
(502,737,l),
(549,737,o),
(657,750,o),
(707,782,q),
(760,817,o),
(817,928,o),
(817,991,q),
(817,1100,o),
(674,1223,o),
(565,1223,q),
(481,1223,o),
(344,1153,o),
(297,1122,q),
(258,1100,l),
(205,1182,l),
(295,1239,o),
(465,1323,o),
(567,1323,q),
(635,1323,o),
(764,1278,o),
(866,1192,o),
(928,1071,o),
(928,993,q),
(928,922,o),
(889,819,o),
(834,750,o),
(780,711,o),
(764,702,q),
(799,690,o),
(877,635,o),
(948,551,o),
(995,436,o),
(995,365,q),
(995,274,o),
(928,127,o),
(811,25,o),
(655,-31,o),
(567,-31,q),
(518,-31,o),
(434,-16,o),
(348,10,o),
(246,49,o),
(178,74,q)
);
}
);
width = 1278;
}
);
unicode = 51;
},
{
glyphname = four;
layers = (
{
layerId = "D3759F44-48FA-4031-889A-0E35E35DF10A";
shapes = (
{
closed = 1;
nodes = (
(1022,414,l),
(1022,311,l),
(831,311,l),
(831,100,l),
(1022,100,l),
(1022,0,l),
(440,0,l),
(440,100,l),
(729,100,l),
(729,311,l),
(158,311,l),
(158,434,l),
(686,1323,l),
(831,1323,l),
(831,414,l)
);
},
{
closed = 1;
nodes = (
(729,1200,l),
(725,1200,l),
(262,414,l),
(729,414,l)
);
}
);
width = 1278;
}
);
unicode = 52;
},
{
glyphname = five;
layers = (
{
layerId = "D3759F44-48FA-4031-889A-0E35E35DF10A";
shapes = (
{
closed = 1;
nodes = (
(979,1188,l),
(365,1188,l),
(365,758,l),
(414,780,o),
(537,817,o),
(623,817,q),
(717,817,o),
(872,752,o),
(981,639,o),
(1042,485,o),
(1042,401,q),
(1042,336,o),
(999,184,o),
(895,57,o),
(723,-31,o),
(594,-31,q),
(537,-31,o),
(438,-16,o),
(342,8,o),
(248,45,o),
(195,66,q),
(231,162,l),
(258,152,o),
(332,121,o),
(424,96,o),
(530,76,o),
(586,76,q),
(674,76,o),
(801,125,o),
(887,213,o),
(926,328,o),
(926,395,q),
(926,461,o),
(885,578,o),
(801,668,o),
(682,717,o),
(604,717,q),
(524,717,o),
(387,664,o),
(322,616,q),
(268,645,l),
(268,1290,l),
(979,1290,l)
);
}
);
width = 1278;
}
);
unicode = 53;
},
{
glyphname = six;
layers = (
{
layerId = "D3759F44-48FA-4031-889A-0E35E35DF10A";
shapes = (
{
closed = 1;
nodes = (
(1034,1217,l),
(915,1223,o),
(686,1206,o),
(494,1096,o),
(360,852,o),
(336,633,q),
(340,629,l),
(354,643,o),
(403,698,o),
(479,750,o),
(582,788,o),
(649,788,q),
(733,788,o),
(870,721,o),
(969,604,o),
(1022,457,o),
(1022,375,q),
(1022,295,o),
(967,147,o),
(866,37,o),
(729,-31,o),
(645,-31,q),
(582,-31,o),
(430,25,o),
(303,160,o),
(217,383,o),
(217,553,q),
(217,604,o),
(238,805,o),
(317,1028,o),
(479,1231,o),
(621,1282,q),
(643,1290,o),
(709,1309,o),
(805,1321,o),
(942,1327,o),
(1034,1323,q)
);
},
{
closed = 1;
nodes = (
(342,340,o),
(412,197,o),
(502,111,o),
(604,76,o),
(645,76,q),
(696,76,o),
(791,117,o),
(864,195,o),
(907,305,o),
(907,375,q),
(907,434,o),
(868,547,o),
(803,631,o),
(707,682,o),
(649,682,q),
(633,682,o),
(555,672,o),
(465,627,o),
(371,535,o),
(336,451,q)
);
}
);
width = 1278;
}
);
unicode = 54;
},
{
glyphname = seven;
layers = (
{
layerId = "D3759F44-48FA-4031-889A-0E35E35DF10A";
shapes = (
{
closed = 1;
nodes = (
(1040,1190,l),
(627,0,l),
(502,0,l),
(934,1190,l),
(307,1190,l),
(307,995,l),
(203,995,l),
(203,1290,l),
(1040,1290,l)
);
}
);
width = 1278;
}
);
unicode = 55;
},
{
glyphname = eight;
layers = (
{
layerId = "D3759F44-48FA-4031-889A-0E35E35DF10A";
shapes = (
{
closed = 1;
nodes = (
(422,670,o),
(356,721,o),
(297,799,o),
(252,905,o),
(252,973,q),
(252,1047,o),
(311,1171,o),
(416,1268,o),
(555,1323,o),
(639,1323,q),
(723,1323,o),
(862,1268,o),
(967,1171,o),
(1026,1047,o),
(1026,973,q),
(1026,889,o),
(936,713,o),
(836,657,q),
(893,633,o),
(973,555,o),
(1026,469,o),
(1051,377,o),
(1051,336,q),
(1051,276,o),
(1001,147,o),
(899,41,o),
(743,-31,o),
(639,-31,q),
(532,-31,o),
(379,41,o),
(276,147,o),
(227,276,o),
(227,336,q),
(227,436,o),
(348,616,o),
(442,657,q)
);
},
{
closed = 1;
nodes = (
(565,1223,o),
(461,1174,o),
(395,1098,o),
(367,1010,o),
(367,971,q),
(367,922,o),
(406,829,o),
(475,754,o),
(578,707,o),
(639,707,q),
(690,707,o),
(788,743,o),
(864,813,o),
(911,909,o),
(911,971,q),
(911,1034,o),
(862,1128,o),
(786,1190,o),
(688,1223,o),
(639,1223,q)
);
},
{
closed = 1;
nodes = (
(565,606,o),
(455,557,o),
(379,479,o),
(342,383,o),
(342,336,q),
(342,283,o),
(387,188,o),
(469,113,o),
(575,70,o),
(639,70,q),
(702,70,o),
(809,113,o),
(891,188,o),
(936,283,o),
(936,336,q),
(936,383,o),
(897,481,o),
(821,557,o),
(711,606,o),
(639,606,q)
);
}
);
width = 1278;
}
);
unicode = 56;
},
{
glyphname = nine;
layers = (
{
layerId = "D3759F44-48FA-4031-889A-0E35E35DF10A";
shapes = (
{
closed = 1;
nodes = (
(172,76,l),
(295,70,o),
(522,88,o),
(711,199,o),
(846,440,o),
(870,659,q),
(866,664,l),
(854,647,o),
(805,594,o),
(729,543,o),
(625,504,o),
(557,504,q),
(475,504,o),
(336,573,o),
(238,688,o),
(184,838,o),
(184,918,q),
(184,999,o),
(242,1147,o),
(340,1257,o),
(479,1323,o),
(563,1323,q),
(627,1323,o),
(778,1268,o),
(905,1133,o),
(991,907,o),
(991,739,q),
(991,688,o),
(969,487,o),
(891,264,o),
(729,61,o),
(588,10,q),
(565,2,o),
(498,-16,o),
(403,-31,o),
(266,-35,o),
(172,-31,q)
);
},
{
closed = 1;
nodes = (
(864,952,o),
(797,1098,o),
(705,1182,o),
(602,1217,o),
(563,1217,q),
(512,1217,o),
(418,1176,o),
(342,1100,o),
(301,989,o),
(301,918,q),
(301,856,o),
(338,745,o),
(406,662,o),
(500,610,o),
(557,610,q),
(573,610,o),
(649,621,o),
(743,664,o),
(838,758,o),
(870,842,q)
);
}
);
width = 1278;
}
);
unicode = 57;
},
{
glyphname = colon;
layers = (
{
layerId = "D3759F44-48FA-4031-889A-0E35E35DF10A";
shapes = (
{
closed = 1;
nodes = (
(670,831,o),
(727,811,o),
(774,774,o),
(803,721,o),
(803,686,q),
(803,651,o),
(774,598,o),
(727,561,o),
(668,541,o),
(639,541,q),
(610,541,o),
(553,561,o),
(504,596,o),
(475,649,o),
(475,686,q),
(475,721,o),
(504,774,o),
(551,811,o),
(608,831,o),
(639,831,q)
);
},
{
closed = 1;
nodes = (
(670,254,o),
(727,233,o),
(774,197,o),
(803,143,o),
(803,109,q),
(803,74,o),
(774,20,o),
(727,-16,o),
(668,-37,o),
(639,-37,q),
(610,-37,o),
(553,-16,o),
(504,18,o),
(475,72,o),
(475,109,q),
(475,143,o),
(504,197,o),
(551,233,o),
(608,254,o),
(639,254,q)
);
}
);
width = 1278;
}
);
unicode = 58;
},
{
glyphname = semicolon;
layers = (
{
layerId = "D3759F44-48FA-4031-889A-0E35E35DF10A";
shapes = (
{
closed = 1;
nodes = (
(537,-229,l),
(385,-229,l),
(549,285,l),
(768,285,l)
);
},
{
closed = 1;
nodes = (
(670,831,o),
(727,811,o),
(774,774,o),
(803,721,o),
(803,686,q),
(803,651,o),
(774,598,o),
(727,561,o),
(668,541,o),
(639,541,q),
(610,541,o),
(553,561,o),
(504,596,o),
(475,649,o),
(475,686,q),
(475,721,o),
(504,774,o),
(551,811,o),
(608,831,o),
(639,831,q)
);
}
);
width = 1278;
}
);
unicode = 59;
},
{
glyphname = less;
layers = (
{
layerId = "D3759F44-48FA-4031-889A-0E35E35DF10A";
shapes = (
{
closed = 1;
nodes = (
(1120,1133,l),
(1163,1036,l),
(352,655,l),
(1163,283,l),
(1120,190,l),
(115,655,l)
);
}
);
width = 1278;
}
);
unicode = 60;
},
{
glyphname = equal;
layers = (
{
layerId = "D3759F44-48FA-4031-889A-0E35E35DF10A";
shapes = (
{
closed = 1;
nodes = (
(1141,786,l),
(137,786,l),
(137,893,l),
(1141,893,l)
);
},
{
closed = 1;
nodes = (
(1141,401,l),
(137,401,l),
(137,508,l),
(1141,508,l)
);
}
);
width = 1278;
}
);
unicode = 61;
},
{
glyphname = greater;
layers = (
{
layerId = "D3759F44-48FA-4031-889A-0E35E35DF10A";
shapes = (
{
closed = 1;
nodes = (
(158,178,l),
(115,274,l),
(926,655,l),
(115,1028,l),
(158,1122,l),
(1163,655,l)
);
}
);
width = 1278;
}
);
unicode = 62;
},
{
glyphname = question;
layers = (
{
layerId = "D3759F44-48FA-4031-889A-0E35E35DF10A";
shapes = (
{
closed = 1;
nodes = (
(256,1143,l),
(311,1163,o),
(397,1190,o),
(477,1210,o),
(555,1219,o),
(600,1219,q),
(702,1219,o),
(856,1159,o),
(958,1063,o),
(1010,936,o),
(1010,868,q),
(1010,776,o),
(928,649,o),
(811,569,o),
(678,522,o),
(625,508,q),
(625,379,l),
(520,379,l),
(520,586,l),
(524,588,o),
(551,594,o),
(563,596,q),
(616,608,o),
(735,645,o),
(834,707,o),
(899,803,o),
(899,874,q),
(899,907,o),
(872,991,o),
(807,1065,o),
(692,1114,o),
(602,1114,q),
(524,1114,o),
(416,1083,o),
(362,1063,q),
(362,926,l),
(256,926,l)
);
},
{
closed = 1;
nodes = (
(629,225,o),
(713,152,o),
(713,96,q),
(713,39,o),
(627,-37,o),
(567,-37,q),
(508,-37,o),
(420,39,o),
(420,96,q),
(420,152,o),
(504,225,o),
(567,225,q)
);
}
);
width = 1278;
}
);
unicode = 63;
},
{
glyphname = at;
layers = (
{
layerId = "D3759F44-48FA-4031-889A-0E35E35DF10A";
shapes = (
{
closed = 1;
nodes = (
(1135,121,l),
(1133,121,o),
(1124,115,o),
(1122,115,q),
(1014,53,o),
(754,-31,o),
(614,-31,q),
(473,-31,o),
(268,68,o),
(135,229,o),
(68,440,o),
(68,553,q),
(68,682,o),
(147,903,o),
(297,1067,o),
(518,1163,o),
(657,1163,q),
(776,1163,o),
(975,1094,o),
(1122,956,o),
(1208,758,o),
(1208,633,q),
(1208,543,o),
(1163,391,o),
(1079,285,o),
(967,225,o),
(899,225,q),
(874,225,o),
(848,229,o),
(819,246,o),
(784,270,o),
(754,291,q),
(737,305,o),
(731,324,o),
(731,334,q),
(717,319,o),
(682,281,o),
(631,246,o),
(567,221,o),
(528,221,q),
(510,221,o),
(451,242,o),
(397,287,o),
(362,373,o),
(362,436,q),
(362,508,o),
(412,657,o),
(496,782,o),
(608,860,o),
(676,860,q),
(729,860,o),
(782,799,o),
(797,776,q),
(815,850,l),
(926,850,l),
(836,518,l),
(836,510,o),
(813,436,o),
(813,412,q),
(813,387,o),
(862,326,o),
(911,326,q),
(952,326,o),
(1022,377,o),
(1075,465,o),
(1106,580,o),
(1106,645,q),
(1106,750,o),
(1034,907,o),
(911,1012,o),
(748,1063,o),
(653,1063,q),
(526,1063,o),
(348,973,o),
(231,831,o),
(178,647,o),
(178,551,q),
(178,467,o),
(225,297,o),
(330,158,o),
(498,70,o),
(621,70,q),
(754,70,o),
(969,147,o),
(1044,188,q),
(1075,205,l),
(1077,205,o),
(1087,211,o),
(1090,211,q)
);
},
{
closed = 1;
nodes = (
(580,326,o),
(651,391,o),
(707,487,o),
(739,600,o),
(739,647,q),
(739,696,o),
(692,754,o),
(662,754,q),
(627,754,o),
(555,688,o),
(502,590,o),
(471,475,o),
(471,428,q),
(471,414,o),
(477,379,o),
(494,348,o),
(520,326,o),
(539,326,q)
);
}
);
width = 1278;
}
);
unicode = 64;
},
{
glyphname = A;
layers = (
{
layerId = "D3759F44-48FA-4031-889A-0E35E35DF10A";
shapes = (
{
closed = 1;
nodes = (
(1149,100,l),
(1257,100,l),
(1257,0,l),
(819,0,l),
(819,100,l),
(1036,100,l),
(915,395,l),
(360,395,l),
(242,100,l),
(459,100,l),
(459,0,l),
(20,0,l),
(20,100,l),
(135,100,l),
(545,1100,l),
(242,1100,l),
(242,1200,l),
(698,1200,l)
);
},
{
closed = 1;
nodes = (
(397,489,l),
(881,489,l),
(639,1073,l)
);
}
);
width = 1278;
}
);
unicode = 65;
},
{
glyphname = B;
layers = (
{
layerId = "D3759F44-48FA-4031-889A-0E35E35DF10A";
shapes = (
{
closed = 1;
nodes = (
(678,1200,l),
(803,1200,o),
(940,1151,o),
(1028,1069,o),
(1083,958,o),
(1083,891,q),
(1083,834,o),
(1049,743,o),
(995,680,o),
(938,637,o),
(915,627,q),
(1030,592,o),
(1159,442,o),
(1159,328,q),
(1159,238,o),
(1075,96,o),
(1008,59,q),
(973,41,o),
(909,16,o),
(831,4,o),
(731,0,o),
(657,0,q),
(96,0,l),
(96,100,l),
(272,100,l),
(272,1100,l),
(96,1100,l),
(96,1200,l)
);
},
{
closed = 1;
nodes = (
(379,674,l),
(662,674,l),
(766,674,o),
(891,725,o),
(954,795,o),
(973,868,o),
(973,895,q),
(973,971,o),
(893,1055,o),
(788,1094,o),
(690,1100,o),
(674,1100,q),
(379,1100,l)
);
},
{
closed = 1;
nodes = (
(379,100,l),
(653,100,l),
(711,100,o),
(848,106,o),
(967,150,o),
(1049,242,o),
(1049,328,q),
(1049,393,o),
(987,487,o),
(881,545,o),
(731,573,o),
(645,573,q),
(379,573,l)
);
}
);
width = 1278;
}
);
unicode = 66;
},
{
glyphname = C;
layers = (
{
layerId = "D3759F44-48FA-4031-889A-0E35E35DF10A";
shapes = (
{
closed = 1;
nodes = (
(1266,211,l),
(1176,125,o),
(1006,29,o),
(858,-23,o),
(743,-37,o),
(711,-37,q),
(571,-37,o),
(356,68,o),
(211,248,o),
(137,481,o),
(137,614,q),
(137,752,o),
(223,981,o),
(377,1147,o),
(586,1235,o),
(707,1235,q),
(770,1235,o),
(866,1212,o),
(936,1180,o),
(973,1151,o),
(979,1143,q),
(1001,1126,o),
(1012,1120,o),
(1016,1120,q),
(1022,1120,o),
(1032,1141,o),
(1040,1174,o),
(1047,1208,o),
(1049,1223,q),
(1126,1223,l),
(1122,1087,o),
(1137,901,o),
(1149,815,q),
(1049,799,l),
(1042,836,o),
(1014,948,o),
(977,1004,q),
(948,1049,o),
(819,1128,o),
(702,1128,q),
(596,1128,o),
(430,1049,o),
(313,907,o),
(252,721,o),
(252,616,q),
(252,535,o),
(291,344,o),
(395,180,o),
(573,70,o),
(711,70,q),
(856,70,o),
(1090,197,o),
(1194,287,q)
);
}
);
width = 1278;
}
);
unicode = 67;
},
{
glyphname = D;
layers = (
{
layerId = "D3759F44-48FA-4031-889A-0E35E35DF10A";
shapes = (
{
closed = 1;
nodes = (
(604,1200,l),
(676,1200,o),
(797,1188,o),
(901,1157,o),
(997,1094,o),
(1042,1040,q),
(1087,981,o),
(1141,858,o),
(1167,743,o),
(1174,649,o),
(1174,623,q),
(1174,430,o),
(1065,190,o),
(997,123,q),
(948,76,o),
(834,29,o),
(723,4,o),
(627,0,o),
(596,0,q),
(72,0,l),
(72,100,l),
(242,100,l),
(242,1100,l),
(72,1100,l),
(72,1200,l)
);
},
{
closed = 1;
nodes = (
(348,100,l),
(596,100,l),
(625,100,o),
(700,102,o),
(788,121,o),
(877,162,o),
(915,201,q),
(973,258,o),
(1059,469,o),
(1059,616,q),
(1057,715,o),
(1020,856,o),
(969,952,o),
(911,1014,o),
(889,1032,q),
(834,1075,o),
(698,1100,o),
(606,1100,q),
(348,1100,l)
);
}
);
width = 1278;
}
);
unicode = 68;
},
{
glyphname = E;
layers = (
{
layerId = "D3759F44-48FA-4031-889A-0E35E35DF10A";
shapes = (
{
closed = 1;
nodes = (
(1141,807,l),
(1044,807,l),
(1022,1100,l),
(410,1100,l),
(410,684,l),
(754,684,l),
(754,840,l),
(852,840,l),
(852,430,l),
(754,430,l),
(754,584,l),
(410,584,l),
(410,100,l),
(1044,100,l),
(1055,391,l),
(1153,391,l),
(1153,0,l),
(121,0,l),
(121,100,l),
(303,100,l),
(303,1100,l),
(121,1100,l),
(121,1200,l),
(1133,1200,l)
);
}
);
width = 1278;
}
);
unicode = 69;
},
{
glyphname = F;
layers = (
{
layerId = "D3759F44-48FA-4031-889A-0E35E35DF10A";
shapes = (
{
closed = 1;
nodes = (
(1163,815,l),
(1067,815,l),
(1042,1100,l),
(432,1100,l),
(432,684,l),
(778,684,l),
(778,840,l),
(874,840,l),
(874,430,l),
(778,430,l),
(778,584,l),
(432,584,l),
(432,100,l),
(709,100,l),
(709,0,l),
(154,0,l),
(154,100,l),
(326,100,l),
(326,1100,l),
(154,1100,l),
(154,1200,l),
(1153,1200,l)
);
}
);
width = 1278;
}
);
unicode = 70;
},
{
glyphname = G;
layers = (
{
layerId = "D3759F44-48FA-4031-889A-0E35E35DF10A";
shapes = (
{
closed = 1;
nodes = (
(1112,1223,l),
(1110,1217,o),
(1108,1186,o),
(1108,1182,q),
(1108,1174,o),
(1106,1133,o),
(1102,1081,o),
(1100,1030,o),
(1100,1010,q),
(1100,956,o),
(1108,854,o),
(1112,815,q),
(1020,799,l),
(1014,836,o),
(987,948,o),
(911,1053,o),
(778,1128,o),
(664,1128,q),
(571,1128,o),
(410,1051,o),
(287,909,o),
(217,713,o),
(217,596,q),
(217,487,o),
(274,297,o),
(393,154,o),
(573,70,o),
(694,70,q),
(748,70,o),
(895,96,o),
(1020,139,q),
(1020,426,l),
(705,426,l),
(705,526,l),
(1231,526,l),
(1231,426,l),
(1128,426,l),
(1128,68,l),
(887,-37,o),
(692,-37,q),
(528,-37,o),
(303,82,o),
(164,266,o),
(102,487,o),
(102,594,q),
(102,717,o),
(176,948,o),
(322,1126,o),
(532,1235,o),
(670,1235,q),
(745,1235,o),
(872,1192,o),
(936,1143,q),
(952,1126,o),
(969,1118,o),
(977,1118,q),
(995,1118,o),
(1001,1153,o),
(1010,1223,q)
);
}
);
width = 1278;
}
);
unicode = 71;
},
{
glyphname = H;
layers = (
{
layerId = "D3759F44-48FA-4031-889A-0E35E35DF10A";
shapes = (
{
closed = 1;
nodes = (
(510,1100,l),
(350,1100,l),
(350,670,l),
(928,670,l),
(928,1100,l),
(768,1100,l),
(768,1200,l),
(1196,1200,l),
(1196,1100,l),
(1034,1100,l),
(1034,100,l),
(1196,100,l),
(1196,0,l),
(768,0,l),
(768,100,l),
(928,100,l),
(928,569,l),
(350,569,l),
(350,100,l),
(510,100,l),
(510,0,l),
(84,0,l),
(84,100,l),
(244,100,l),
(244,1100,l),
(84,1100,l),
(84,1200,l),
(510,1200,l)
);
}
);
width = 1278;
}
);
unicode = 72;
},
{
glyphname = I;
layers = (
{
layerId = "D3759F44-48FA-4031-889A-0E35E35DF10A";
shapes = (
{
closed = 1;
nodes = (
(1065,1100,l),
(692,1100,l),
(692,100,l),
(1065,100,l),
(1065,0,l),
(213,0,l),
(213,100,l),
(586,100,l),
(586,1100,l),
(213,1100,l),
(213,1200,l),
(1065,1200,l)
);
}
);
width = 1278;
}
);
unicode = 73;
},
{
glyphname = J;
layers = (
{
layerId = "D3759F44-48FA-4031-889A-0E35E35DF10A";
shapes = (
{
closed = 1;
nodes = (
(1233,1100,l),
(963,1100,l),
(963,434,l),
(963,344,o),
(944,166,o),
(901,100,q),
(874,63,o),
(803,10,o),
(727,-20,o),
(647,-37,o),
(614,-37,q),
(485,-37,o),
(274,43,o),
(184,84,q),
(145,100,l),
(125,561,l),
(229,561,l),
(238,354,l),
(242,272,o),
(274,174,o),
(338,137,q),
(401,98,o),
(535,70,o),
(590,70,q),
(688,70,o),
(797,137,o),
(848,242,o),
(856,371,o),
(856,434,q),
(856,1100,l),
(436,1100,l),
(436,1200,l),
(1233,1200,l)
);
}
);
width = 1278;
}
);
unicode = 74;
},
{
glyphname = K;
layers = (
{
layerId = "D3759F44-48FA-4031-889A-0E35E35DF10A";
shapes = (
{
closed = 1;
nodes = (
(594,1100,l),
(414,1100,l),
(414,578,l),
(950,1100,l),
(776,1100,l),
(776,1200,l),
(1190,1200,l),
(1190,1100,l),
(1096,1100,l),
(633,649,l),
(674,629,o),
(768,561,o),
(874,436,o),
(993,246,o),
(1057,100,q),
(1253,100,l),
(1253,0,l),
(979,0,l),
(946,90,o),
(864,250,o),
(842,287,q),
(780,393,o),
(653,530,o),
(561,578,q),
(414,436,l),
(414,100,l),
(594,100,l),
(594,0,l),
(127,0,l),
(127,100,l),
(307,100,l),
(307,1100,l),
(127,1100,l),
(127,1200,l),
(594,1200,l)
);
}
);
width = 1278;
}
);
unicode = 75;
},
{
glyphname = L;
layers = (
{
layerId = "D3759F44-48FA-4031-889A-0E35E35DF10A";
shapes = (
{
closed = 1;
nodes = (
(707,1100,l),
(444,1100,l),
(444,100,l),
(1049,100,l),
(1077,530,l),
(1178,530,l),
(1155,0,l),
(125,0,l),
(125,100,l),
(338,100,l),
(338,1100,l),
(125,1100,l),
(125,1200,l),
(707,1200,l)
);
}
);
width = 1278;
}
);
unicode = 76;
},
{
glyphname = M;
layers = (
{
layerId = "D3759F44-48FA-4031-889A-0E35E35DF10A";
shapes = (
{
closed = 1;
nodes = (
(616,477,l),
(653,477,l),
(918,1200,l),
(1262,1200,l),
(1262,1100,l),
(1110,1100,l),
(1147,100,l),
(1276,100,l),
(1276,0,l),
(823,0,l),
(823,100,l),
(1053,100,l),
(1020,1100,l),
(981,1100,l),
(684,307,l),
(573,307,l),
(297,1100,l),
(258,1100,l),
(225,100,l),
(455,100,l),
(455,0,l),
(2,0,l),
(2,100,l),
(131,100,l),
(168,1100,l),
(16,1100,l),
(16,1200,l),
(373,1200,l)
);
}
);
width = 1278;
}
);
unicode = 77;
},
{
glyphname = N;
layers = (
{
layerId = "D3759F44-48FA-4031-889A-0E35E35DF10A";
shapes = (
{
closed = 1;
nodes = (
(983,90,l),
(1022,90,l),
(1022,1100,l),
(784,1100,l),
(784,1200,l),
(1260,1200,l),
(1260,1100,l),
(1120,1100,l),
(1120,-29,l),
(930,-29,l),
(360,1100,l),
(324,1100,l),
(324,100,l),
(565,100,l),
(565,0,l),
(59,0,l),
(59,100,l),
(225,100,l),
(225,1100,l),
(59,1100,l),
(59,1200,l),
(424,1200,l)
);
}
);
width = 1278;
}
);
unicode = 78;
},
{
glyphname = O;
layers = (
{
layerId = "D3759F44-48FA-4031-889A-0E35E35DF10A";
shapes = (
{
closed = 1;
nodes = (
(92,731,o),
(168,963,o),
(311,1135,o),
(514,1235,o),
(639,1235,q),
(766,1235,o),
(969,1133,o),
(1112,958,o),
(1186,729,o),
(1186,598,q),
(1186,471,o),
(1110,238,o),
(969,66,o),
(766,-37,o),
(639,-37,q),
(514,-37,o),
(311,63,o),
(168,236,o),
(92,467,o),
(92,598,q)
);
},
{
closed = 1;
nodes = (
(207,504,o),
(262,315,o),
(371,164,o),
(532,70,o),
(639,70,q),
(743,70,o),
(905,162,o),
(1016,311,o),
(1071,500,o),
(1071,600,q),
(1071,700,o),
(1014,893,o),
(903,1040,o),
(743,1128,o),
(639,1128,q),
(528,1128,o),
(367,1032,o),
(260,883,o),
(207,692,o),
(207,600,q)
);
}
);
width = 1278;
}
);
unicode = 79;
},
{
glyphname = P;
layers = (
{
layerId = "D3759F44-48FA-4031-889A-0E35E35DF10A";
shapes = (
{
closed = 1;
nodes = (
(639,1200,l),
(754,1200,o),
(897,1176,o),
(954,1143,q),
(1034,1100,o),
(1137,924,o),
(1137,827,q),
(1137,782,o),
(1114,694,o),
(1073,618,o),
(1016,553,o),
(981,535,q),
(944,512,o),
(868,485,o),
(776,473,o),
(645,471,o),
(549,471,q),
(430,471,l),
(430,100,l),
(743,100,l),
(743,0,l),
(152,0,l),
(152,100,l),
(324,100,l),
(324,1100,l),
(152,1100,l),
(152,1200,l)
);
},
{
closed = 1;
nodes = (
(430,571,l),
(551,571,l),
(682,571,o),
(877,584,o),
(934,629,q),
(963,651,o),
(1022,754,o),
(1022,831,q),
(1022,918,o),
(938,1034,o),
(895,1057,q),
(874,1067,o),
(834,1081,o),
(776,1094,o),
(696,1100,o),
(639,1100,q),
(430,1100,l)
);
}
);
width = 1278;
}
);
unicode = 80;
},
{
glyphname = Q;
layers = (
{
layerId = "D3759F44-48FA-4031-889A-0E35E35DF10A";
shapes = (
{
closed = 1;
nodes = (
(1165,-188,l),
(1128,-213,o),
(1024,-272,o),
(950,-272,q),
(901,-272,o),
(823,-246,o),
(713,-199,o),
(643,-178,o),
(602,-178,q),
(532,-178,o),
(426,-223,o),
(352,-266,q),
(303,-188,l),
(340,-162,o),
(406,-104,o),
(451,-55,o),
(479,-18,o),
(483,-14,q),
(393,12,o),
(250,129,o),
(147,289,o),
(92,487,o),
(92,598,q),
(92,750,o),
(180,987,o),
(332,1151,o),
(530,1235,o),
(637,1235,q),
(752,1235,o),
(952,1143,o),
(1102,975,o),
(1186,737,o),
(1186,590,q),
(1186,481,o),
(1128,258,o),
(993,74,o),
(768,-39,o),
(602,-37,q),
(594,-47,o),
(586,-55,o),
(569,-72,q),
(567,-76,o),
(563,-82,o),
(565,-76,q),
(561,-76,l),
(561,-82,l),
(571,-82,o),
(590,-78,o),
(606,-78,q),
(645,-78,o),
(739,-98,o),
(795,-121,q),
(834,-137,o),
(877,-154,o),
(907,-164,o),
(928,-166,o),
(942,-166,q),
(995,-166,o),
(1069,-129,o),
(1100,-111,q)
);
},
{
closed = 1;
nodes = (
(207,504,o),
(262,315,o),
(371,164,o),
(532,70,o),
(639,70,q),
(743,70,o),
(905,162,o),
(1016,311,o),
(1071,500,o),
(1071,600,q),
(1071,700,o),
(1014,893,o),
(903,1040,o),
(743,1128,o),
(639,1128,q),
(528,1128,o),
(367,1032,o),
(260,883,o),
(207,692,o),
(207,600,q)
);
}
);
width = 1278;
}
);
unicode = 81;
},
{
glyphname = R;
layers = (
{
layerId = "D3759F44-48FA-4031-889A-0E35E35DF10A";
shapes = (
{
closed = 1;
nodes = (
(643,1200,l),
(745,1200,o),
(877,1180,o),
(989,1104,o),
(1063,956,o),
(1063,877,q),
(1063,831,o),
(1030,725,o),
(954,631,o),
(829,561,o),
(737,551,q),
(764,522,o),
(844,414,o),
(926,285,o),
(1010,152,o),
(1042,100,q),
(1229,100,l),
(1229,0,l),
(963,0,l),
(938,53,o),
(874,168,o),
(817,268,o),
(768,348,o),
(758,365,q),
(727,414,o),
(680,483,o),
(631,528,o),
(573,549,o),
(530,549,q),
(377,549,l),
(377,100,l),
(567,100,l),
(567,0,l),
(96,0,l),
(96,100,l),
(270,100,l),
(270,1100,l),
(96,1100,l),
(96,1200,l)
);
},
{
closed = 1;
nodes = (
(377,649,l),
(575,649,l),
(618,649,o),
(745,655,o),
(862,698,o),
(948,795,o),
(948,885,q),
(948,938,o),
(901,1032,o),
(858,1063,q),
(846,1071,o),
(817,1083,o),
(770,1094,o),
(696,1100,o),
(639,1100,q),
(377,1100,l)
);
}
);
width = 1278;
}
);
unicode = 82;
},
{
glyphname = S;
layers = (
{
layerId = "D3759F44-48FA-4031-889A-0E35E35DF10A";
shapes = (
{
closed = 1;
nodes = (
(1079,1223,l),
(1069,1174,o),
(1061,1110,o),
(1061,1069,q),
(1061,1032,o),
(1069,907,o),
(1079,815,q),
(983,799,l),
(979,834,o),
(954,944,o),
(918,999,q),
(905,1018,o),
(864,1063,o),
(801,1102,o),
(711,1128,o),
(647,1128,q),
(565,1128,o),
(442,1079,o),
(365,1006,o),
(326,918,o),
(326,877,q),
(326,803,o),
(397,717,o),
(500,672,o),
(610,653,o),
(649,649,q),
(768,637,o),
(905,608,o),
(1016,537,o),
(1094,418,o),
(1094,326,q),
(1094,231,o),
(1014,96,o),
(891,6,o),
(735,-37,o),
(655,-37,q),
(592,-37,o),
(496,-14,o),
(426,16,o),
(379,49,o),
(365,61,q),
(362,63,o),
(352,70,o),
(348,70,q),
(340,70,o),
(330,57,o),
(326,53,q),
(322,39,o),
(315,10,o),
(307,-43,q),
(211,-43,l),
(221,8,o),
(229,102,o),
(229,125,q),
(229,147,l),
(229,164,o),
(225,221,o),
(219,287,o),
(213,350,o),
(211,373,q),
(307,373,l),
(315,332,o),
(342,229,o),
(379,182,q),
(410,145,o),
(526,70,o),
(641,70,q),
(739,70,o),
(868,117,o),
(946,190,o),
(977,276,o),
(977,317,q),
(977,387,o),
(915,471,o),
(827,516,o),
(723,532,o),
(682,537,q),
(621,543,o),
(457,569,o),
(311,637,o),
(211,762,o),
(211,868,q),
(211,942,o),
(274,1073,o),
(387,1176,o),
(543,1235,o),
(635,1235,q),
(692,1235,o),
(782,1214,o),
(846,1186,o),
(889,1157,o),
(899,1149,q),
(924,1128,o),
(942,1118,o),
(948,1118,q),
(963,1118,o),
(969,1143,o),
(979,1194,q),
(983,1217,o),
(983,1223,q)
);
}
);
width = 1278;
}
);
unicode = 83;
},
{
glyphname = T;
layers = (
{
layerId = "D3759F44-48FA-4031-889A-0E35E35DF10A";
shapes = (
{
closed = 1;
nodes = (
(1186,696,l),
(1083,684,l),
(1055,1100,l),
(692,1100,l),
(692,100,l),
(950,100,l),
(950,0,l),
(328,0,l),
(328,100,l),
(586,100,l),
(586,1100,l),
(223,1100,l),
(195,684,l),
(92,696,l),
(127,1200,l),
(1151,1200,l)
);
}
);
width = 1278;
}
);
unicode = 84;
},
{
glyphname = U;
layers = (
{
layerId = "D3759F44-48FA-4031-889A-0E35E35DF10A";
shapes = (
{
closed = 1;
nodes = (
(528,1100,l),
(311,1100,l),
(311,498,l),
(311,432,o),
(322,283,o),
(352,221,q),
(381,158,o),
(514,70,o),
(637,70,q),
(762,70,o),
(897,145,o),
(926,205,q),
(958,262,o),
(969,406,o),
(969,477,q),
(969,1100,l),
(752,1100,l),
(752,1200,l),
(1229,1200,l),
(1229,1100,l),
(1075,1100,l),
(1075,477,l),
(1075,395,o),
(1065,283,o),
(1044,201,o),
(1016,143,o),
(999,119,q),
(981,94,o),
(918,41,o),
(827,-6,o),
(709,-37,o),
(639,-37,q),
(600,-37,o),
(504,-23,o),
(408,14,o),
(313,78,o),
(276,129,q),
(250,168,o),
(219,266,o),
(207,367,o),
(205,463,o),
(205,498,q),
(205,1100,l),
(51,1100,l),
(51,1200,l),
(528,1200,l)
);
}
);
width = 1278;
}
);
unicode = 85;
},
{
glyphname = V;
layers = (
{
layerId = "D3759F44-48FA-4031-889A-0E35E35DF10A";
shapes = (
{
closed = 1;
nodes = (
(469,1100,l),
(268,1100,l),
(645,119,l),
(1028,1100,l),
(811,1100,l),
(811,1200,l),
(1266,1200,l),
(1266,1100,l),
(1130,1100,l),
(709,0,l),
(578,0,l),
(160,1100,l),
(12,1100,l),
(12,1200,l),
(469,1200,l)
);
}
);
width = 1278;
}
);
unicode = 86;
},
{
glyphname = W;
layers = (
{
layerId = "D3759F44-48FA-4031-889A-0E35E35DF10A";
shapes = (
{
closed = 1;
nodes = (
(424,1100,l),
(209,1100,l),
(328,205,l),
(332,205,l),
(606,979,l),
(680,979,l),
(948,205,l),
(952,205,l),
(1075,1100,l),
(858,1100,l),
(858,1200,l),
(1274,1200,l),
(1274,1100,l),
(1176,1100,l),
(1016,0,l),
(909,0,l),
(639,776,l),
(635,776,l),
(360,0,l),
(254,0,l),
(104,1100,l),
(4,1100,l),
(4,1200,l),
(424,1200,l)
);
}
);
width = 1278;
}
);
unicode = 87;
},
{
glyphname = X;
layers = (
{
layerId = "D3759F44-48FA-4031-889A-0E35E35DF10A";
shapes = (
{
closed = 1;
nodes = (
(524,1100,l),
(350,1100,l),
(641,709,l),
(940,1100,l),
(778,1100,l),
(778,1200,l),
(1167,1200,l),
(1167,1100,l),
(1059,1100,l),
(700,631,l),
(1098,100,l),
(1208,100,l),
(1208,0,l),
(778,0,l),
(778,100,l),
(969,100,l),
(641,551,l),
(299,100,l),
(524,100,l),
(524,0,l),
(70,0,l),
(70,100,l),
(178,100,l),
(582,631,l),
(223,1100,l),
(111,1100,l),
(111,1200,l),
(524,1200,l)
);
}
);
width = 1278;
}
);
unicode = 88;
},
{
glyphname = Y;
layers = (
{
layerId = "D3759F44-48FA-4031-889A-0E35E35DF10A";
shapes = (
{
closed = 1;
nodes = (
(485,1100,l),
(324,1100,l),
(645,571,l),
(963,1100,l),
(797,1100,l),
(797,1200,l),
(1210,1200,l),
(1210,1100,l),
(1075,1100,l),
(694,465,l),
(694,100,l),
(946,100,l),
(946,0,l),
(334,0,l),
(334,100,l),
(588,100,l),
(588,465,l),
(203,1100,l),
(68,1100,l),
(68,1200,l),
(485,1200,l)
);
}
);
width = 1278;
}
);
unicode = 89;
},
{
glyphname = Z;
layers = (
{
layerId = "D3759F44-48FA-4031-889A-0E35E35DF10A";
shapes = (
{
closed = 1;
nodes = (
(1121,1201,l),
(317,108,l),
(1065,108,l),
(1065,480,l),
(1174,480,l),
(1174,0,l),
(178,0,l),
(178,108,l),
(972,1188,l),
(304,1188,l),
(304,851,l),
(196,851,l),
(196,1296,l),
(1121,1296,l)
);
}
);
width = 1278;
}
);
unicode = 90;
},
{
glyphname = bracketleft;
layers = (
{
layerId = "D3759F44-48FA-4031-889A-0E35E35DF10A";
shapes = (
{
closed = 1;
nodes = (
(1032,1286,l),
(764,1286,l),
(764,-94,l),
(1032,-94,l),
(1032,-201,l),
(657,-201,l),
(657,1393,l),
(1032,1393,l)
);
}
);
width = 1278;
}
);
unicode = 91;
},
{
glyphname = backslash;
layers = (
{
layerId = "D3759F44-48FA-4031-889A-0E35E35DF10A";
shapes = (
{
closed = 1;
nodes = (
(997,-297,l),
(199,1460,l),
(289,1501,l),
(1087,-254,l)
);
}
);
width = 1278;
}
);
unicode = 92;
},
{
glyphname = bracketright;
layers = (
{
layerId = "D3759F44-48FA-4031-889A-0E35E35DF10A";
shapes = (
{
closed = 1;
nodes = (
(246,-94,l),
(514,-94,l),
(514,1286,l),
(246,1286,l),
(246,1393,l),
(621,1393,l),
(621,-201,l),
(246,-201,l)
);
}
);
width = 1278;
}
);
unicode = 93;
},
{
glyphname = asciicircum;
layers = (
{
layerId = "D3759F44-48FA-4031-889A-0E35E35DF10A";
shapes = (
{
closed = 1;
nodes = (
(156,328,l),
(561,1200,l),
(717,1200,l),
(1122,328,l),
(987,328,l),
(639,1071,l),
(291,328,l)
);
}
);
width = 1278;
}
);
unicode = 94;
},
{
glyphname = underscore;
layers = (
{
layerId = "D3759F44-48FA-4031-889A-0E35E35DF10A";
shapes = (
{
closed = 1;
nodes = (
(1380,-266,l),
(-102,-266,l),
(-102,-160,l),
(1380,-160,l)
);
}
);
width = 1278;
}
);
unicode = 95;
},
{
glyphname = grave;
layers = (
{
layerId = "D3759F44-48FA-4031-889A-0E35E35DF10A";
shapes = (
{
closed = 1;
nodes = (
(797,1071,l),
(686,1071,l),
(406,1317,l),
(633,1317,l)
);
}
);
width = 1278;
}
);
unicode = 96;
},
{
glyphname = a;
layers = (
{
layerId = "D3759F44-48FA-4031-889A-0E35E35DF10A";
shapes = (
{
closed = 1;
nodes = (
(1171,100,l),
(1171,0,l),
(874,0,l),
(874,154,l),
(844,123,o),
(756,57,o),
(653,4,o),
(535,-31,o),
(469,-31,q),
(387,-31,o),
(262,23,o),
(172,109,o),
(125,215,o),
(125,270,q),
(125,313,o),
(168,424,o),
(270,524,o),
(444,592,o),
(578,592,q),
(584,592,o),
(643,590,o),
(727,584,o),
(827,573,o),
(874,565,q),
(874,631,l),
(874,655,o),
(866,733,o),
(819,805,o),
(713,856,o),
(618,856,q),
(561,856,o),
(381,821,o),
(254,766,q),
(213,862,l),
(281,893,o),
(492,958,o),
(621,958,q),
(756,958,o),
(903,881,o),
(971,770,o),
(981,662,o),
(981,631,q),
(981,100,l)
);
},
{
closed = 1;
nodes = (
(874,467,l),
(840,473,o),
(688,489,o),
(598,489,q),
(467,489,o),
(322,428,o),
(254,350,o),
(242,276,o),
(242,268,q),
(242,227,o),
(276,158,o),
(340,104,o),
(422,72,o),
(467,72,q),
(492,72,o),
(575,86,o),
(682,129,o),
(807,219,o),
(874,297,q)
);
}
);
width = 1278;
}
);
unicode = 97;
},
{
glyphname = b;
layers = (
{
layerId = "D3759F44-48FA-4031-889A-0E35E35DF10A";
shapes = (
{
closed = 1;
nodes = (
(313,737,l),
(317,737,l),
(383,827,o),
(565,924,o),
(682,924,q),
(780,924,o),
(954,850,o),
(1083,723,o),
(1159,547,o),
(1159,449,q),
(1159,360,o),
(1090,193,o),
(967,59,o),
(795,-20,o),
(690,-20,q),
(602,-20,o),
(479,20,o),
(389,78,o),
(332,143,o),
(313,164,q),
(313,0,l),
(37,0,l),
(37,100,l),
(207,100,l),
(207,1231,l),
(10,1221,l),
(10,1321,l),
(313,1339,l)
);
},
{
closed = 1;
nodes = (
(315,379,o),
(373,246,o),
(471,145,o),
(606,86,o),
(688,86,q),
(766,86,o),
(899,145,o),
(993,248,o),
(1044,379,o),
(1044,451,q),
(1044,524,o),
(991,657,o),
(895,758,o),
(762,817,o),
(686,817,q),
(606,817,o),
(473,758,o),
(373,657,o),
(315,526,o),
(315,455,q)
);
}
);
width = 1278;
}
);
unicode = 98;
},
{
glyphname = c;
layers = (
{
layerId = "D3759F44-48FA-4031-889A-0E35E35DF10A";
shapes = (
{
closed = 1;
nodes = (
(1114,934,l),
(1110,901,o),
(1096,793,o),
(1096,737,q),
(1096,680,o),
(1102,596,q),
(1004,582,l),
(995,618,l),
(989,639,o),
(963,715,o),
(897,788,o),
(774,842,o),
(672,842,q),
(569,842,o),
(416,776,o),
(315,668,o),
(266,530,o),
(266,463,q),
(266,395,o),
(311,260,o),
(408,147,o),
(555,76,o),
(662,76,q),
(778,76,o),
(997,176,o),
(1114,258,q),
(1169,176,l),
(1135,152,o),
(1030,82,o),
(899,14,o),
(741,-31,o),
(651,-31,q),
(539,-31,o),
(356,47,o),
(223,180,o),
(152,358,o),
(152,461,q),
(152,545,o),
(213,721,o),
(338,860,o),
(530,948,o),
(659,948,q),
(723,948,o),
(877,911,o),
(973,836,q),
(979,829,o),
(981,829,q),
(991,829,o),
(1001,864,o),
(1004,874,q),
(1006,901,o),
(1016,944,q)
);
}
);
width = 1278;
}
);
unicode = 99;
},
{
glyphname = d;
layers = (
{
layerId = "D3759F44-48FA-4031-889A-0E35E35DF10A";
shapes = (
{
closed = 1;
nodes = (
(1057,100,l),
(1237,100,l),
(1237,0,l),
(950,0,l),
(950,158,l),
(946,158,l),
(897,90,o),
(784,16,o),
(680,-16,o),
(600,-20,o),
(586,-20,q),
(485,-20,o),
(313,55,o),
(184,182,o),
(113,356,o),
(113,451,q),
(113,561,o),
(195,735,o),
(328,858,o),
(494,924,o),
(582,924,q),
(682,924,o),
(887,831,o),
(946,741,q),
(950,741,l),
(950,1221,l),
(606,1200,l),
(600,1294,l),
(1057,1335,l)
);
},
{
closed = 1;
nodes = (
(946,512,o),
(899,641,o),
(809,750,o),
(676,817,o),
(586,817,q),
(516,817,o),
(385,766,o),
(287,672,o),
(227,537,o),
(227,455,q),
(227,373,o),
(285,236,o),
(383,139,o),
(514,86,o),
(586,86,q),
(657,86,o),
(788,141,o),
(889,236,o),
(946,369,o),
(946,446,q)
);
}
);
width = 1278;
}
);
unicode = 100;
},
{
glyphname = e;
layers = (
{
layerId = "D3759F44-48FA-4031-889A-0E35E35DF10A";
shapes = (
{
closed = 1;
nodes = (
(1190,121,l),
(1149,98,o),
(1032,45,o),
(899,0,o),
(750,-31,o),
(676,-31,q),
(545,-31,o),
(352,51,o),
(221,184,o),
(158,362,o),
(158,457,q),
(158,553,o),
(227,733,o),
(358,868,o),
(545,948,o),
(662,948,q),
(784,948,o),
(965,870,o),
(1085,748,o),
(1147,596,o),
(1147,524,q),
(1147,498,o),
(1141,438,o),
(1141,428,q),
(272,428,l),
(274,385,o),
(309,264,o),
(397,154,o),
(553,72,o),
(678,72,q),
(743,72,o),
(883,104,o),
(1006,150,o),
(1108,199,o),
(1141,215,q)
);
},
{
closed = 1;
nodes = (
(1030,528,l),
(1030,580,o),
(987,692,o),
(897,786,o),
(758,846,o),
(662,846,q),
(555,846,o),
(414,774,o),
(324,674,o),
(279,565,o),
(272,528,q)
);
}
);
width = 1278;
}
);
unicode = 101;
},
{
glyphname = f;
layers = (
{
layerId = "D3759F44-48FA-4031-889A-0E35E35DF10A";
shapes = (
{
closed = 1;
nodes = (
(428,1010,l),
(428,1075,o),
(446,1192,o),
(514,1280,o),
(647,1331,o),
(762,1331,q),
(852,1331,o),
(1010,1311,o),
(1077,1296,q),
(1032,1190,l),
(963,1208,o),
(803,1225,o),
(735,1225,q),
(659,1225,o),
(580,1188,o),
(541,1126,o),
(535,1047,o),
(535,1004,q),
(535,891,l),
(989,891,l),
(989,791,l),
(535,791,l),
(535,100,l),
(989,100,l),
(989,0,l),
(207,0,l),
(207,100,l),
(428,100,l),
(428,791,l),
(207,791,l),
(207,891,l),
(428,891,l)
);
}
);
width = 1278;
}
);
unicode = 102;
},
{
glyphname = g;
layers = (
{
layerId = "D3759F44-48FA-4031-889A-0E35E35DF10A";
shapes = (
{
closed = 1;
nodes = (
(1178,815,l),
(1006,815,l),
(1006,63,l),
(1006,-35,o),
(961,-182,o),
(848,-283,o),
(659,-334,o),
(518,-334,q),
(383,-334,l),
(383,-233,l),
(518,-233,o),
(711,-223,o),
(838,-166,o),
(899,-45,o),
(899,63,q),
(899,188,l),
(895,188,l),
(885,170,o),
(829,115,o),
(743,59,o),
(627,20,o),
(555,20,q),
(459,20,o),
(291,94,o),
(170,219,o),
(100,383,o),
(100,473,q),
(100,571,o),
(176,737,o),
(303,856,o),
(467,924,o),
(555,924,q),
(565,924,o),
(639,920,o),
(739,889,o),
(850,821,o),
(895,760,q),
(899,760,l),
(899,915,l),
(1178,915,l)
);
},
{
closed = 1;
nodes = (
(899,547,o),
(844,678,o),
(750,768,o),
(627,817,o),
(561,817,q),
(492,817,o),
(369,766,o),
(272,678,o),
(215,551,o),
(215,475,q),
(215,401,o),
(270,274,o),
(365,180,o),
(489,127,o),
(561,127,q),
(635,127,o),
(760,184,o),
(850,279,o),
(899,403,o),
(899,469,q)
);
}
);
width = 1278;
}
);
unicode = 103;
},
{
glyphname = h;
layers = (
{
layerId = "D3759F44-48FA-4031-889A-0E35E35DF10A";
shapes = (
{
closed = 1;
nodes = (
(367,797,l),
(401,821,o),
(481,874,o),
(571,920,o),
(674,948,o),
(731,948,q),
(803,948,o),
(920,897,o),
(1004,803,o),
(1047,674,o),
(1047,596,q),
(1047,100,l),
(1225,100,l),
(1225,0,l),
(758,0,l),
(758,100,l),
(940,100,l),
(940,588,l),
(940,702,o),
(831,842,o),
(735,842,q),
(684,842,o),
(586,811,o),
(489,762,o),
(406,702,o),
(367,672,q),
(367,100,l),
(535,100,l),
(535,0,l),
(82,0,l),
(82,100,l),
(260,100,l),
(260,1231,l),
(61,1214,l),
(53,1315,l),
(367,1339,l)
);
}
);
width = 1278;
}
);
unicode = 104;
},
{
glyphname = i;
layers = (
{
layerId = "D3759F44-48FA-4031-889A-0E35E35DF10A";
shapes = (
{
closed = 1;
nodes = (
(696,100,l),
(1065,100,l),
(1065,0,l),
(215,0,l),
(215,100,l),
(590,100,l),
(590,815,l),
(276,815,l),
(276,915,l),
(696,915,l)
);
},
{
closed = 1;
nodes = (
(696,1397,l),
(696,1143,l),
(543,1143,l),
(543,1397,l)
);
}
);
width = 1278;
}
);
unicode = 105;
},
{
glyphname = j;
layers = (
{
layerId = "D3759F44-48FA-4031-889A-0E35E35DF10A";
shapes = (
{
closed = 1;
nodes = (
(831,86,l),
(831,43,o),
(817,-96,o),
(743,-225,o),
(582,-322,o),
(432,-322,q),
(348,-322,o),
(207,-299,o),
(145,-285,q),
(168,-182,l),
(211,-195,o),
(358,-215,o),
(438,-215,q),
(545,-215,o),
(662,-152,o),
(715,-55,o),
(725,55,o),
(725,100,q),
(725,815,l),
(180,815,l),
(180,915,l),
(831,915,l)
);
},
{
closed = 1;
nodes = (
(788,1397,l),
(788,1143,l),
(635,1143,l),
(635,1397,l)
);
}
);
width = 1278;
}
);
unicode = 106;
},
{
glyphname = k;
layers = (
{
layerId = "D3759F44-48FA-4031-889A-0E35E35DF10A";
shapes = (
{
closed = 1;
nodes = (
(393,510,l),
(793,811,l),
(793,815,l),
(674,815,l),
(674,915,l),
(1118,915,l),
(1118,815,l),
(952,815,l),
(594,541,l),
(657,483,o),
(786,358,o),
(899,242,o),
(991,137,o),
(1020,100,q),
(1200,100,l),
(1200,0,l),
(756,0,l),
(756,100,l),
(893,100,l),
(860,139,o),
(791,213,o),
(702,301,o),
(590,410,o),
(514,481,q),
(393,389,l),
(393,0,l),
(111,0,l),
(111,100,l),
(287,100,l),
(287,1229,l),
(86,1212,l),
(76,1313,l),
(393,1339,l)
);
}
);
width = 1278;
}
);
unicode = 107;
},
{
glyphname = l;
layers = (
{
layerId = "D3759F44-48FA-4031-889A-0E35E35DF10A";
shapes = (
{
closed = 1;
nodes = (
(692,100,l),
(1063,100,l),
(1063,0,l),
(215,0,l),
(215,100,l),
(586,100,l),
(586,1200,l),
(238,1174,l),
(227,1272,l),
(692,1300,l)
);
}
);
width = 1278;
}
);
unicode = 108;
},
{
glyphname = m;
layers = (
{
layerId = "D3759F44-48FA-4031-889A-0E35E35DF10A";
shapes = (
{
closed = 1;
nodes = (
(244,842,l),
(270,864,l),
(272,866,o),
(303,891,o),
(350,918,o),
(416,940,o),
(455,940,q),
(522,940,o),
(637,868,o),
(668,805,q),
(713,860,o),
(836,940,o),
(909,940,q),
(965,940,o),
(1071,891,o),
(1100,848,q),
(1114,823,o),
(1135,780,o),
(1149,723,o),
(1155,639,o),
(1155,580,q),
(1155,100,l),
(1276,100,l),
(1276,0,l),
(1049,0,l),
(1049,580,l),
(1049,625,o),
(1044,713,o),
(1018,788,o),
(963,834,o),
(911,834,q),
(866,834,o),
(762,776,o),
(702,692,q),
(702,100,l),
(836,100,l),
(836,0,l),
(596,0,l),
(596,588,l),
(596,623,o),
(592,709,o),
(567,782,o),
(510,834,o),
(457,834,q),
(418,834,o),
(354,807,o),
(303,770,o),
(264,731,o),
(252,713,q),
(252,100,l),
(395,100,l),
(395,0,l),
(0,0,l),
(0,100,l),
(145,100,l),
(145,815,l),
(0,815,l),
(0,915,l),
(244,915,l)
);
}
);
width = 1278;
}
);
unicode = 109;
},
{
glyphname = n;
layers = (
{
layerId = "D3759F44-48FA-4031-889A-0E35E35DF10A";
shapes = (
{
closed = 1;
nodes = (
(354,797,l),
(387,821,o),
(469,874,o),
(561,920,o),
(662,948,o),
(721,948,q),
(793,948,o),
(909,897,o),
(993,803,o),
(1036,674,o),
(1036,596,q),
(1036,100,l),
(1208,100,l),
(1208,0,l),
(748,0,l),
(748,100,l),
(930,100,l),
(930,588,l),
(930,705,o),
(817,842,o),
(723,842,q),
(696,842,o),
(629,831,o),
(539,795,o),
(426,729,o),
(354,672,q),
(354,100,l),
(532,100,l),
(532,0,l),
(72,0,l),
(72,100,l),
(248,100,l),
(248,815,l),
(72,815,l),
(72,915,l),
(354,915,l)
);
}
);
width = 1278;
}
);
unicode = 110;
},
{
glyphname = o;
layers = (
{
layerId = "D3759F44-48FA-4031-889A-0E35E35DF10A";
shapes = (
{
closed = 1;
nodes = (
(111,561,o),
(178,739,o),
(311,874,o),
(510,958,o),
(639,958,q),
(774,958,o),
(971,872,o),
(1102,733,o),
(1167,555,o),
(1167,465,q),
(1167,373,o),
(1102,197,o),
(971,55,o),
(774,-31,o),
(639,-31,q),
(510,-31,o),
(311,53,o),
(178,193,o),
(111,369,o),
(111,465,q)
);
},
{
closed = 1;
nodes = (
(225,389,o),
(279,250,o),
(383,141,o),
(539,76,o),
(639,76,q),
(741,76,o),
(897,143,o),
(999,252,o),
(1053,389,o),
(1053,465,q),
(1053,537,o),
(999,678,o),
(897,786,o),
(741,852,o),
(639,852,q),
(539,852,o),
(385,788,o),
(279,680,o),
(225,541,o),
(225,465,q)
);
}
);
width = 1278;
}
);
unicode = 111;
},
{
glyphname = p;
layers = (
{
layerId = "D3759F44-48FA-4031-889A-0E35E35DF10A";
shapes = (
{
closed = 1;
nodes = (
(322,764,l),
(326,764,l),
(338,784,o),
(391,844,o),
(481,901,o),
(606,944,o),
(692,944,q),
(801,944,o),
(975,862,o),
(1102,729,o),
(1167,557,o),
(1167,467,q),
(1167,360,o),
(1083,182,o),
(952,55,o),
(782,-14,o),
(696,-14,q),
(684,-14,o),
(606,-8,o),
(500,25,o),
(381,100,o),
(326,168,q),
(322,168,l),
(322,-233,l),
(639,-233,l),
(639,-334,l),
(41,-334,l),
(41,-233,l),
(215,-233,l),
(215,815,l),
(41,815,l),
(41,915,l),
(322,915,l)
);
},
{
closed = 1;
nodes = (
(313,379,o),
(385,236,o),
(496,141,o),
(631,92,o),
(692,92,q),
(764,92,o),
(895,150,o),
(993,250,o),
(1053,387,o),
(1053,469,q),
(1053,535,o),
(1008,668,o),
(918,770,o),
(784,838,o),
(694,838,q),
(610,838,o),
(471,778,o),
(371,680,o),
(313,545,o),
(313,473,q)
);
}
);
width = 1278;
}
);
unicode = 112;
},
{
glyphname = q;
layers = (
{
layerId = "D3759F44-48FA-4031-889A-0E35E35DF10A";
shapes = (
{
closed = 1;
nodes = (
(1063,815,l),
(1063,-233,l),
(1237,-233,l),
(1237,-334,l),
(639,-334,l),
(639,-233,l),
(956,-233,l),
(956,168,l),
(952,168,l),
(897,100,o),
(778,25,o),
(672,-8,o),
(594,-14,o),
(582,-14,q),
(494,-14,o),
(326,55,o),
(195,182,o),
(111,360,o),
(111,467,q),
(111,557,o),
(176,729,o),
(303,862,o),
(477,944,o),
(586,944,q),
(672,944,o),
(797,901,o),
(887,844,o),
(940,784,o),
(952,764,q),
(956,764,l),
(956,915,l),
(1237,915,l),
(1237,815,l)
);
},
{
closed = 1;
nodes = (
(965,545,o),
(907,680,o),
(807,778,o),
(668,838,o),
(584,838,q),
(494,838,o),
(360,770,o),
(270,668,o),
(225,535,o),
(225,469,q),
(225,387,o),
(283,250,o),
(383,150,o),
(514,92,o),
(586,92,q),
(647,92,o),
(782,141,o),
(893,236,o),
(965,379,o),
(965,473,q)
);
}
);
width = 1278;
}
);
unicode = 113;
},
{
glyphname = r;
layers = (
{
layerId = "D3759F44-48FA-4031-889A-0E35E35DF10A";
shapes = (
{
closed = 1;
nodes = (
(530,702,l),
(567,739,o),
(655,823,o),
(764,897,o),
(895,946,o),
(971,946,q),
(1020,946,o),
(1096,924,o),
(1153,891,o),
(1192,850,o),
(1210,829,q),
(1098,745,l),
(1096,748,o),
(1087,756,o),
(1087,760,q),
(1079,774,o),
(1061,801,o),
(1030,823,o),
(987,840,o),
(954,840,q),
(885,840,o),
(756,778,o),
(645,690,o),
(557,596,o),
(530,567,q),
(530,100,l),
(936,100,l),
(936,0,l),
(160,0,l),
(160,100,l),
(424,100,l),
(424,815,l),
(176,815,l),
(176,915,l),
(530,915,l)
);
}
);
width = 1278;
}
);
unicode = 114;
},
{
glyphname = s;
layers = (
{
layerId = "D3759F44-48FA-4031-889A-0E35E35DF10A";
shapes = (
{
closed = 1;
nodes = (
(1026,944,l),
(1020,909,o),
(1008,821,o),
(1008,760,q),
(1008,715,o),
(1014,653,o),
(1018,627,q),
(924,616,l),
(918,647,o),
(895,725,o),
(829,791,o),
(700,838,o),
(590,838,q),
(463,838,o),
(326,745,o),
(326,680,q),
(326,623,o),
(391,555,o),
(512,520,o),
(672,508,o),
(764,502,q),
(784,502,o),
(885,489,o),
(991,442,o),
(1073,348,o),
(1073,264,q),
(1073,188,o),
(999,74,o),
(881,2,o),
(737,-33,o),
(668,-33,q),
(608,-33,o),
(512,-12,o),
(430,16,o),
(373,47,o),
(354,57,q),
(354,57,o),
(352,59,q),
(348,61,o),
(342,61,q),
(328,61,o),
(311,8,o),
(301,-29,q),
(207,-29,l),
(211,0,o),
(219,53,o),
(219,106,q),
(219,174,o),
(211,281,o),
(207,317,q),
(301,328,l),
(305,301,o),
(330,215,o),
(401,135,o),
(532,74,o),
(643,74,q),
(676,74,o),
(782,88,o),
(885,125,o),
(958,199,o),
(958,260,q),
(958,307,o),
(913,362,o),
(834,389,o),
(721,397,o),
(653,401,q),
(610,403,o),
(463,418,o),
(317,471,o),
(211,580,o),
(211,676,q),
(211,733,o),
(266,831,o),
(365,903,o),
(504,944,o),
(588,944,q),
(684,944,o),
(803,899,o),
(834,883,q),
(838,877,o),
(866,862,o),
(881,862,q),
(897,862,o),
(913,903,o),
(918,913,q),
(922,936,o),
(926,948,o),
(930,958,q)
);
}
);
width = 1278;
}
);
unicode = 115;
},
{
glyphname = t;
layers = (
{
layerId = "D3759F44-48FA-4031-889A-0E35E35DF10A";
shapes = (
{
closed = 1;
nodes = (
(475,887,l),
(991,887,l),
(991,786,l),
(475,786,l),
(475,383,l),
(475,324,o),
(481,213,o),
(522,127,o),
(614,76,o),
(696,76,q),
(723,76,o),
(788,84,o),
(883,104,o),
(1014,150,o),
(1108,188,q),
(1147,92,l),
(1044,45,o),
(811,-31,o),
(707,-31,q),
(604,-31,o),
(477,33,o),
(442,66,q),
(387,121,o),
(369,276,o),
(369,383,q),
(369,786,l),
(223,786,l),
(223,887,l),
(369,887,l),
(369,1200,l),
(475,1200,l)
);
}
);
width = 1278;
}
);
unicode = 116;
},
{
glyphname = u;
layers = (
{
layerId = "D3759F44-48FA-4031-889A-0E35E35DF10A";
shapes = (
{
closed = 1;
nodes = (
(350,352,l),
(350,330,o),
(356,238,o),
(395,147,o),
(481,76,o),
(563,76,q),
(651,76,o),
(815,166,o),
(905,262,q),
(905,815,l),
(723,815,l),
(723,915,l),
(1012,915,l),
(1012,100,l),
(1184,100,l),
(1184,0,l),
(905,0,l),
(905,117,l),
(883,98,o),
(817,47,o),
(735,2,o),
(633,-31,o),
(571,-31,q),
(471,-31,o),
(342,43,o),
(270,154,o),
(244,287,o),
(244,352,q),
(244,815,l),
(68,815,l),
(68,915,l),
(350,915,l)
);
}
);
width = 1278;
}
);
unicode = 117;
},
{
glyphname = v;
layers = (
{
layerId = "D3759F44-48FA-4031-889A-0E35E35DF10A";
shapes = (
{
closed = 1;
nodes = (
(498,815,l),
(326,815,l),
(645,123,l),
(969,815,l),
(801,815,l),
(801,915,l),
(1233,915,l),
(1233,815,l),
(1075,815,l),
(690,0,l),
(590,0,l),
(203,815,l),
(45,815,l),
(45,915,l),
(498,915,l)
);
}
);
width = 1278;
}
);
unicode = 118;
},
{
glyphname = w;
layers = (
{
layerId = "D3759F44-48FA-4031-889A-0E35E35DF10A";
shapes = (
{
closed = 1;
nodes = (
(385,815,l),
(209,815,l),
(395,170,l),
(401,170,l),
(608,750,l),
(684,750,l),
(895,162,l),
(899,162,l),
(1090,815,l),
(911,815,l),
(911,915,l),
(1274,915,l),
(1274,815,l),
(1190,815,l),
(952,0,l),
(842,0,l),
(639,549,l),
(440,0,l),
(336,0,l),
(96,815,l),
(4,815,l),
(4,915,l),
(385,915,l)
);
}
);
width = 1278;
}
);
unicode = 119;
},
{
glyphname = x;
layers = (
{
layerId = "D3759F44-48FA-4031-889A-0E35E35DF10A";
shapes = (
{
closed = 1;
nodes = (
(498,815,l),
(369,815,l),
(635,549,l),
(901,815,l),
(778,815,l),
(778,915,l),
(1169,915,l),
(1169,815,l),
(1040,815,l),
(705,479,l),
(1087,100,l),
(1223,100,l),
(1223,0,l),
(791,0,l),
(791,100,l),
(942,100,l),
(635,412,l),
(326,100,l),
(475,100,l),
(475,0,l),
(55,0,l),
(55,100,l),
(188,100,l),
(563,479,l),
(223,815,l),
(88,815,l),
(88,915,l),
(498,915,l)
);
}
);
width = 1278;
}
);
unicode = 120;
},
{
glyphname = y;
layers = (
{
layerId = "D3759F44-48FA-4031-889A-0E35E35DF10A";
shapes = (
{
closed = 1;
nodes = (
(449,815,l),
(303,815,l),
(639,168,l),
(1010,815,l),
(864,815,l),
(864,915,l),
(1255,915,l),
(1255,815,l),
(1130,815,l),
(535,-225,l),
(725,-225,l),
(725,-326,l),
(86,-326,l),
(86,-225,l),
(414,-225,l),
(578,57,l),
(180,815,l),
(51,815,l),
(51,915,l),
(449,915,l)
);
}
);
width = 1278;
}
);
unicode = 121;
},
{
glyphname = z;
layers = (
{
layerId = "D3759F44-48FA-4031-889A-0E35E35DF10A";
shapes = (
{
closed = 1;
nodes = (
(1057,823,l),
(367,100,l),
(956,100,l),
(956,297,l),
(1057,297,l),
(1057,0,l),
(221,0,l),
(221,100,l),
(905,815,l),
(342,815,l),
(342,627,l),
(244,627,l),
(244,915,l),
(1057,915,l)
);
}
);
width = 1278;
}
);
unicode = 122;
},
{
glyphname = braceleft;
layers = (
{
layerId = "D3759F44-48FA-4031-889A-0E35E35DF10A";
shapes = (
{
closed = 1;
nodes = (
(981,1286,l),
(944,1286,o),
(858,1280,o),
(788,1247,o),
(741,1184,o),
(741,1126,q),
(741,1094,o),
(750,1022,o),
(766,954,q),
(784,881,l),
(786,868,o),
(795,811,o),
(795,786,q),
(795,748,o),
(774,688,o),
(739,643,o),
(696,606,o),
(678,592,q),
(696,578,o),
(737,543,o),
(774,498,o),
(795,438,o),
(795,401,q),
(795,375,o),
(786,317,o),
(784,307,q),
(766,231,l),
(750,164,o),
(741,94,o),
(741,57,q),
(741,0,o),
(791,-63,o),
(864,-94,o),
(948,-100,o),
(981,-100,q),
(981,-203,l),
(897,-203,l),
(858,-203,o),
(807,-184,q),
(723,-158,o),
(631,-23,o),
(631,61,q),
(631,76,o),
(635,131,o),
(643,168,q),
(643,174,o),
(647,199,o),
(653,225,o),
(659,250,o),
(662,256,q),
(670,289,o),
(682,369,o),
(682,406,q),
(682,446,o),
(637,498,o),
(578,526,o),
(516,537,o),
(500,539,q),
(500,647,l),
(582,655,o),
(682,721,o),
(682,786,q),
(682,805,o),
(678,848,o),
(672,891,o),
(664,922,o),
(662,930,q),
(653,975,o),
(641,1030,o),
(635,1069,o),
(631,1100,o),
(631,1118,q),
(631,1225,o),
(725,1335,o),
(846,1384,o),
(961,1389,o),
(981,1389,q)
);
}
);
width = 1278;
}
);
unicode = 123;
},
{
glyphname = bar;
layers = (
{
layerId = "D3759F44-48FA-4031-889A-0E35E35DF10A";
shapes = (
{
closed = 1;
nodes = (
(584,-393,l),
(584,1434,l),
(696,1434,l),
(696,-393,l)
);
}
);
width = 1278;
}
);
unicode = 124;
},
{
glyphname = braceright;
layers = (
{
layerId = "D3759F44-48FA-4031-889A-0E35E35DF10A";
shapes = (
{
closed = 1;
nodes = (
(297,-100,l),
(334,-100,o),
(420,-94,o),
(489,-61,o),
(537,2,o),
(537,59,q),
(537,94,o),
(528,164,o),
(512,231,q),
(494,307,l),
(492,317,o),
(483,375,o),
(483,401,q),
(483,438,o),
(504,498,o),
(539,543,o),
(582,580,o),
(600,594,q),
(563,623,o),
(483,709,o),
(483,786,q),
(483,811,o),
(492,868,o),
(494,881,q),
(512,954,l),
(528,1022,o),
(537,1094,o),
(537,1128,q),
(537,1186,o),
(485,1249,o),
(414,1280,o),
(330,1286,o),
(297,1286,q),
(297,1389,l),
(379,1389,l),
(420,1389,o),
(471,1372,q),
(555,1343,o),
(647,1210,o),
(647,1124,q),
(647,1110,o),
(643,1055,o),
(635,1018,q),
(635,1012,o),
(631,989,o),
(625,961,o),
(618,938,o),
(616,930,q),
(608,897,o),
(596,817,o),
(596,782,q),
(596,739,o),
(641,688,o),
(700,659,o),
(760,649,o),
(778,647,q),
(778,539,l),
(696,530,o),
(596,467,o),
(596,401,q),
(596,381,o),
(600,338,o),
(606,297,o),
(614,264,o),
(616,256,q),
(625,211,o),
(637,156,o),
(643,117,o),
(647,88,o),
(647,68,q),
(647,-39,o),
(553,-152,o),
(432,-199,o),
(317,-203,o),
(297,-203,q)
);
}
);
width = 1278;
}
);
unicode = 125;
},
{
glyphname = asciitilde;
layers = (
{
layerId = "D3759F44-48FA-4031-889A-0E35E35DF10A";
shapes = (
{
closed = 1;
nodes = (
(1098,743,l),
(1083,721,o),
(1040,651,o),
(973,588,o),
(889,541,o),
(836,541,q),
(827,541,o),
(803,543,o),
(760,553,o),
(690,578,o),
(635,600,q),
(584,623,o),
(524,647,o),
(485,659,o),
(459,664,o),
(442,664,q),
(379,664,o),
(299,565,o),
(254,487,q),
(182,571,l),
(205,606,o),
(254,684,o),
(315,745,o),
(391,786,o),
(442,786,q),
(489,786,o),
(584,754,o),
(668,717,q),
(709,700,o),
(764,680,o),
(799,668,o),
(821,662,o),
(834,662,q),
(846,662,o),
(885,672,o),
(934,700,o),
(987,756,o),
(1014,805,q),
(1014,809,o),
(1022,821,o),
(1024,823,q)
);
}
);
width = 1278;
}
);
unicode = 126;
},
{
glyphname = exclamdown;
layers = (
{
layerId = "D3759F44-48FA-4031-889A-0E35E35DF10A";
shapes = (
{
closed = 1;
nodes = (
(688,512,l),
(727,-295,l),
(549,-295,l),
(590,512,l)
);
},
{
closed = 1;
nodes = (
(575,696,o),
(492,774,o),
(492,829,q),
(492,885,o),
(578,958,o),
(639,958,q),
(700,958,o),
(786,883,o),
(786,827,q),
(786,770,o),
(700,696,o),
(639,696,q)
);
}
);
width = 1278;
}
);
unicode = 161;
},
{
glyphname = cent;
layers = (
{
layerId = "D3759F44-48FA-4031-889A-0E35E35DF10A";
shapes = (
{
closed = 1;
nodes = (
(707,289,l),
(754,299,o),
(823,315,o),
(895,340,o),
(975,383,o),
(1032,420,q),
(1083,332,l),
(1081,332,o),
(1073,326,o),
(1071,326,q),
(1020,291,o),
(942,248,o),
(862,217,o),
(770,197,o),
(707,184,q),
(707,-121,l),
(602,-121,l),
(602,184,l),
(543,199,o),
(457,225,o),
(389,264,o),
(336,317,o),
(311,354,q),
(279,403,o),
(236,522,o),
(236,598,q),
(236,674,o),
(285,811,o),
(377,922,o),
(514,999,o),
(602,1014,q),
(602,1303,l),
(707,1303,l),
(707,1014,l),
(758,1010,o),
(838,983,o),
(891,956,o),
(922,928,o),
(926,924,q),
(930,922,o),
(936,915,o),
(940,915,q),
(946,915,o),
(952,930,o),
(958,948,o),
(958,956,q),
(961,963,o),
(961,965,q),
(965,987,o),
(965,991,q),
(1065,979,l),
(1059,942,o),
(1047,850,o),
(1047,807,q),
(1047,786,o),
(1049,729,o),
(1053,680,q),
(952,668,l),
(952,686,o),
(948,737,o),
(930,791,o),
(899,844,o),
(870,862,q),
(829,893,o),
(735,915,o),
(707,915,q)
);
},
{
closed = 1;
nodes = (
(602,909,l),
(508,889,o),
(403,793,o),
(356,690,o),
(348,606,o),
(348,600,q),
(348,553,o),
(381,442,o),
(420,393,q),
(463,338,o),
(555,303,o),
(602,291,q)
);
}
);
width = 1278;
}
);
unicode = 162;
},
{
glyphname = sterling;
layers = (
{
layerId = "D3759F44-48FA-4031-889A-0E35E35DF10A";
shapes = (
{
closed = 1;
nodes = (
(397,723,l),
(367,807,o),
(342,905,o),
(342,954,q),
(342,1028,o),
(406,1157,o),
(512,1249,o),
(647,1303,o),
(725,1303,q),
(805,1303,o),
(922,1270,o),
(967,1253,q),
(971,1249,o),
(987,1245,o),
(991,1245,q),
(995,1245,o),
(1001,1253,o),
(1008,1268,q),
(1104,1268,l),
(1085,1208,o),
(1067,1106,o),
(1063,1028,q),
(967,1018,l),
(969,1044,o),
(971,1079,o),
(971,1087,q),
(971,1102,o),
(961,1137,o),
(944,1149,q),
(920,1161,o),
(797,1200,o),
(729,1200,q),
(659,1200,o),
(553,1157,o),
(483,1085,o),
(446,999,o),
(446,956,q),
(446,934,o),
(455,893,o),
(467,840,o),
(487,770,o),
(504,723,q),
(1022,723,l),
(1022,623,l),
(535,623,l),
(545,580,o),
(553,512,o),
(553,467,q),
(553,395,o),
(532,285,o),
(498,199,o),
(461,129,o),
(440,104,q),
(444,100,l),
(475,115,o),
(547,141,o),
(596,141,q),
(635,141,o),
(702,125,o),
(760,102,q),
(807,86,o),
(858,70,o),
(883,70,q),
(934,70,o),
(1012,115,o),
(1063,158,q),
(1124,82,l),
(1110,66,o),
(1065,29,o),
(1008,-6,o),
(934,-31,o),
(889,-31,q),
(858,-31,o),
(791,-16,o),
(739,2,q),
(680,23,o),
(621,41,o),
(586,41,q),
(543,41,o),
(434,8,o),
(344,-43,q),
(274,49,l),
(336,113,o),
(410,238,o),
(444,348,o),
(455,432,o),
(455,459,q),
(455,541,o),
(428,623,q),
(205,623,l),
(205,723,l)
);
}
);
width = 1278;
}
);
unicode = 163;
},
{
glyphname = currency;
layers = (
{
layerId = "D3759F44-48FA-4031-889A-0E35E35DF10A";
shapes = (
{
closed = 1;
nodes = (
(1044,129,l),
(870,301,l),
(805,248,o),
(674,221,o),
(639,221,q),
(627,221,o),
(578,225,o),
(516,242,o),
(442,272,o),
(408,301,q),
(233,129,l),
(160,203,l),
(334,373,l),
(279,455,o),
(260,569,o),
(260,586,q),
(260,688,o),
(311,799,o),
(334,831,q),
(160,1004,l),
(233,1073,l),
(408,903,l),
(473,954,o),
(596,981,o),
(639,981,q),
(686,981,o),
(760,965,o),
(817,940,o),
(858,911,o),
(870,903,q),
(1044,1073,l),
(1118,1004,l),
(944,831,l),
(997,756,o),
(1020,641,o),
(1020,618,q),
(1020,567,o),
(1004,487,o),
(979,430,o),
(954,387,o),
(944,373,q),
(1118,203,l)
);
},
{
closed = 1;
nodes = (
(920,655,o),
(883,756,o),
(807,836,o),
(702,883,o),
(639,883,q),
(573,883,o),
(471,834,o),
(397,754,o),
(360,653,o),
(360,602,q),
(360,547,o),
(397,446,o),
(469,369,o),
(573,322,o),
(637,322,q),
(700,322,o),
(807,369,o),
(881,446,o),
(920,547,o),
(920,602,q)
);
}
);
width = 1278;
}
);
unicode = 164;
},
{
glyphname = yen;
layers = (
{
layerId = "D3759F44-48FA-4031-889A-0E35E35DF10A";
shapes = (
{
closed = 1;
nodes = (
(950,100,l),
(950,0,l),
(340,0,l),
(340,100,l),
(594,100,l),
(594,297,l),
(281,297,l),
(281,395,l),
(594,395,l),
(594,520,l),
(281,520,l),
(281,621,l),
(594,621,l),
(594,647,l),
(199,1163,l),
(68,1163,l),
(68,1264,l),
(487,1264,l),
(487,1163,l),
(326,1163,l),
(645,748,l),
(958,1163,l),
(797,1163,l),
(797,1264,l),
(1210,1264,l),
(1210,1163,l),
(1081,1163,l),
(696,647,l),
(696,621,l),
(1004,621,l),
(1004,520,l),
(696,520,l),
(696,395,l),
(1004,395,l),
(1004,297,l),
(696,297,l),
(696,100,l)
);
}
);
width = 1278;
}
);
unicode = 165;
},
{
glyphname = brokenbar;
layers = (
{
layerId = "D3759F44-48FA-4031-889A-0E35E35DF10A";
shapes = (
{
closed = 1;
nodes = (
(584,639,l),
(584,1434,l),
(696,1434,l),
(696,639,l)
);
},
{
closed = 1;
nodes = (
(584,-393,l),
(584,401,l),
(696,401,l),
(696,-393,l)
);
}
);
width = 1278;
}
);
unicode = 166;
},
{
glyphname = section;
layers = (
{
layerId = "D3759F44-48FA-4031-889A-0E35E35DF10A";
shapes = (
{
closed = 1;
nodes = (
(899,915,l),
(899,1100,l),
(653,1100,l),
(637,1100,o),
(584,1096,o),
(532,1071,o),
(496,1022,o),
(496,975,q),
(496,934,o),
(543,870,o),
(573,848,q),
(866,623,l),
(905,592,o),
(971,537,o),
(1018,479,o),
(1044,414,o),
(1044,373,q),
(1044,348,o),
(1026,283,o),
(987,223,o),
(918,176,o),
(866,166,q),
(877,150,o),
(907,90,o),
(907,39,q),
(907,-70,o),
(750,-195,o),
(616,-195,q),
(279,-195,l),
(279,113,l),
(379,113,l),
(379,-94,l),
(629,-94,l),
(655,-94,o),
(717,-78,o),
(764,-49,o),
(797,0,o),
(797,37,q),
(797,66,o),
(766,123,o),
(709,166,q),
(424,385,l),
(356,438,o),
(264,539,o),
(264,614,q),
(264,649,o),
(291,723,o),
(338,782,o),
(401,823,o),
(436,831,q),
(401,870,o),
(385,961,o),
(385,973,q),
(385,1042,o),
(449,1133,o),
(483,1157,q),
(532,1186,o),
(647,1200,o),
(684,1200,q),
(999,1200,l),
(999,915,l)
);
},
{
closed = 1;
nodes = (
(528,750,l),
(471,743,o),
(410,702,o),
(379,657,o),
(375,621,o),
(375,616,q),
(375,588,o),
(414,528,o),
(481,477,q),
(770,254,l),
(821,256,o),
(885,283,o),
(920,319,o),
(934,360,o),
(934,373,q),
(934,391,o),
(922,426,o),
(893,463,o),
(842,508,o),
(801,539,q)
);
}
);
width = 1278;
}
);
unicode = 167;
},
{
glyphname = dieresis;
layers = (
{
layerId = "D3759F44-48FA-4031-889A-0E35E35DF10A";
shapes = (
{
closed = 1;
nodes = (
(578,1323,l),
(578,1094,l),
(424,1094,l),
(424,1323,l)
);
},
{
closed = 1;
nodes = (
(854,1323,l),
(854,1094,l),
(700,1094,l),
(700,1323,l)
);
}
);
width = 1278;
}
);
unicode = 168;
},
{
glyphname = copyright;
layers = (
{
layerId = "D3759F44-48FA-4031-889A-0E35E35DF10A";
shapes = (
{
closed = 1;
nodes = (
(856,729,l),
(852,776,o),
(846,840,o),
(836,856,q),
(817,885,o),
(729,920,o),
(674,920,q),
(606,920,o),
(508,872,o),
(438,793,o),
(406,686,o),
(406,627,q),
(406,565,o),
(440,451,o),
(510,367,o),
(604,317,o),
(668,317,q),
(717,317,o),
(791,350,o),
(840,395,o),
(870,446,o),
(883,469,q),
(934,446,l),
(913,395,o),
(852,324,o),
(774,274,o),
(682,252,o),
(637,252,q),
(557,252,o),
(432,311,o),
(342,412,o),
(297,543,o),
(297,618,q),
(297,688,o),
(342,819,o),
(434,920,o),
(573,981,o),
(664,981,q),
(717,981,o),
(860,954,o),
(915,936,q),
(915,729,l)
);
},
{
closed = 1;
nodes = (
(766,1235,o),
(993,1139,o),
(1159,971,o),
(1257,745,o),
(1257,618,q),
(1257,489,o),
(1159,264,o),
(993,96,o),
(766,-2,o),
(639,-2,q),
(512,-2,o),
(287,96,o),
(119,264,o),
(20,489,o),
(20,618,q),
(20,748,o),
(119,973,o),
(287,1139,o),
(514,1235,o),
(639,1235,q)
);
},
{
closed = 1;
nodes = (
(528,1155,o),
(334,1071,o),
(188,924,o),
(102,729,o),
(102,616,q),
(102,504,o),
(188,309,o),
(334,164,o),
(528,78,o),
(639,78,q),
(750,78,o),
(944,164,o),
(1090,309,o),
(1176,504,o),
(1176,616,q),
(1176,727,o),
(1090,924,o),
(946,1069,o),
(750,1155,o),
(639,1155,q)
);
}
);
width = 1278;
}
);
unicode = 169;
},
{
glyphname = ordfeminine;
layers = (
{
layerId = "D3759F44-48FA-4031-889A-0E35E35DF10A";
shapes = (
{
closed = 1;
nodes = (
(408,1182,l),
(481,1212,o),
(575,1235,o),
(625,1235,q),
(817,1235,o),
(817,1065,q),
(817,813,l),
(909,813,l),
(909,737,l),
(737,737,l),
(737,797,l),
(682,754,o),
(598,723,o),
(549,723,q),
(475,723,o),
(369,813,o),
(369,883,q),
(369,958,o),
(496,1055,o),
(604,1055,q),
(637,1055,o),
(690,1051,o),
(737,1044,q),
(737,1059,l),
(737,1112,o),
(684,1159,o),
(623,1159,q),
(582,1159,o),
(496,1135,o),
(436,1110,q)
);
},
{
closed = 1;
nodes = (
(737,967,l),
(692,973,o),
(641,977,o),
(616,977,q),
(541,977,o),
(449,926,o),
(449,883,q),
(449,848,o),
(510,799,o),
(549,799,q),
(647,799,o),
(737,901,q)
);
},
{
closed = 1;
nodes = (
(899,567,l),
(379,567,l),
(379,643,l),
(899,643,l)
);
}
);
width = 1278;
}
);
unicode = 170;
},
{
glyphname = guillemotleft;
layers = (
{
layerId = "D3759F44-48FA-4031-889A-0E35E35DF10A";
shapes = (
{
closed = 1;
nodes = (
(799,106,l),
(512,573,l),
(799,1036,l),
(1028,1036,l),
(741,573,l),
(1028,106,l)
);
},
{
closed = 1;
nodes = (
(393,106,l),
(106,573,l),
(393,1036,l),
(627,1036,l),
(338,573,l),
(627,106,l)
);
}
);
width = 1135;
}
);
unicode = 171;
},
{
glyphname = logicalnot;
layers = (
{
layerId = "D3759F44-48FA-4031-889A-0E35E35DF10A";
shapes = (
{
closed = 1;
nodes = (
(1106,360,l),
(999,360,l),
(999,827,l),
(193,827,l),
(193,934,l),
(1106,934,l)
);
}
);
width = 1278;
}
);
unicode = 172;
},
{
glyphname = uni00AD;
layers = (
{
layerId = "D3759F44-48FA-4031-889A-0E35E35DF10A";
shapes = (
{
closed = 1;
nodes = (
(414,676,l),
(864,676,l),
(864,557,l),
(414,557,l)
);
}
);
width = 1278;
}
);
unicode = 173;
},
{
glyphname = registered;
layers = (
{
layerId = "D3759F44-48FA-4031-889A-0E35E35DF10A";
shapes = (
{
closed = 1;
nodes = (
(635,993,l),
(651,993,o),
(733,987,o),
(817,952,o),
(883,877,o),
(883,811,q),
(883,801,o),
(874,754,o),
(846,696,o),
(780,643,o),
(721,629,q),
(754,604,o),
(801,516,o),
(836,438,q),
(852,401,o),
(874,360,o),
(901,340,o),
(936,338,o),
(963,338,q),
(963,287,l),
(877,287,l),
(815,287,o),
(758,375,o),
(731,449,q),
(709,508,o),
(680,569,o),
(645,600,o),
(600,606,o),
(563,606,q),
(524,606,l),
(524,393,l),
(524,367,o),
(528,352,o),
(539,344,q),
(543,342,o),
(594,338,o),
(610,336,q),
(610,287,l),
(340,287,l),
(340,336,l),
(344,338,o),
(356,338,q),
(369,338,o),
(371,340,q),
(410,344,o),
(428,358,o),
(428,393,q),
(428,891,l),
(428,915,o),
(426,928,o),
(416,934,q),
(414,936,o),
(401,936,q),
(395,936,o),
(365,938,o),
(340,940,q),
(340,993,l)
);
},
{
closed = 1;
nodes = (
(573,657,l),
(670,657,o),
(786,723,o),
(786,805,q),
(786,854,o),
(748,909,o),
(692,936,o),
(633,942,o),
(610,942,q),
(551,942,o),
(524,928,o),
(524,897,q),
(524,657,l)
);
},
{
closed = 1;
nodes = (
(766,1235,o),
(991,1139,o),
(1159,973,o),
(1257,748,o),
(1257,618,q),
(1257,489,o),
(1159,266,o),
(993,98,o),
(766,0,o),
(639,0,q),
(512,0,o),
(285,98,o),
(119,266,o),
(20,489,o),
(20,618,q),
(20,748,o),
(119,973,o),
(287,1139,o),
(514,1235,o),
(639,1235,q)
);
},
{
closed = 1;
nodes = (
(528,1155,o),
(334,1071,o),
(188,924,o),
(102,729,o),
(102,618,q),
(102,508,o),
(184,313,o),
(332,166,o),
(526,82,o),
(639,82,q),
(750,82,o),
(946,166,o),
(1094,313,o),
(1176,508,o),
(1176,618,q),
(1176,731,o),
(1090,926,o),
(944,1071,o),
(748,1155,o),
(639,1155,q)
);
}
);
width = 1278;
}
);
unicode = 174;
},
{
glyphname = overscore;
layers = (
{
layerId = "D3759F44-48FA-4031-889A-0E35E35DF10A";
shapes = (
{
closed = 1;
nodes = (
(1001,1155,l),
(276,1155,l),
(276,1262,l),
(1001,1262,l)
);
}
);
width = 1278;
}
);
unicode = 175;
},
{
glyphname = degree;
layers = (
{
layerId = "D3759F44-48FA-4031-889A-0E35E35DF10A";
shapes = (
{
closed = 1;
nodes = (
(313,1063,o),
(365,1182,o),
(451,1272,o),
(571,1323,o),
(639,1323,q),
(709,1323,o),
(829,1270,o),
(915,1180,o),
(965,1061,o),
(965,995,q),
(965,928,o),
(913,811,o),
(827,723,o),
(707,672,o),
(639,672,q),
(571,672,o),
(451,723,o),
(365,809,o),
(313,926,o),
(313,995,q)
);
},
{
closed = 1;
nodes = (
(430,907,o),
(549,788,o),
(639,788,q),
(684,788,o),
(760,819,o),
(815,877,o),
(848,952,o),
(848,997,q),
(848,1085,o),
(729,1206,o),
(639,1206,q),
(594,1206,o),
(520,1174,o),
(463,1118,o),
(430,1042,o),
(430,997,q)
);
}
);
width = 1278;
}
);
unicode = 176;
},
{
glyphname = plusminus;
layers = (
{
layerId = "D3759F44-48FA-4031-889A-0E35E35DF10A";
shapes = (
{
closed = 1;
nodes = (
(692,809,l),
(1137,809,l),
(1137,702,l),
(692,702,l),
(692,285,l),
(586,285,l),
(586,702,l),
(141,702,l),
(141,809,l),
(586,809,l),
(586,1227,l),
(692,1227,l)
);
},
{
closed = 1;
nodes = (
(1137,66,l),
(141,66,l),
(141,172,l),
(1137,172,l)
);
}
);
width = 1278;
}
);
unicode = 177;
},
{
glyphname = twosuperior;
layers = (
{
layerId = "D3759F44-48FA-4031-889A-0E35E35DF10A";
shapes = (
{
closed = 1;
nodes = (
(864,528,l),
(356,528,l),
(356,610,l),
(375,629,l),
(395,647,o),
(461,705,o),
(528,766,o),
(592,823,o),
(614,844,q),
(668,893,o),
(733,958,o),
(764,1010,o),
(776,1055,o),
(776,1083,q),
(776,1149,o),
(682,1237,o),
(616,1237,q),
(555,1237,o),
(471,1174,o),
(469,1130,q),
(471,1106,l),
(381,1106,l),
(381,1206,l),
(473,1323,o),
(618,1323,q),
(670,1323,o),
(760,1284,o),
(829,1221,o),
(866,1133,o),
(866,1081,q),
(866,1042,o),
(846,975,o),
(795,901,o),
(702,811,o),
(633,748,q),
(485,614,l),
(782,614,l),
(782,735,l),
(864,735,l)
);
}
);
width = 1278;
}
);
unicode = 178;
},
{
glyphname = threesuperior;
layers = (
{
layerId = "D3759F44-48FA-4031-889A-0E35E35DF10A";
shapes = (
{
closed = 1;
nodes = (
(369,1233,l),
(446,1284,o),
(543,1323,o),
(596,1323,q),
(692,1323,o),
(819,1208,o),
(819,1118,q),
(819,1020,o),
(739,952,q),
(858,877,o),
(858,752,q),
(858,643,o),
(711,510,o),
(596,510,q),
(549,510,o),
(467,530,o),
(393,561,q),
(354,578,l),
(387,655,l),
(457,625,o),
(555,594,o),
(600,594,q),
(676,594,o),
(768,684,o),
(768,752,q),
(768,821,o),
(680,897,o),
(596,897,q),
(545,897,l),
(545,981,l),
(602,983,o),
(653,995,o),
(678,1012,q),
(731,1053,o),
(731,1116,q),
(731,1169,o),
(653,1237,o),
(596,1237,q),
(561,1237,o),
(494,1217,o),
(444,1182,q),
(414,1161,l)
);
}
);
width = 1278;
}
);
unicode = 179;
},
{
glyphname = acute;
layers = (
{
layerId = "D3759F44-48FA-4031-889A-0E35E35DF10A";
shapes = (
{
closed = 1;
nodes = (
(459,1071,l),
(647,1317,l),
(874,1317,l),
(571,1071,l)
);
}
);
width = 1278;
}
);
unicode = 180;
},
{
glyphname = mu;
layers = (
{
layerId = "D3759F44-48FA-4031-889A-0E35E35DF10A";
shapes = (
{
closed = 1;
nodes = (
(358,416,l),
(358,365,o),
(362,291,o),
(373,238,o),
(391,201,o),
(408,180,q),
(446,127,o),
(567,76,o),
(627,76,q),
(686,76,o),
(817,127,o),
(854,174,q),
(872,201,o),
(897,250,o),
(909,305,o),
(913,373,o),
(913,416,q),
(913,827,l),
(739,827,l),
(739,915,l),
(1020,915,l),
(1020,88,l),
(1196,88,l),
(1196,0,l),
(915,0,l),
(915,113,l),
(911,113,l),
(895,88,l),
(854,33,o),
(705,-31,o),
(631,-31,q),
(592,-31,o),
(520,-10,o),
(459,14,o),
(416,43,o),
(408,53,q),
(387,72,o),
(375,86,o),
(356,100,q),
(356,-317,l),
(252,-317,l),
(252,827,l),
(76,827,l),
(76,915,l),
(358,915,l)
);
}
);
width = 1278;
}
);
unicode = 181;
},
{
glyphname = paragraph;
layers = (
{
layerId = "D3759F44-48FA-4031-889A-0E35E35DF10A";
shapes = (
{
closed = 1;
nodes = (
(1057,-100,l),
(1057,-164,l),
(809,-164,l),
(809,-100,l),
(850,-100,l),
(850,1135,l),
(676,1135,l),
(676,-100,l),
(715,-100,l),
(715,-164,l),
(446,-164,l),
(446,-100,l),
(580,-100,l),
(580,555,l),
(518,551,o),
(389,578,o),
(283,649,o),
(215,780,o),
(215,883,q),
(215,999,o),
(287,1128,o),
(401,1188,o),
(539,1200,o),
(606,1200,q),
(1049,1200,l),
(1049,1135,l),
(946,1135,l),
(946,-100,l)
);
},
{
closed = 1;
nodes = (
(580,1135,l),
(543,1135,o),
(475,1126,o),
(422,1090,o),
(387,1014,o),
(387,944,q),
(387,815,l),
(387,803,o),
(395,735,o),
(434,664,o),
(512,614,o),
(580,621,q)
);
}
);
width = 1278;
}
);
unicode = 182;
},
{
glyphname = middot;
layers = (
{
layerId = "D3759F44-48FA-4031-889A-0E35E35DF10A";
shapes = (
{
closed = 1;
nodes = (
(672,791,o),
(729,768,o),
(776,731,o),
(803,678,o),
(803,645,q),
(803,610,o),
(774,557,o),
(727,520,o),
(670,500,o),
(639,500,q),
(610,500,o),
(553,520,o),
(504,555,o),
(475,608,o),
(475,645,q),
(475,680,o),
(504,733,o),
(551,770,o),
(608,791,o),
(639,791,q)
);
}
);
width = 1278;
}
);
unicode = 183;
},
{
glyphname = cedilla;
layers = (
{
layerId = "D3759F44-48FA-4031-889A-0E35E35DF10A";
shapes = (
{
closed = 1;
nodes = (
(686,-53,l),
(739,-61,o),
(799,-100,o),
(829,-143,o),
(836,-178,o),
(836,-184,q),
(836,-197,o),
(827,-236,o),
(795,-276,o),
(725,-309,o),
(664,-309,q),
(586,-309,o),
(461,-283,o),
(430,-276,q),
(444,-182,l),
(479,-193,o),
(594,-213,o),
(662,-213,q),
(682,-213,l),
(698,-213,o),
(735,-201,o),
(735,-184,q),
(735,-156,o),
(643,-137,o),
(582,-131,q),
(596,-4,l),
(692,-4,l)
);
}
);
width = 1278;
}
);
unicode = 184;
},
{
glyphname = onesuperior;
layers = (
{
layerId = "D3759F44-48FA-4031-889A-0E35E35DF10A";
shapes = (
{
closed = 1;
nodes = (
(694,1323,l),
(694,614,l),
(907,614,l),
(907,528,l),
(389,528,l),
(389,614,l),
(606,614,l),
(606,1217,l),
(414,1130,l),
(379,1208,l),
(639,1323,l)
);
}
);
width = 1278;
}
);
unicode = 185;
},
{
glyphname = ordmasculine;
layers = (
{
layerId = "D3759F44-48FA-4031-889A-0E35E35DF10A";
shapes = (
{
closed = 1;
nodes = (
(367,1094,o),
(518,1235,o),
(639,1235,q),
(760,1235,o),
(911,1094,o),
(911,977,q),
(911,862,o),
(760,723,o),
(639,723,q),
(518,723,o),
(367,862,o),
(367,977,q)
);
},
{
closed = 1;
nodes = (
(451,899,o),
(555,799,o),
(639,799,q),
(723,799,o),
(827,899,o),
(827,979,q),
(827,1059,o),
(723,1159,o),
(639,1159,q),
(555,1159,o),
(451,1059,o),
(451,979,q)
);
},
{
closed = 1;
nodes = (
(899,567,l),
(379,567,l),
(379,643,l),
(899,643,l)
);
}
);
width = 1278;
}
);
unicode = 186;
},
{
glyphname = guillemotright;
layers = (
{
layerId = "D3759F44-48FA-4031-889A-0E35E35DF10A";
shapes = (
{
closed = 1;
nodes = (
(336,106,l),
(106,106,l),
(395,573,l),
(106,1036,l),
(336,1036,l),
(627,573,l)
);
},
{
closed = 1;
nodes = (
(741,106,l),
(512,106,l),
(797,573,l),
(512,1036,l),
(741,1036,l),
(1028,573,l)
);
}
);
width = 1135;
}
);
unicode = 187;
},
{
glyphname = onequarter;
layers = (
{
layerId = "D3759F44-48FA-4031-889A-0E35E35DF10A";
shapes = (
{
closed = 1;
nodes = (
(1253,98,l),
(1253,18,l),
(1139,18,l),
(1139,-88,l),
(1253,-88,l),
(1253,-164,l),
(915,-164,l),
(915,-88,l),
(1059,-88,l),
(1059,18,l),
(721,18,l),
(721,104,l),
(1036,631,l),
(1139,631,l),
(1139,98,l)
);
},
{
closed = 1;
nodes = (
(1055,514,l),
(809,98,l),
(1059,98,l),
(1059,514,l)
);
},
{
closed = 1;
nodes = (
(326,1325,l),
(326,610,l),
(487,610,l),
(487,530,l),
(82,530,l),
(82,610,l),
(246,610,l),
(246,1225,l),
(90,1161,l),
(55,1233,l),
(274,1325,l)
);
},
{
closed = 1;
nodes = (
(188,-193,l),
(127,-145,l),
(1214,1348,l),
(1274,1307,l)
);
}
);
width = 1278;
}
);
unicode = 188;
},
{
glyphname = onehalf;
layers = (
{
layerId = "D3759F44-48FA-4031-889A-0E35E35DF10A";
shapes = (
{
closed = 1;
nodes = (
(311,1325,l),
(311,610,l),
(473,610,l),
(473,530,l),
(66,530,l),
(66,610,l),
(229,610,l),
(229,1225,l),
(74,1161,l),
(41,1233,l),
(262,1325,l)
);
},
{
closed = 1;
nodes = (
(160,-193,l),
(100,-145,l),
(1184,1348,l),
(1245,1307,l)
);
},
{
closed = 1;
nodes = (
(1257,-164,l),
(768,-164,l),
(768,-82,l),
(776,-74,o),
(778,-72,o),
(795,-59,o),
(840,-18,o),
(891,29,q),
(944,78,o),
(1020,152,o),
(1073,203,o),
(1110,238,o),
(1126,258,q),
(1157,295,o),
(1176,354,o),
(1176,389,q),
(1176,459,o),
(1083,547,o),
(1014,547,q),
(958,547,o),
(870,485,o),
(870,442,q),
(870,438,o),
(872,428,o),
(872,418,q),
(793,418,l),
(793,514,l),
(885,629,o),
(1018,629,q),
(1069,629,o),
(1159,592,o),
(1223,528,o),
(1260,440,o),
(1260,389,q),
(1260,315,o),
(1171,174,o),
(1057,72,q),
(924,-45,l),
(885,-84,l),
(1184,-84,l),
(1184,39,l),
(1257,39,l)
);
}
);
width = 1278;
}
);
unicode = 189;
},
{
glyphname = threequarters;
layers = (
{
layerId = "D3759F44-48FA-4031-889A-0E35E35DF10A";
shapes = (
{
closed = 1;
nodes = (
(1069,514,l),
(823,98,l),
(1073,98,l),
(1073,514,l)
);
},
{
closed = 1;
nodes = (
(1268,98,l),
(1268,18,l),
(1155,18,l),
(1155,-88,l),
(1268,-88,l),
(1268,-164,l),
(930,-164,l),
(930,-88,l),
(1073,-88,l),
(1073,18,l),
(735,18,l),
(735,104,l),
(1053,631,l),
(1155,631,l),
(1155,98,l)
);
},
{
closed = 1;
nodes = (
(61,1237,l),
(139,1286,o),
(236,1325,o),
(289,1325,q),
(336,1325,o),
(420,1292,o),
(481,1239,o),
(516,1165,o),
(516,1122,q),
(516,1069,o),
(475,991,o),
(430,954,q),
(553,885,o),
(553,754,q),
(553,647,o),
(406,514,o),
(289,514,q),
(266,514,o),
(225,518,o),
(178,530,o),
(123,549,o),
(86,565,q),
(47,580,l),
(78,653,l),
(152,621,o),
(248,594,o),
(295,594,q),
(371,594,o),
(469,682,o),
(469,754,q),
(469,827,o),
(379,909,o),
(289,905,q),
(244,903,l),
(244,981,l),
(299,983,o),
(352,995,o),
(375,1012,q),
(430,1051,o),
(430,1120,q),
(430,1176,o),
(352,1243,o),
(289,1243,q),
(254,1243,o),
(184,1219,o),
(135,1188,q),
(102,1169,l)
);
},
{
closed = 1;
nodes = (
(203,-193,l),
(143,-145,l),
(1229,1348,l),
(1288,1307,l)
);
}
);
width = 1278;
}
);
unicode = 190;
},
{
glyphname = questiondown;
layers = (
{
layerId = "D3759F44-48FA-4031-889A-0E35E35DF10A";
shapes = (
{
closed = 1;
nodes = (
(1010,-223,l),
(954,-244,o),
(866,-270,o),
(788,-289,o),
(709,-299,o),
(664,-299,q),
(563,-299,o),
(410,-238,o),
(307,-143,o),
(256,-16,o),
(256,51,q),
(256,145,o),
(336,270,o),
(455,352,o),
(588,397,o),
(641,414,q),
(641,541,l),
(745,541,l),
(745,334,l),
(741,332,o),
(713,326,o),
(702,324,q),
(649,311,o),
(530,274,o),
(432,213,o),
(367,117,o),
(367,45,q),
(367,12,o),
(391,-70,o),
(459,-145,o),
(573,-195,o),
(662,-195,q),
(741,-195,o),
(850,-164,o),
(903,-143,q),
(903,-6,l),
(1010,-6,l)
);
},
{
closed = 1;
nodes = (
(639,696,o),
(553,770,o),
(553,827,q),
(553,885,o),
(641,958,o),
(700,958,q),
(760,958,o),
(848,885,o),
(848,827,q),
(848,770,o),
(762,696,o),
(700,696,q)
);
}
);
width = 1278;
}
);
unicode = 191;
},
{
glyphname = Agrave;
layers = (
{
layerId = "D3759F44-48FA-4031-889A-0E35E35DF10A";
shapes = (
{
closed = 1;
nodes = (
(1149,100,l),
(1257,100,l),
(1257,0,l),
(819,0,l),
(819,100,l),
(1036,100,l),
(915,395,l),
(360,395,l),
(242,100,l),
(459,100,l),
(459,0,l),
(20,0,l),
(20,100,l),
(135,100,l),
(545,1100,l),
(242,1100,l),
(242,1200,l),
(698,1200,l)
);
},
{
closed = 1;
nodes = (
(397,489,l),
(881,489,l),
(639,1073,l)
);
},
{
closed = 1;
nodes = (
(797,1354,l),
(686,1354,l),
(406,1599,l),
(633,1599,l)
);
}
);
width = 1278;
}
);
unicode = 192;
},
{
glyphname = Aacute;
layers = (
{
layerId = "D3759F44-48FA-4031-889A-0E35E35DF10A";
shapes = (
{
closed = 1;
nodes = (
(1149,100,l),
(1257,100,l),
(1257,0,l),
(819,0,l),
(819,100,l),
(1036,100,l),
(915,395,l),
(360,395,l),
(242,100,l),
(459,100,l),
(459,0,l),
(20,0,l),
(20,100,l),
(135,100,l),
(545,1100,l),
(242,1100,l),
(242,1200,l),
(698,1200,l)
);
},
{
closed = 1;
nodes = (
(397,489,l),
(881,489,l),
(639,1073,l)
);
},
{
closed = 1;
nodes = (
(459,1354,l),
(647,1599,l),
(874,1599,l),
(571,1354,l)
);
}
);
width = 1278;
}
);
unicode = 193;
},
{
glyphname = Acircumflex;
layers = (
{
layerId = "D3759F44-48FA-4031-889A-0E35E35DF10A";
shapes = (
{
closed = 1;
nodes = (
(1149,100,l),
(1257,100,l),
(1257,0,l),
(819,0,l),
(819,100,l),
(1036,100,l),
(915,395,l),
(360,395,l),
(242,100,l),
(459,100,l),
(459,0,l),
(20,0,l),
(20,100,l),
(135,100,l),
(545,1100,l),
(242,1100,l),
(242,1200,l),
(698,1200,l)
);
},
{
closed = 1;
nodes = (
(397,489,l),
(881,489,l),
(639,1073,l)
);
},
{
closed = 1;
nodes = (
(911,1405,l),
(844,1352,l),
(629,1493,l),
(434,1352,l),
(365,1403,l),
(551,1606,l),
(715,1606,l)
);
}
);
width = 1278;
}
);
unicode = 194;
},
{
glyphname = Atilde;
layers = (
{
layerId = "D3759F44-48FA-4031-889A-0E35E35DF10A";
shapes = (
{
closed = 1;
nodes = (
(1149,100,l),
(1257,100,l),
(1257,0,l),
(819,0,l),
(819,100,l),
(1036,100,l),
(915,395,l),
(360,395,l),
(242,100,l),
(459,100,l),
(459,0,l),
(20,0,l),
(20,100,l),
(135,100,l),
(545,1100,l),
(242,1100,l),
(242,1200,l),
(698,1200,l)
);
},
{
closed = 1;
nodes = (
(397,489,l),
(881,489,l),
(639,1073,l)
);
},
{
closed = 1;
nodes = (
(979,1575,l),
(975,1569,o),
(975,1559,q),
(950,1470,o),
(836,1378,o),
(766,1378,q),
(731,1378,o),
(664,1407,o),
(616,1446,q),
(565,1485,o),
(522,1507,o),
(498,1507,q),
(457,1507,o),
(406,1440,o),
(387,1397,q),
(387,1395,o),
(385,1389,q),
(383,1384,l),
(299,1415,l),
(328,1495,o),
(420,1604,o),
(498,1604,q),
(549,1604,o),
(623,1561,o),
(655,1532,q),
(696,1501,o),
(750,1475,o),
(774,1475,q),
(801,1475,o),
(842,1501,o),
(870,1542,o),
(889,1585,o),
(895,1602,q)
);
}
);
width = 1278;
}
);
unicode = 195;
},
{
glyphname = Adieresis;
layers = (
{
layerId = "D3759F44-48FA-4031-889A-0E35E35DF10A";
shapes = (
{
closed = 1;
nodes = (
(1149,100,l),
(1257,100,l),
(1257,0,l),
(819,0,l),
(819,100,l),
(1036,100,l),
(915,395,l),
(360,395,l),
(242,100,l),
(459,100,l),
(459,0,l),
(20,0,l),
(20,100,l),
(135,100,l),
(545,1100,l),
(242,1100,l),
(242,1200,l),
(698,1200,l)
);
},
{
closed = 1;
nodes = (
(397,489,l),
(881,489,l),
(639,1073,l)
);
},
{
closed = 1;
nodes = (
(578,1606,l),
(578,1376,l),
(424,1376,l),
(424,1606,l)
);
},
{
closed = 1;
nodes = (
(854,1606,l),
(854,1376,l),
(700,1376,l),
(700,1606,l)
);
}
);
width = 1278;
}
);
unicode = 196;
},
{
glyphname = Aring;
layers = (
{
layerId = "D3759F44-48FA-4031-889A-0E35E35DF10A";
shapes = (
{
closed = 1;
nodes = (
(1149,100,l),
(1257,100,l),
(1257,0,l),
(819,0,l),
(819,100,l),
(1036,100,l),
(915,395,l),
(360,395,l),
(242,100,l),
(459,100,l),
(459,0,l),
(20,0,l),
(20,100,l),
(135,100,l),
(545,1100,l),
(242,1100,l),
(242,1200,l),
(698,1200,l)
);
},
{
closed = 1;
nodes = (
(397,489,l),
(881,489,l),
(639,1073,l)
);
},
{
closed = 1;
nodes = (
(707,1651,o),
(801,1556,o),
(801,1489,q),
(801,1421,o),
(707,1327,o),
(639,1327,q),
(571,1327,o),
(477,1421,o),
(477,1489,q),
(477,1556,o),
(571,1651,o),
(639,1651,q)
);
},
{
closed = 1;
nodes = (
(606,1569,o),
(557,1528,o),
(557,1489,q),
(557,1454,o),
(606,1407,o),
(641,1407,q),
(676,1407,o),
(721,1454,o),
(721,1489,q),
(721,1524,o),
(676,1569,o),
(641,1569,q)
);
}
);
width = 1278;
}
);
unicode = 197;
},
{
glyphname = AE;
layers = (
{
layerId = "D3759F44-48FA-4031-889A-0E35E35DF10A";
shapes = (
{
closed = 1;
nodes = (
(1169,815,l),
(1073,815,l),
(1055,1100,l),
(750,1100,l),
(750,686,l),
(889,686,l),
(889,842,l),
(987,842,l),
(987,430,l),
(889,430,l),
(889,586,l),
(750,586,l),
(750,100,l),
(1073,100,l),
(1085,395,l),
(1184,395,l),
(1184,0,l),
(643,0,l),
(643,391,l),
(381,391,l),
(260,100,l),
(449,100,l),
(449,0,l),
(41,0,l),
(41,100,l),
(154,100,l),
(555,1100,l),
(336,1100,l),
(336,1200,l),
(1169,1200,l)
);
},
{
closed = 1;
nodes = (
(639,1073,l),
(418,492,l),
(643,492,l),
(643,1073,l)
);
}
);
width = 1278;
}
);
unicode = 198;
},
{
glyphname = Ccedilla;
layers = (
{
layerId = "D3759F44-48FA-4031-889A-0E35E35DF10A";
shapes = (
{
closed = 1;
nodes = (
(754,-53,l),
(776,-53,o),
(827,-70,o),
(870,-104,o),
(903,-154,o),
(903,-184,q),
(903,-195,o),
(895,-233,o),
(862,-276,o),
(793,-309,o),
(733,-309,q),
(653,-309,o),
(528,-283,o),
(498,-276,q),
(514,-182,l),
(555,-195,o),
(662,-213,o),
(735,-213,q),
(750,-213,l),
(766,-213,o),
(803,-201,o),
(803,-184,q),
(803,-156,o),
(711,-137,o),
(649,-131,q),
(662,-37,l),
(512,-20,o),
(309,115,o),
(188,305,o),
(137,520,o),
(137,614,q),
(137,752,o),
(223,981,o),
(377,1147,o),
(586,1235,o),
(707,1235,q),
(741,1235,o),
(872,1217,o),
(942,1174,q),
(946,1169,o),
(967,1153,o),
(991,1133,o),
(1012,1120,o),
(1016,1120,q),
(1022,1120,o),
(1032,1141,o),
(1040,1174,o),
(1047,1208,o),
(1049,1223,q),
(1126,1223,l),
(1122,1087,o),
(1137,901,o),
(1149,815,q),
(1049,799,l),
(1042,836,o),
(1014,948,o),
(944,1053,o),
(813,1128,o),
(702,1128,q),
(623,1128,o),
(463,1067,o),
(332,942,o),
(252,748,o),
(252,616,q),
(252,514,o),
(303,317,o),
(416,164,o),
(590,70,o),
(711,70,q),
(801,70,o),
(954,119,o),
(1075,190,o),
(1167,264,o),
(1194,287,q),
(1266,211,l),
(1157,109,o),
(901,-23,o),
(754,-37,q)
);
}
);
width = 1278;
}
);
unicode = 199;
},
{
glyphname = Egrave;
layers = (
{
layerId = "D3759F44-48FA-4031-889A-0E35E35DF10A";
shapes = (
{
closed = 1;
nodes = (
(1141,807,l),
(1044,807,l),
(1022,1100,l),
(410,1100,l),
(410,684,l),
(754,684,l),
(754,840,l),
(852,840,l),
(852,430,l),
(754,430,l),
(754,584,l),
(410,584,l),
(410,100,l),
(1044,100,l),
(1055,391,l),
(1153,391,l),
(1153,0,l),
(121,0,l),
(121,100,l),
(303,100,l),
(303,1100,l),
(121,1100,l),
(121,1200,l),
(1133,1200,l)
);
},
{
closed = 1;
nodes = (
(797,1354,l),
(686,1354,l),
(406,1599,l),
(633,1599,l)
);
}
);
width = 1278;
}
);
unicode = 200;
},
{
glyphname = Eacute;
layers = (
{
layerId = "D3759F44-48FA-4031-889A-0E35E35DF10A";
shapes = (
{
closed = 1;
nodes = (
(1141,807,l),
(1044,807,l),
(1022,1100,l),
(410,1100,l),
(410,684,l),
(754,684,l),
(754,840,l),
(852,840,l),
(852,430,l),
(754,430,l),
(754,584,l),
(410,584,l),
(410,100,l),
(1044,100,l),
(1055,391,l),
(1153,391,l),
(1153,0,l),
(121,0,l),
(121,100,l),
(303,100,l),
(303,1100,l),
(121,1100,l),
(121,1200,l),
(1133,1200,l)
);
},
{
closed = 1;
nodes = (
(459,1354,l),
(647,1599,l),
(874,1599,l),
(571,1354,l)
);
}
);
width = 1278;
}
);
unicode = 201;
},
{
glyphname = Ecircumflex;
layers = (
{
layerId = "D3759F44-48FA-4031-889A-0E35E35DF10A";
shapes = (
{
closed = 1;
nodes = (
(1141,807,l),
(1044,807,l),
(1022,1100,l),
(410,1100,l),
(410,684,l),
(754,684,l),
(754,840,l),
(852,840,l),
(852,430,l),
(754,430,l),
(754,584,l),
(410,584,l),
(410,100,l),
(1044,100,l),
(1055,391,l),
(1153,391,l),
(1153,0,l),
(121,0,l),
(121,100,l),
(303,100,l),
(303,1100,l),
(121,1100,l),
(121,1200,l),
(1133,1200,l)
);
},
{
closed = 1;
nodes = (
(911,1405,l),
(844,1352,l),
(629,1493,l),
(434,1352,l),
(365,1403,l),
(551,1606,l),
(715,1606,l)
);
}
);
width = 1278;
}
);
unicode = 202;
},
{
glyphname = Edieresis;
layers = (
{
layerId = "D3759F44-48FA-4031-889A-0E35E35DF10A";
shapes = (
{
closed = 1;
nodes = (
(1141,807,l),
(1044,807,l),
(1022,1100,l),
(410,1100,l),
(410,684,l),
(754,684,l),
(754,840,l),
(852,840,l),
(852,430,l),
(754,430,l),
(754,584,l),
(410,584,l),
(410,100,l),
(1044,100,l),
(1055,391,l),
(1153,391,l),
(1153,0,l),
(121,0,l),
(121,100,l),
(303,100,l),
(303,1100,l),
(121,1100,l),
(121,1200,l),
(1133,1200,l)
);
},
{
closed = 1;
nodes = (
(578,1606,l),
(578,1376,l),
(424,1376,l),
(424,1606,l)
);
},
{
closed = 1;
nodes = (
(854,1606,l),
(854,1376,l),
(700,1376,l),
(700,1606,l)
);
}
);
width = 1278;
}
);
unicode = 203;
},
{
glyphname = Igrave;
layers = (
{
layerId = "D3759F44-48FA-4031-889A-0E35E35DF10A";
shapes = (
{
closed = 1;
nodes = (
(1065,1100,l),
(692,1100,l),
(692,100,l),
(1065,100,l),
(1065,0,l),
(213,0,l),
(213,100,l),
(586,100,l),
(586,1100,l),
(213,1100,l),
(213,1200,l),
(1065,1200,l)
);
},
{
closed = 1;
nodes = (
(797,1354,l),
(686,1354,l),
(406,1599,l),
(633,1599,l)
);
}
);
width = 1278;
}
);
unicode = 204;
},
{
glyphname = Iacute;
layers = (
{
layerId = "D3759F44-48FA-4031-889A-0E35E35DF10A";
shapes = (
{
closed = 1;
nodes = (
(1065,1100,l),
(692,1100,l),
(692,100,l),
(1065,100,l),
(1065,0,l),
(213,0,l),
(213,100,l),
(586,100,l),
(586,1100,l),
(213,1100,l),
(213,1200,l),
(1065,1200,l)
);
},
{
closed = 1;
nodes = (
(459,1354,l),
(647,1599,l),
(874,1599,l),
(571,1354,l)
);
}
);
width = 1278;
}
);
unicode = 205;
},
{
glyphname = Icircumflex;
layers = (
{
layerId = "D3759F44-48FA-4031-889A-0E35E35DF10A";
shapes = (
{
closed = 1;
nodes = (
(1065,1100,l),
(692,1100,l),
(692,100,l),
(1065,100,l),
(1065,0,l),
(213,0,l),
(213,100,l),
(586,100,l),
(586,1100,l),
(213,1100,l),
(213,1200,l),
(1065,1200,l)
);
},
{
closed = 1;
nodes = (
(911,1405,l),
(844,1352,l),
(629,1493,l),
(434,1352,l),
(365,1403,l),
(551,1606,l),
(715,1606,l)
);
}
);
width = 1278;
}
);
unicode = 206;
},
{
glyphname = Idieresis;
layers = (
{
layerId = "D3759F44-48FA-4031-889A-0E35E35DF10A";
shapes = (
{
closed = 1;
nodes = (
(1065,1100,l),
(692,1100,l),
(692,100,l),
(1065,100,l),
(1065,0,l),
(213,0,l),
(213,100,l),
(586,100,l),
(586,1100,l),
(213,1100,l),
(213,1200,l),
(1065,1200,l)
);
},
{
closed = 1;
nodes = (
(578,1606,l),
(578,1376,l),
(424,1376,l),
(424,1606,l)
);
},
{
closed = 1;
nodes = (
(854,1606,l),
(854,1376,l),
(700,1376,l),
(700,1606,l)
);
}
);
width = 1278;
}
);
unicode = 207;
},
{
glyphname = Eth;
layers = (
{
layerId = "D3759F44-48FA-4031-889A-0E35E35DF10A";
shapes = (
{
closed = 1;
nodes = (
(72,684,l),
(242,684,l),
(242,1100,l),
(72,1100,l),
(72,1200,l),
(604,1200,l),
(676,1200,o),
(797,1188,o),
(901,1157,o),
(997,1094,o),
(1042,1040,q),
(1087,981,o),
(1141,858,o),
(1167,743,o),
(1174,649,o),
(1174,623,q),
(1174,430,o),
(1065,190,o),
(997,123,q),
(948,76,o),
(834,29,o),
(723,4,o),
(627,0,o),
(596,0,q),
(72,0,l),
(72,100,l),
(242,100,l),
(242,584,l),
(72,584,l)
);
},
{
closed = 1;
nodes = (
(348,100,l),
(596,100,l),
(625,100,o),
(700,102,o),
(788,121,o),
(877,162,o),
(915,201,q),
(973,258,o),
(1059,469,o),
(1059,616,q),
(1057,715,o),
(1020,856,o),
(969,952,o),
(911,1014,o),
(889,1032,q),
(834,1075,o),
(698,1100,o),
(606,1100,q),
(348,1100,l),
(348,684,l),
(700,684,l),
(700,584,l),
(348,584,l)
);
}
);
width = 1278;
}
);
unicode = 208;
},
{
glyphname = Ntilde;
layers = (
{
layerId = "D3759F44-48FA-4031-889A-0E35E35DF10A";
shapes = (
{
closed = 1;
nodes = (
(983,90,l),
(1022,90,l),
(1022,1100,l),
(784,1100,l),
(784,1200,l),
(1260,1200,l),
(1260,1100,l),
(1120,1100,l),
(1120,-29,l),
(930,-29,l),
(360,1100,l),
(324,1100,l),
(324,100,l),
(565,100,l),
(565,0,l),
(59,0,l),
(59,100,l),
(225,100,l),
(225,1100,l),
(59,1100,l),
(59,1200,l),
(424,1200,l)
);
},
{
closed = 1;
nodes = (
(979,1575,l),
(975,1569,o),
(975,1559,q),
(950,1470,o),
(836,1378,o),
(766,1378,q),
(731,1378,o),
(664,1407,o),
(616,1446,q),
(565,1485,o),
(522,1507,o),
(498,1507,q),
(457,1507,o),
(406,1440,o),
(387,1397,q),
(387,1395,o),
(385,1389,q),
(383,1384,l),
(299,1415,l),
(328,1495,o),
(420,1604,o),
(498,1604,q),
(549,1604,o),
(623,1561,o),
(655,1532,q),
(696,1501,o),
(750,1475,o),
(774,1475,q),
(801,1475,o),
(842,1501,o),
(870,1542,o),
(889,1585,o),
(895,1602,q)
);
}
);
width = 1278;
}
);
unicode = 209;
},
{
glyphname = Ograve;
layers = (
{
layerId = "D3759F44-48FA-4031-889A-0E35E35DF10A";
shapes = (
{
closed = 1;
nodes = (
(92,731,o),
(168,963,o),
(311,1135,o),
(514,1235,o),
(639,1235,q),
(766,1235,o),
(969,1133,o),
(1112,958,o),
(1186,729,o),
(1186,598,q),
(1186,471,o),
(1110,238,o),
(969,66,o),
(766,-37,o),
(639,-37,q),
(514,-37,o),
(311,63,o),
(168,236,o),
(92,467,o),
(92,598,q)
);
},
{
closed = 1;
nodes = (
(207,504,o),
(262,315,o),
(371,164,o),
(532,70,o),
(639,70,q),
(743,70,o),
(905,162,o),
(1016,311,o),
(1071,500,o),
(1071,600,q),
(1071,700,o),
(1014,893,o),
(903,1040,o),
(743,1128,o),
(639,1128,q),
(528,1128,o),
(367,1032,o),
(260,883,o),
(207,692,o),
(207,600,q)
);
},
{
closed = 1;
nodes = (
(797,1354,l),
(686,1354,l),
(406,1599,l),
(633,1599,l)
);
}
);
width = 1278;
}
);
unicode = 210;
},
{
glyphname = Oacute;
layers = (
{
layerId = "D3759F44-48FA-4031-889A-0E35E35DF10A";
shapes = (
{
closed = 1;
nodes = (
(92,731,o),
(168,963,o),
(311,1135,o),
(514,1235,o),
(639,1235,q),
(766,1235,o),
(969,1133,o),
(1112,958,o),
(1186,729,o),
(1186,598,q),
(1186,471,o),
(1110,238,o),
(969,66,o),
(766,-37,o),
(639,-37,q),
(514,-37,o),
(311,63,o),
(168,236,o),
(92,467,o),
(92,598,q)
);
},
{
closed = 1;
nodes = (
(207,504,o),
(262,315,o),
(371,164,o),
(532,70,o),
(639,70,q),
(743,70,o),
(905,162,o),
(1016,311,o),
(1071,500,o),
(1071,600,q),
(1071,700,o),
(1014,893,o),
(903,1040,o),
(743,1128,o),
(639,1128,q),
(528,1128,o),
(367,1032,o),
(260,883,o),
(207,692,o),
(207,600,q)
);
},
{
closed = 1;
nodes = (
(459,1354,l),
(647,1599,l),
(874,1599,l),
(571,1354,l)
);
}
);
width = 1278;
}
);
unicode = 211;
},
{
glyphname = Ocircumflex;
layers = (
{
layerId = "D3759F44-48FA-4031-889A-0E35E35DF10A";
shapes = (
{
closed = 1;
nodes = (
(92,731,o),
(168,963,o),
(311,1135,o),
(514,1235,o),
(639,1235,q),
(766,1235,o),
(969,1133,o),
(1112,958,o),
(1186,729,o),
(1186,598,q),
(1186,471,o),
(1110,238,o),
(969,66,o),
(766,-37,o),
(639,-37,q),
(514,-37,o),
(311,63,o),
(168,236,o),
(92,467,o),
(92,598,q)
);
},
{
closed = 1;
nodes = (
(207,504,o),
(262,315,o),
(371,164,o),
(532,70,o),
(639,70,q),
(743,70,o),
(905,162,o),
(1016,311,o),
(1071,500,o),
(1071,600,q),
(1071,700,o),
(1014,893,o),
(903,1040,o),
(743,1128,o),
(639,1128,q),
(528,1128,o),
(367,1032,o),
(260,883,o),
(207,692,o),
(207,600,q)
);
},
{
closed = 1;
nodes = (
(911,1405,l),
(844,1352,l),
(629,1493,l),
(434,1352,l),
(365,1403,l),
(551,1606,l),
(715,1606,l)
);
}
);
width = 1278;
}
);
unicode = 212;
},
{
glyphname = Otilde;
layers = (
{
layerId = "D3759F44-48FA-4031-889A-0E35E35DF10A";
shapes = (
{
closed = 1;
nodes = (
(92,731,o),
(168,963,o),
(311,1135,o),
(514,1235,o),
(639,1235,q),
(766,1235,o),
(969,1133,o),
(1112,958,o),
(1186,729,o),
(1186,598,q),
(1186,471,o),
(1110,238,o),
(969,66,o),
(766,-37,o),
(639,-37,q),
(514,-37,o),
(311,63,o),
(168,236,o),
(92,467,o),
(92,598,q)
);
},
{
closed = 1;
nodes = (
(207,504,o),
(262,315,o),
(371,164,o),
(532,70,o),
(639,70,q),
(743,70,o),
(905,162,o),
(1016,311,o),
(1071,500,o),
(1071,600,q),
(1071,700,o),
(1014,893,o),
(903,1040,o),
(743,1128,o),
(639,1128,q),
(528,1128,o),
(367,1032,o),
(260,883,o),
(207,692,o),
(207,600,q)
);
},
{
closed = 1;
nodes = (
(979,1575,l),
(975,1569,o),
(975,1559,q),
(950,1470,o),
(836,1378,o),
(766,1378,q),
(731,1378,o),
(664,1407,o),
(616,1446,q),
(565,1485,o),
(522,1507,o),
(498,1507,q),
(457,1507,o),
(406,1440,o),
(387,1397,q),
(387,1395,o),
(385,1389,q),
(383,1384,l),
(299,1415,l),
(328,1495,o),
(420,1604,o),
(498,1604,q),
(549,1604,o),
(623,1561,o),
(655,1532,q),
(696,1501,o),
(750,1475,o),
(774,1475,q),
(801,1475,o),
(842,1501,o),
(870,1542,o),
(889,1585,o),
(895,1602,q)
);
}
);
width = 1278;
}
);
unicode = 213;
},
{
glyphname = Odieresis;
layers = (
{
layerId = "D3759F44-48FA-4031-889A-0E35E35DF10A";
shapes = (
{
closed = 1;
nodes = (
(92,731,o),
(168,963,o),
(311,1135,o),
(514,1235,o),
(639,1235,q),
(766,1235,o),
(969,1133,o),
(1112,958,o),
(1186,729,o),
(1186,598,q),
(1186,471,o),
(1110,238,o),
(969,66,o),
(766,-37,o),
(639,-37,q),
(514,-37,o),
(311,63,o),
(168,236,o),
(92,467,o),
(92,598,q)
);
},
{
closed = 1;
nodes = (
(207,504,o),
(262,315,o),
(371,164,o),
(532,70,o),
(639,70,q),
(743,70,o),
(905,162,o),
(1016,311,o),
(1071,500,o),
(1071,600,q),
(1071,700,o),
(1014,893,o),
(903,1040,o),
(743,1128,o),
(639,1128,q),
(528,1128,o),
(367,1032,o),
(260,883,o),
(207,692,o),
(207,600,q)
);
},
{
closed = 1;
nodes = (
(578,1606,l),
(578,1376,l),
(424,1376,l),
(424,1606,l)
);
},
{
closed = 1;
nodes = (
(854,1606,l),
(854,1376,l),
(700,1376,l),
(700,1606,l)
);
}
);
width = 1278;
}
);
unicode = 214;
},
{
glyphname = multiply;
layers = (
{
layerId = "D3759F44-48FA-4031-889A-0E35E35DF10A";
shapes = (
{
closed = 1;
nodes = (
(328,1040,l),
(639,729,l),
(950,1040,l),
(1026,965,l),
(713,651,l),
(1026,340,l),
(950,264,l),
(639,578,l),
(328,264,l),
(252,340,l),
(565,651,l),
(252,965,l)
);
}
);
width = 1278;
}
);
unicode = 215;
},
{
glyphname = Oslash;
layers = (
{
layerId = "D3759F44-48FA-4031-889A-0E35E35DF10A";
shapes = (
{
closed = 1;
nodes = (
(137,8,l),
(244,147,l),
(215,182,o),
(160,270,o),
(117,379,o),
(92,514,o),
(92,596,q),
(92,729,o),
(168,961,o),
(311,1135,o),
(514,1235,o),
(641,1235,q),
(713,1235,o),
(821,1208,o),
(905,1167,o),
(963,1120,o),
(987,1104,q),
(1069,1208,l),
(1143,1153,l),
(1051,1032,l),
(1102,971,o),
(1157,831,o),
(1182,702,o),
(1186,608,o),
(1186,594,q),
(1186,469,o),
(1112,238,o),
(971,66,o),
(770,-37,o),
(647,-37,q),
(584,-37,o),
(412,2,o),
(315,78,q),
(209,-49,l)
);
},
{
closed = 1;
nodes = (
(377,166,l),
(391,154,o),
(436,121,o),
(500,92,o),
(584,70,o),
(639,70,q),
(737,70,o),
(897,154,o),
(1010,297,o),
(1071,487,o),
(1071,596,q),
(1071,784,o),
(977,940,q)
);
},
{
closed = 1;
nodes = (
(918,1016,l),
(887,1053,o),
(811,1098,o),
(737,1120,o),
(664,1128,o),
(637,1128,q),
(535,1128,o),
(375,1040,o),
(264,893,o),
(207,702,o),
(207,602,q),
(207,573,o),
(215,481,o),
(242,379,o),
(283,276,o),
(315,238,q)
);
}
);
width = 1278;
}
);
unicode = 216;
},
{
glyphname = Ugrave;
layers = (
{
layerId = "D3759F44-48FA-4031-889A-0E35E35DF10A";
shapes = (
{
closed = 1;
nodes = (
(528,1100,l),
(311,1100,l),
(311,498,l),
(311,432,o),
(322,283,o),
(352,221,q),
(381,158,o),
(514,70,o),
(637,70,q),
(762,70,o),
(897,145,o),
(926,205,q),
(958,262,o),
(969,406,o),
(969,477,q),
(969,1100,l),
(752,1100,l),
(752,1200,l),
(1229,1200,l),
(1229,1100,l),
(1075,1100,l),
(1075,477,l),
(1075,395,o),
(1065,283,o),
(1044,201,o),
(1016,143,o),
(999,119,q),
(981,94,o),
(918,41,o),
(827,-6,o),
(709,-37,o),
(639,-37,q),
(600,-37,o),
(504,-23,o),
(408,14,o),
(313,78,o),
(276,129,q),
(250,168,o),
(219,266,o),
(207,367,o),
(205,463,o),
(205,498,q),
(205,1100,l),
(51,1100,l),
(51,1200,l),
(528,1200,l)
);
},
{
closed = 1;
nodes = (
(797,1354,l),
(686,1354,l),
(406,1599,l),
(633,1599,l)
);
}
);
width = 1278;
}
);
unicode = 217;
},
{
glyphname = Uacute;
layers = (
{
layerId = "D3759F44-48FA-4031-889A-0E35E35DF10A";
shapes = (
{
closed = 1;
nodes = (
(528,1100,l),
(311,1100,l),
(311,498,l),
(311,432,o),
(322,283,o),
(352,221,q),
(381,158,o),
(514,70,o),
(637,70,q),
(762,70,o),
(897,145,o),
(926,205,q),
(958,262,o),
(969,406,o),
(969,477,q),
(969,1100,l),
(752,1100,l),
(752,1200,l),
(1229,1200,l),
(1229,1100,l),
(1075,1100,l),
(1075,477,l),
(1075,395,o),
(1065,283,o),
(1044,201,o),
(1016,143,o),
(999,119,q),
(981,94,o),
(918,41,o),
(827,-6,o),
(709,-37,o),
(639,-37,q),
(600,-37,o),
(504,-23,o),
(408,14,o),
(313,78,o),
(276,129,q),
(250,168,o),
(219,266,o),
(207,367,o),
(205,463,o),
(205,498,q),
(205,1100,l),
(51,1100,l),
(51,1200,l),
(528,1200,l)
);
},
{
closed = 1;
nodes = (
(459,1354,l),
(647,1599,l),
(874,1599,l),
(571,1354,l)
);
}
);
width = 1278;
}
);
unicode = 218;
},
{
glyphname = Ucircumflex;
layers = (
{
layerId = "D3759F44-48FA-4031-889A-0E35E35DF10A";
shapes = (
{
closed = 1;
nodes = (
(528,1100,l),
(311,1100,l),
(311,498,l),
(311,432,o),
(322,283,o),
(352,221,q),
(381,158,o),
(514,70,o),
(637,70,q),
(762,70,o),
(897,145,o),
(926,205,q),
(958,262,o),
(969,406,o),
(969,477,q),
(969,1100,l),
(752,1100,l),
(752,1200,l),
(1229,1200,l),
(1229,1100,l),
(1075,1100,l),
(1075,477,l),
(1075,395,o),
(1065,283,o),
(1044,201,o),
(1016,143,o),
(999,119,q),
(981,94,o),
(918,41,o),
(827,-6,o),
(709,-37,o),
(639,-37,q),
(600,-37,o),
(504,-23,o),
(408,14,o),
(313,78,o),
(276,129,q),
(250,168,o),
(219,266,o),
(207,367,o),
(205,463,o),
(205,498,q),
(205,1100,l),
(51,1100,l),
(51,1200,l),
(528,1200,l)
);
},
{
closed = 1;
nodes = (
(911,1405,l),
(844,1352,l),
(629,1493,l),
(434,1352,l),
(365,1403,l),
(551,1606,l),
(715,1606,l)
);
}
);
width = 1278;
}
);
unicode = 219;
},
{
glyphname = Udieresis;
layers = (
{
layerId = "D3759F44-48FA-4031-889A-0E35E35DF10A";
shapes = (
{
closed = 1;
nodes = (
(528,1100,l),
(311,1100,l),
(311,498,l),
(311,432,o),
(322,283,o),
(352,221,q),
(381,158,o),
(514,70,o),
(637,70,q),
(762,70,o),
(897,145,o),
(926,205,q),
(958,262,o),
(969,406,o),
(969,477,q),
(969,1100,l),
(752,1100,l),
(752,1200,l),
(1229,1200,l),
(1229,1100,l),
(1075,1100,l),
(1075,477,l),
(1075,395,o),
(1065,283,o),
(1044,201,o),
(1016,143,o),
(999,119,q),
(981,94,o),
(918,41,o),
(827,-6,o),
(709,-37,o),
(639,-37,q),
(600,-37,o),
(504,-23,o),
(408,14,o),
(313,78,o),
(276,129,q),
(250,168,o),
(219,266,o),
(207,367,o),
(205,463,o),
(205,498,q),
(205,1100,l),
(51,1100,l),
(51,1200,l),
(528,1200,l)
);
},
{
closed = 1;
nodes = (
(578,1606,l),
(578,1376,l),
(424,1376,l),
(424,1606,l)
);
},
{
closed = 1;
nodes = (
(854,1606,l),
(854,1376,l),
(700,1376,l),
(700,1606,l)
);
}
);
width = 1278;
}
);
unicode = 220;
},
{
glyphname = Yacute;
layers = (
{
layerId = "D3759F44-48FA-4031-889A-0E35E35DF10A";
shapes = (
{
closed = 1;
nodes = (
(485,1100,l),
(324,1100,l),
(645,571,l),
(963,1100,l),
(797,1100,l),
(797,1200,l),
(1210,1200,l),
(1210,1100,l),
(1075,1100,l),
(694,465,l),
(694,100,l),
(946,100,l),
(946,0,l),
(334,0,l),
(334,100,l),
(588,100,l),
(588,465,l),
(203,1100,l),
(68,1100,l),
(68,1200,l),
(485,1200,l)
);
},
{
closed = 1;
nodes = (
(459,1354,l),
(647,1599,l),
(874,1599,l),
(571,1354,l)
);
}
);
width = 1278;
}
);
unicode = 221;
},
{
glyphname = Thorn;
layers = (
{
layerId = "D3759F44-48FA-4031-889A-0E35E35DF10A";
shapes = (
{
closed = 1;
nodes = (
(672,0,l),
(152,0,l),
(152,100,l),
(324,100,l),
(324,1100,l),
(152,1100,l),
(152,1200,l),
(672,1200,l),
(672,1100,l),
(430,1100,l),
(430,991,l),
(547,991,l),
(645,991,o),
(780,987,o),
(874,971,o),
(946,946,o),
(979,924,q),
(1049,883,o),
(1137,727,o),
(1137,629,q),
(1137,532,o),
(1049,365,o),
(979,326,q),
(942,303,o),
(868,276,o),
(774,264,o),
(643,262,o),
(547,262,q),
(430,262,l),
(430,100,l),
(672,100,l)
);
},
{
closed = 1;
nodes = (
(430,362,l),
(551,362,l),
(682,362,o),
(877,375,o),
(934,420,q),
(963,442,o),
(1022,545,o),
(1022,623,q),
(1022,709,o),
(938,827,o),
(895,848,q),
(874,858,o),
(834,872,o),
(776,885,o),
(696,891,o),
(639,891,q),
(430,891,l)
);
}
);
width = 1278;
}
);
unicode = 222;
},
{
glyphname = germandbls;
layers = (
{
layerId = "D3759F44-48FA-4031-889A-0E35E35DF10A";
shapes = (
{
closed = 1;
nodes = (
(301,961,l),
(301,1047,o),
(358,1184,o),
(455,1280,o),
(578,1331,o),
(645,1331,q),
(715,1331,o),
(829,1282,o),
(905,1200,o),
(948,1087,o),
(948,1026,q),
(948,930,o),
(846,786,o),
(770,756,q),
(801,745,o),
(909,700,o),
(1014,608,o),
(1094,459,o),
(1094,342,q),
(1094,272,o),
(1049,143,o),
(958,45,o),
(829,-14,o),
(743,-14,q),
(639,-14,o),
(524,39,o),
(498,55,q),
(498,166,l),
(537,143,o),
(655,92,o),
(741,92,q),
(780,92,o),
(862,119,o),
(934,180,o),
(977,281,o),
(977,354,q),
(977,678,o),
(547,694,q),
(547,793,l),
(569,795,o),
(664,807,o),
(762,854,o),
(838,944,o),
(838,1024,q),
(838,1110,o),
(739,1225,o),
(641,1225,q),
(600,1225,o),
(518,1196,o),
(449,1133,o),
(408,1024,o),
(408,944,q),
(408,0,l),
(139,0,l),
(139,100,l),
(301,100,l)
);
}
);
width = 1278;
}
);
unicode = 223;
},
{
glyphname = agrave;
layers = (
{
layerId = "D3759F44-48FA-4031-889A-0E35E35DF10A";
shapes = (
{
closed = 1;
nodes = (
(1171,100,l),
(1171,0,l),
(874,0,l),
(874,154,l),
(844,123,o),
(756,57,o),
(653,4,o),
(535,-31,o),
(469,-31,q),
(387,-31,o),
(262,23,o),
(172,109,o),
(125,215,o),
(125,270,q),
(125,313,o),
(168,424,o),
(270,524,o),
(444,592,o),
(578,592,q),
(584,592,o),
(643,590,o),
(727,584,o),
(827,573,o),
(874,565,q),
(874,631,l),
(874,655,o),
(866,733,o),
(819,805,o),
(713,856,o),
(618,856,q),
(561,856,o),
(381,821,o),
(254,766,q),
(213,862,l),
(281,893,o),
(492,958,o),
(621,958,q),
(756,958,o),
(903,881,o),
(971,770,o),
(981,662,o),
(981,631,q),
(981,100,l)
);
},
{
closed = 1;
nodes = (
(874,467,l),
(840,473,o),
(688,489,o),
(598,489,q),
(467,489,o),
(322,428,o),
(254,350,o),
(242,276,o),
(242,268,q),
(242,227,o),
(276,158,o),
(340,104,o),
(422,72,o),
(467,72,q),
(492,72,o),
(575,86,o),
(682,129,o),
(807,219,o),
(874,297,q)
);
},
{
closed = 1;
nodes = (
(797,1071,l),
(686,1071,l),
(406,1317,l),
(633,1317,l)
);
}
);
width = 1278;
}
);
unicode = 224;
},
{
glyphname = aacute;
layers = (
{
layerId = "D3759F44-48FA-4031-889A-0E35E35DF10A";
shapes = (
{
closed = 1;
nodes = (
(1171,100,l),
(1171,0,l),
(874,0,l),
(874,154,l),
(844,123,o),
(756,57,o),
(653,4,o),
(535,-31,o),
(469,-31,q),
(387,-31,o),
(262,23,o),
(172,109,o),
(125,215,o),
(125,270,q),
(125,313,o),
(168,424,o),
(270,524,o),
(444,592,o),
(578,592,q),
(584,592,o),
(643,590,o),
(727,584,o),
(827,573,o),
(874,565,q),
(874,631,l),
(874,655,o),
(866,733,o),
(819,805,o),
(713,856,o),
(618,856,q),
(561,856,o),
(381,821,o),
(254,766,q),
(213,862,l),
(281,893,o),
(492,958,o),
(621,958,q),
(756,958,o),
(903,881,o),
(971,770,o),
(981,662,o),
(981,631,q),
(981,100,l)
);
},
{
closed = 1;
nodes = (
(874,467,l),
(840,473,o),
(688,489,o),
(598,489,q),
(467,489,o),
(322,428,o),
(254,350,o),
(242,276,o),
(242,268,q),
(242,227,o),
(276,158,o),
(340,104,o),
(422,72,o),
(467,72,q),
(492,72,o),
(575,86,o),
(682,129,o),
(807,219,o),
(874,297,q)
);
},
{
closed = 1;
nodes = (
(459,1071,l),
(647,1317,l),
(874,1317,l),
(571,1071,l)
);
}
);
width = 1278;
}
);
unicode = 225;
},
{
glyphname = acircumflex;
layers = (
{
layerId = "D3759F44-48FA-4031-889A-0E35E35DF10A";
shapes = (
{
closed = 1;
nodes = (
(1171,100,l),
(1171,0,l),
(874,0,l),
(874,154,l),
(844,123,o),
(756,57,o),
(653,4,o),
(535,-31,o),
(469,-31,q),
(387,-31,o),
(262,23,o),
(172,109,o),
(125,215,o),
(125,270,q),
(125,313,o),
(168,424,o),
(270,524,o),
(444,592,o),
(578,592,q),
(584,592,o),
(643,590,o),
(727,584,o),
(827,573,o),
(874,565,q),
(874,631,l),
(874,655,o),
(866,733,o),
(819,805,o),
(713,856,o),
(618,856,q),
(561,856,o),
(381,821,o),
(254,766,q),
(213,862,l),
(281,893,o),
(492,958,o),
(621,958,q),
(756,958,o),
(903,881,o),
(971,770,o),
(981,662,o),
(981,631,q),
(981,100,l)
);
},
{
closed = 1;
nodes = (
(874,467,l),
(840,473,o),
(688,489,o),
(598,489,q),
(467,489,o),
(322,428,o),
(254,350,o),
(242,276,o),
(242,268,q),
(242,227,o),
(276,158,o),
(340,104,o),
(422,72,o),
(467,72,q),
(492,72,o),
(575,86,o),
(682,129,o),
(807,219,o),
(874,297,q)
);
},
{
closed = 1;
nodes = (
(870,1122,l),
(803,1069,l),
(588,1210,l),
(393,1069,l),
(324,1120,l),
(512,1323,l),
(676,1323,l)
);
}
);
width = 1278;
}
);
unicode = 226;
},
{
glyphname = atilde;
layers = (
{
layerId = "D3759F44-48FA-4031-889A-0E35E35DF10A";
shapes = (
{
closed = 1;
nodes = (
(1171,100,l),
(1171,0,l),
(874,0,l),
(874,154,l),
(844,123,o),
(756,57,o),
(653,4,o),
(535,-31,o),
(469,-31,q),
(387,-31,o),
(262,23,o),
(172,109,o),
(125,215,o),
(125,270,q),
(125,313,o),
(168,424,o),
(270,524,o),
(444,592,o),
(578,592,q),
(584,592,o),
(643,590,o),
(727,584,o),
(827,573,o),
(874,565,q),
(874,631,l),
(874,655,o),
(866,733,o),
(819,805,o),
(713,856,o),
(618,856,q),
(561,856,o),
(381,821,o),
(254,766,q),
(213,862,l),
(281,893,o),
(492,958,o),
(621,958,q),
(756,958,o),
(903,881,o),
(971,770,o),
(981,662,o),
(981,631,q),
(981,100,l)
);
},
{
closed = 1;
nodes = (
(874,467,l),
(840,473,o),
(688,489,o),
(598,489,q),
(467,489,o),
(322,428,o),
(254,350,o),
(242,276,o),
(242,268,q),
(242,227,o),
(276,158,o),
(340,104,o),
(422,72,o),
(467,72,q),
(492,72,o),
(575,86,o),
(682,129,o),
(807,219,o),
(874,297,q)
);
},
{
closed = 1;
nodes = (
(979,1290,l),
(975,1286,o),
(975,1276,q),
(950,1186,o),
(836,1096,o),
(766,1096,q),
(731,1096,o),
(664,1124,o),
(616,1163,q),
(565,1202,o),
(522,1225,o),
(498,1225,q),
(457,1225,o),
(406,1157,o),
(387,1114,q),
(387,1112,o),
(385,1106,q),
(383,1102,l),
(299,1130,l),
(328,1212,o),
(420,1321,o),
(498,1321,q),
(549,1321,o),
(623,1278,o),
(655,1247,q),
(696,1219,o),
(750,1190,o),
(774,1190,q),
(801,1190,o),
(842,1219,o),
(870,1260,o),
(889,1300,o),
(895,1319,q)
);
}
);
width = 1278;
}
);
unicode = 227;
},
{
glyphname = adieresis;
layers = (
{
layerId = "D3759F44-48FA-4031-889A-0E35E35DF10A";
shapes = (
{
closed = 1;
nodes = (
(1171,100,l),
(1171,0,l),
(874,0,l),
(874,154,l),
(844,123,o),
(756,57,o),
(653,4,o),
(535,-31,o),
(469,-31,q),
(387,-31,o),
(262,23,o),
(172,109,o),
(125,215,o),
(125,270,q),
(125,313,o),
(168,424,o),
(270,524,o),
(444,592,o),
(578,592,q),
(584,592,o),
(643,590,o),
(727,584,o),
(827,573,o),
(874,565,q),
(874,631,l),
(874,655,o),
(866,733,o),
(819,805,o),
(713,856,o),
(618,856,q),
(561,856,o),
(381,821,o),
(254,766,q),
(213,862,l),
(281,893,o),
(492,958,o),
(621,958,q),
(756,958,o),
(903,881,o),
(971,770,o),
(981,662,o),
(981,631,q),
(981,100,l)
);
},
{
closed = 1;
nodes = (
(874,467,l),
(840,473,o),
(688,489,o),
(598,489,q),
(467,489,o),
(322,428,o),
(254,350,o),
(242,276,o),
(242,268,q),
(242,227,o),
(276,158,o),
(340,104,o),
(422,72,o),
(467,72,q),
(492,72,o),
(575,86,o),
(682,129,o),
(807,219,o),
(874,297,q)
);
},
{
closed = 1;
nodes = (
(537,1323,l),
(537,1094,l),
(383,1094,l),
(383,1323,l)
);
},
{
closed = 1;
nodes = (
(813,1323,l),
(813,1094,l),
(659,1094,l),
(659,1323,l)
);
}
);
width = 1278;
}
);
unicode = 228;
},
{
glyphname = aring;
layers = (
{
layerId = "D3759F44-48FA-4031-889A-0E35E35DF10A";
shapes = (
{
closed = 1;
nodes = (
(1171,100,l),
(1171,0,l),
(874,0,l),
(874,154,l),
(844,123,o),
(756,57,o),
(653,4,o),
(535,-31,o),
(469,-31,q),
(387,-31,o),
(262,23,o),
(172,109,o),
(125,215,o),
(125,270,q),
(125,313,o),
(168,424,o),
(270,524,o),
(444,592,o),
(578,592,q),
(584,592,o),
(643,590,o),
(727,584,o),
(827,573,o),
(874,565,q),
(874,631,l),
(874,655,o),
(866,733,o),
(819,805,o),
(713,856,o),
(618,856,q),
(561,856,o),
(381,821,o),
(254,766,q),
(213,862,l),
(281,893,o),
(492,958,o),
(621,958,q),
(756,958,o),
(903,881,o),
(971,770,o),
(981,662,o),
(981,631,q),
(981,100,l)
);
},
{
closed = 1;
nodes = (
(874,467,l),
(840,473,o),
(688,489,o),
(598,489,q),
(467,489,o),
(322,428,o),
(254,350,o),
(242,276,o),
(242,268,q),
(242,227,o),
(276,158,o),
(340,104,o),
(422,72,o),
(467,72,q),
(492,72,o),
(575,86,o),
(682,129,o),
(807,219,o),
(874,297,q)
);
},
{
closed = 1;
nodes = (
(707,1368,o),
(801,1274,o),
(801,1206,q),
(801,1137,o),
(707,1044,o),
(639,1044,q),
(571,1044,o),
(477,1137,o),
(477,1206,q),
(477,1274,o),
(571,1368,o),
(639,1368,q)
);
},
{
closed = 1;
nodes = (
(606,1286,o),
(557,1243,o),
(557,1206,q),
(557,1171,o),
(606,1124,o),
(641,1124,q),
(676,1124,o),
(721,1171,o),
(721,1206,q),
(721,1239,o),
(676,1286,o),
(641,1286,q)
);
}
);
width = 1278;
}
);
unicode = 229;
},
{
glyphname = ae;
layers = (
{
layerId = "D3759F44-48FA-4031-889A-0E35E35DF10A";
shapes = (
{
closed = 1;
nodes = (
(682,432,l),
(686,340,o),
(707,217,o),
(750,162,q),
(799,98,o),
(901,72,o),
(930,72,q),
(995,72,o),
(1118,102,o),
(1171,119,q),
(1210,29,l),
(1096,-12,o),
(954,-31,o),
(926,-31,q),
(862,-31,o),
(768,8,o),
(702,59,o),
(662,113,o),
(651,127,q),
(602,78,o),
(512,14,o),
(430,-18,o),
(362,-33,o),
(334,-33,q),
(270,-33,o),
(172,14,o),
(104,94,o),
(70,195,o),
(70,248,q),
(70,301,o),
(113,416,o),
(197,508,o),
(324,567,o),
(412,567,q),
(446,567,o),
(516,555,o),
(575,547,q),
(575,623,l),
(575,678,o),
(563,764,o),
(528,823,o),
(469,856,o),
(420,856,q),
(365,856,o),
(254,831,o),
(164,799,q),
(135,893,l),
(223,926,o),
(356,958,o),
(422,958,q),
(479,958,o),
(557,934,o),
(608,889,o),
(641,831,o),
(651,799,q),
(670,819,o),
(713,877,o),
(776,924,o),
(854,958,o),
(905,958,q),
(913,958,o),
(967,952,o),
(1036,922,o),
(1112,858,o),
(1171,741,o),
(1206,563,o),
(1200,432,q)
);
},
{
closed = 1;
nodes = (
(575,444,l),
(520,457,o),
(449,465,o),
(414,465,q),
(340,465,o),
(250,418,o),
(197,352,o),
(176,274,o),
(176,248,q),
(176,215,o),
(197,154,o),
(233,102,o),
(291,70,o),
(332,70,q),
(371,70,o),
(444,96,o),
(508,135,o),
(557,174,o),
(575,190,q)
);
},
{
closed = 1;
nodes = (
(1094,532,l),
(1087,692,o),
(993,856,o),
(903,856,q),
(848,856,o),
(770,799,o),
(748,770,q),
(700,713,o),
(684,600,o),
(682,532,q)
);
}
);
width = 1278;
}
);
unicode = 230;
},
{
glyphname = ccedilla;
layers = (
{
layerId = "D3759F44-48FA-4031-889A-0E35E35DF10A";
shapes = (
{
closed = 1;
nodes = (
(702,-55,l),
(748,-66,o),
(791,-137,o),
(791,-172,q),
(791,-190,o),
(778,-236,o),
(750,-279,o),
(700,-307,o),
(662,-307,q),
(621,-307,o),
(565,-276,o),
(539,-260,q),
(586,-180,l),
(621,-205,o),
(639,-213,o),
(653,-213,q),
(680,-213,o),
(694,-184,o),
(694,-174,q),
(694,-147,o),
(657,-139,o),
(649,-139,q),
(633,-139,o),
(610,-141,o),
(600,-143,q),
(608,-29,l),
(526,-25,o),
(362,43,o),
(231,168,o),
(152,348,o),
(152,461,q),
(152,545,o),
(213,717,o),
(336,858,o),
(528,948,o),
(659,948,q),
(743,948,o),
(870,907,o),
(938,860,q),
(940,858,o),
(954,848,o),
(969,838,o),
(975,834,q),
(979,831,o),
(981,829,q),
(989,829,o),
(997,852,o),
(999,856,q),
(1016,944,l),
(1114,934,l),
(1110,901,o),
(1096,793,o),
(1096,737,q),
(1096,680,o),
(1102,596,q),
(1004,582,l),
(987,653,o),
(956,737,o),
(915,770,q),
(887,795,o),
(817,821,o),
(752,838,o),
(692,842,o),
(672,842,q),
(569,842,o),
(418,776,o),
(315,668,o),
(266,532,o),
(266,463,q),
(266,393,o),
(313,258,o),
(410,147,o),
(557,76,o),
(662,76,q),
(778,76,o),
(997,176,o),
(1114,258,q),
(1169,176,l),
(1110,131,o),
(999,63,o),
(889,12,o),
(770,-20,o),
(702,-29,q)
);
}
);
width = 1278;
}
);
unicode = 231;
},
{
glyphname = egrave;
layers = (
{
layerId = "D3759F44-48FA-4031-889A-0E35E35DF10A";
shapes = (
{
closed = 1;
nodes = (
(1190,121,l),
(1149,98,o),
(1032,45,o),
(899,0,o),
(750,-31,o),
(676,-31,q),
(545,-31,o),
(352,51,o),
(221,184,o),
(158,362,o),
(158,457,q),
(158,553,o),
(227,733,o),
(358,868,o),
(545,948,o),
(662,948,q),
(784,948,o),
(965,870,o),
(1085,748,o),
(1147,596,o),
(1147,524,q),
(1147,498,o),
(1141,438,o),
(1141,428,q),
(272,428,l),
(274,385,o),
(309,264,o),
(397,154,o),
(553,72,o),
(678,72,q),
(743,72,o),
(883,104,o),
(1006,150,o),
(1108,199,o),
(1141,215,q)
);
},
{
closed = 1;
nodes = (
(1030,528,l),
(1030,580,o),
(987,692,o),
(897,786,o),
(758,846,o),
(662,846,q),
(555,846,o),
(414,774,o),
(324,674,o),
(279,565,o),
(272,528,q)
);
},
{
closed = 1;
nodes = (
(834,1071,l),
(723,1071,l),
(440,1317,l),
(670,1317,l)
);
}
);
width = 1278;
}
);
unicode = 232;
},
{
glyphname = eacute;
layers = (
{
layerId = "D3759F44-48FA-4031-889A-0E35E35DF10A";
shapes = (
{
closed = 1;
nodes = (
(1190,121,l),
(1149,98,o),
(1032,45,o),
(899,0,o),
(750,-31,o),
(676,-31,q),
(545,-31,o),
(352,51,o),
(221,184,o),
(158,362,o),
(158,457,q),
(158,553,o),
(227,733,o),
(358,868,o),
(545,948,o),
(662,948,q),
(784,948,o),
(965,870,o),
(1085,748,o),
(1147,596,o),
(1147,524,q),
(1147,498,o),
(1141,438,o),
(1141,428,q),
(272,428,l),
(274,385,o),
(309,264,o),
(397,154,o),
(553,72,o),
(678,72,q),
(743,72,o),
(883,104,o),
(1006,150,o),
(1108,199,o),
(1141,215,q)
);
},
{
closed = 1;
nodes = (
(1030,528,l),
(1030,580,o),
(987,692,o),
(897,786,o),
(758,846,o),
(662,846,q),
(555,846,o),
(414,774,o),
(324,674,o),
(279,565,o),
(272,528,q)
);
},
{
closed = 1;
nodes = (
(459,1071,l),
(647,1317,l),
(874,1317,l),
(571,1071,l)
);
}
);
width = 1278;
}
);
unicode = 233;
},
{
glyphname = ecircumflex;
layers = (
{
layerId = "D3759F44-48FA-4031-889A-0E35E35DF10A";
shapes = (
{
closed = 1;
nodes = (
(1190,121,l),
(1149,98,o),
(1032,45,o),
(899,0,o),
(750,-31,o),
(676,-31,q),
(545,-31,o),
(352,51,o),
(221,184,o),
(158,362,o),
(158,457,q),
(158,553,o),
(227,733,o),
(358,868,o),
(545,948,o),
(662,948,q),
(784,948,o),
(965,870,o),
(1085,748,o),
(1147,596,o),
(1147,524,q),
(1147,498,o),
(1141,438,o),
(1141,428,q),
(272,428,l),
(274,385,o),
(309,264,o),
(397,154,o),
(553,72,o),
(678,72,q),
(743,72,o),
(883,104,o),
(1006,150,o),
(1108,199,o),
(1141,215,q)
);
},
{
closed = 1;
nodes = (
(1030,528,l),
(1030,580,o),
(987,692,o),
(897,786,o),
(758,846,o),
(662,846,q),
(555,846,o),
(414,774,o),
(324,674,o),
(279,565,o),
(272,528,q)
);
},
{
closed = 1;
nodes = (
(911,1122,l),
(844,1069,l),
(629,1210,l),
(434,1069,l),
(365,1120,l),
(551,1323,l),
(715,1323,l)
);
}
);
width = 1278;
}
);
unicode = 234;
},
{
glyphname = edieresis;
layers = (
{
layerId = "D3759F44-48FA-4031-889A-0E35E35DF10A";
shapes = (
{
closed = 1;
nodes = (
(1190,121,l),
(1149,98,o),
(1032,45,o),
(899,0,o),
(750,-31,o),
(676,-31,q),
(545,-31,o),
(352,51,o),
(221,184,o),
(158,362,o),
(158,457,q),
(158,553,o),
(227,733,o),
(358,868,o),
(545,948,o),
(662,948,q),
(784,948,o),
(965,870,o),
(1085,748,o),
(1147,596,o),
(1147,524,q),
(1147,498,o),
(1141,438,o),
(1141,428,q),
(272,428,l),
(274,385,o),
(309,264,o),
(397,154,o),
(553,72,o),
(678,72,q),
(743,72,o),
(883,104,o),
(1006,150,o),
(1108,199,o),
(1141,215,q)
);
},
{
closed = 1;
nodes = (
(1030,528,l),
(1030,580,o),
(987,692,o),
(897,786,o),
(758,846,o),
(662,846,q),
(555,846,o),
(414,774,o),
(324,674,o),
(279,565,o),
(272,528,q)
);
},
{
closed = 1;
nodes = (
(578,1323,l),
(578,1094,l),
(424,1094,l),
(424,1323,l)
);
},
{
closed = 1;
nodes = (
(854,1323,l),
(854,1094,l),
(700,1094,l),
(700,1323,l)
);
}
);
width = 1278;
}
);
unicode = 235;
},
{
glyphname = igrave;
layers = (
{
layerId = "D3759F44-48FA-4031-889A-0E35E35DF10A";
shapes = (
{
closed = 1;
nodes = (
(797,1071,l),
(686,1071,l),
(406,1317,l),
(633,1317,l)
);
},
{
closed = 1;
nodes = (
(696,100,l),
(1065,100,l),
(1065,0,l),
(215,0,l),
(215,100,l),
(590,100,l),
(590,815,l),
(276,815,l),
(276,915,l),
(696,915,l)
);
}
);
width = 1278;
}
);
unicode = 236;
},
{
glyphname = iacute;
layers = (
{
layerId = "D3759F44-48FA-4031-889A-0E35E35DF10A";
shapes = (
{
closed = 1;
nodes = (
(459,1071,l),
(647,1317,l),
(874,1317,l),
(571,1071,l)
);
},
{
closed = 1;
nodes = (
(696,100,l),
(1065,100,l),
(1065,0,l),
(215,0,l),
(215,100,l),
(590,100,l),
(590,815,l),
(276,815,l),
(276,915,l),
(696,915,l)
);
}
);
width = 1278;
}
);
unicode = 237;
},
{
glyphname = icircumflex;
layers = (
{
layerId = "D3759F44-48FA-4031-889A-0E35E35DF10A";
shapes = (
{
closed = 1;
nodes = (
(911,1122,l),
(844,1069,l),
(629,1210,l),
(434,1069,l),
(365,1120,l),
(551,1323,l),
(715,1323,l)
);
},
{
closed = 1;
nodes = (
(696,100,l),
(1065,100,l),
(1065,0,l),
(215,0,l),
(215,100,l),
(590,100,l),
(590,815,l),
(276,815,l),
(276,915,l),
(696,915,l)
);
}
);
width = 1278;
}
);
unicode = 238;
},
{
glyphname = idieresis;
layers = (
{
layerId = "D3759F44-48FA-4031-889A-0E35E35DF10A";
shapes = (
{
closed = 1;
nodes = (
(578,1323,l),
(578,1094,l),
(424,1094,l),
(424,1323,l)
);
},
{
closed = 1;
nodes = (
(854,1323,l),
(854,1094,l),
(700,1094,l),
(700,1323,l)
);
},
{
closed = 1;
nodes = (
(696,100,l),
(1065,100,l),
(1065,0,l),
(215,0,l),
(215,100,l),
(590,100,l),
(590,815,l),
(276,815,l),
(276,915,l),
(696,915,l)
);
}
);
width = 1278;
}
);
unicode = 239;
},
{
glyphname = eth;
layers = (
{
layerId = "D3759F44-48FA-4031-889A-0E35E35DF10A";
shapes = (
{
closed = 1;
nodes = (
(362,1100,l),
(469,1262,l),
(428,1280,o),
(369,1309,o),
(315,1329,o),
(264,1346,o),
(231,1356,q),
(268,1460,l),
(309,1448,o),
(371,1427,o),
(428,1403,o),
(489,1376,o),
(528,1356,q),
(616,1499,l),
(707,1440,l),
(625,1309,l),
(655,1288,o),
(762,1219,o),
(885,1118,o),
(1006,983,o),
(1106,813,o),
(1167,606,o),
(1167,483,q),
(1167,360,o),
(1085,168,o),
(944,39,o),
(750,-31,o),
(639,-31,q),
(508,-31,o),
(309,55,o),
(176,195,o),
(111,371,o),
(111,465,q),
(111,582,o),
(197,764,o),
(338,893,o),
(522,958,o),
(621,958,q),
(702,958,o),
(864,924,o),
(911,901,q),
(915,905,l),
(887,944,o),
(827,1014,o),
(748,1087,o),
(641,1165,o),
(565,1210,q),
(455,1034,l)
);
},
{
closed = 1;
nodes = (
(225,387,o),
(279,248,o),
(385,137,o),
(539,70,o),
(639,70,q),
(741,70,o),
(897,139,o),
(999,250,o),
(1053,389,o),
(1053,465,q),
(1053,537,o),
(999,680,o),
(895,791,o),
(741,858,o),
(639,858,q),
(539,858,o),
(385,793,o),
(281,684,o),
(225,541,o),
(225,465,q)
);
}
);
width = 1278;
}
);
unicode = 240;
},
{
glyphname = ntilde;
layers = (
{
layerId = "D3759F44-48FA-4031-889A-0E35E35DF10A";
shapes = (
{
closed = 1;
nodes = (
(354,797,l),
(387,821,o),
(469,874,o),
(561,920,o),
(662,948,o),
(721,948,q),
(793,948,o),
(909,897,o),
(993,803,o),
(1036,674,o),
(1036,596,q),
(1036,100,l),
(1208,100,l),
(1208,0,l),
(748,0,l),
(748,100,l),
(930,100,l),
(930,588,l),
(930,705,o),
(817,842,o),
(723,842,q),
(696,842,o),
(629,831,o),
(539,795,o),
(426,729,o),
(354,672,q),
(354,100,l),
(532,100,l),
(532,0,l),
(72,0,l),
(72,100,l),
(248,100,l),
(248,815,l),
(72,815,l),
(72,915,l),
(354,915,l)
);
},
{
closed = 1;
nodes = (
(979,1290,l),
(975,1286,o),
(975,1276,q),
(950,1186,o),
(836,1096,o),
(766,1096,q),
(731,1096,o),
(664,1124,o),
(616,1163,q),
(565,1202,o),
(522,1225,o),
(498,1225,q),
(457,1225,o),
(406,1157,o),
(387,1114,q),
(387,1112,o),
(385,1106,q),
(383,1102,l),
(299,1130,l),
(328,1212,o),
(420,1321,o),
(498,1321,q),
(549,1321,o),
(623,1278,o),
(655,1247,q),
(696,1219,o),
(750,1190,o),
(774,1190,q),
(801,1190,o),
(842,1219,o),
(870,1260,o),
(889,1300,o),
(895,1319,q)
);
}
);
width = 1278;
}
);
unicode = 241;
},
{
glyphname = ograve;
layers = (
{
layerId = "D3759F44-48FA-4031-889A-0E35E35DF10A";
shapes = (
{
closed = 1;
nodes = (
(111,561,o),
(178,739,o),
(311,874,o),
(510,958,o),
(639,958,q),
(774,958,o),
(971,872,o),
(1102,733,o),
(1167,555,o),
(1167,465,q),
(1167,373,o),
(1102,197,o),
(971,55,o),
(774,-31,o),
(639,-31,q),
(510,-31,o),
(311,53,o),
(178,193,o),
(111,369,o),
(111,465,q)
);
},
{
closed = 1;
nodes = (
(225,389,o),
(279,250,o),
(383,141,o),
(539,76,o),
(639,76,q),
(741,76,o),
(897,143,o),
(999,252,o),
(1053,389,o),
(1053,465,q),
(1053,537,o),
(999,678,o),
(897,786,o),
(741,852,o),
(639,852,q),
(539,852,o),
(385,788,o),
(279,680,o),
(225,541,o),
(225,465,q)
);
},
{
closed = 1;
nodes = (
(797,1071,l),
(686,1071,l),
(406,1317,l),
(633,1317,l)
);
}
);
width = 1278;
}
);
unicode = 242;
},
{
glyphname = oacute;
layers = (
{
layerId = "D3759F44-48FA-4031-889A-0E35E35DF10A";
shapes = (
{
closed = 1;
nodes = (
(111,561,o),
(178,739,o),
(311,874,o),
(510,958,o),
(639,958,q),
(774,958,o),
(971,872,o),
(1102,733,o),
(1167,555,o),
(1167,465,q),
(1167,373,o),
(1102,197,o),
(971,55,o),
(774,-31,o),
(639,-31,q),
(510,-31,o),
(311,53,o),
(178,193,o),
(111,369,o),
(111,465,q)
);
},
{
closed = 1;
nodes = (
(225,389,o),
(279,250,o),
(383,141,o),
(539,76,o),
(639,76,q),
(741,76,o),
(897,143,o),
(999,252,o),
(1053,389,o),
(1053,465,q),
(1053,537,o),
(999,678,o),
(897,786,o),
(741,852,o),
(639,852,q),
(539,852,o),
(385,788,o),
(279,680,o),
(225,541,o),
(225,465,q)
);
},
{
closed = 1;
nodes = (
(459,1071,l),
(647,1317,l),
(874,1317,l),
(571,1071,l)
);
}
);
width = 1278;
}
);
unicode = 243;
},
{
glyphname = ocircumflex;
layers = (
{
layerId = "D3759F44-48FA-4031-889A-0E35E35DF10A";
shapes = (
{
closed = 1;
nodes = (
(111,561,o),
(178,739,o),
(311,874,o),
(510,958,o),
(639,958,q),
(774,958,o),
(971,872,o),
(1102,733,o),
(1167,555,o),
(1167,465,q),
(1167,373,o),
(1102,197,o),
(971,55,o),
(774,-31,o),
(639,-31,q),
(510,-31,o),
(311,53,o),
(178,193,o),
(111,369,o),
(111,465,q)
);
},
{
closed = 1;
nodes = (
(225,389,o),
(279,250,o),
(383,141,o),
(539,76,o),
(639,76,q),
(741,76,o),
(897,143,o),
(999,252,o),
(1053,389,o),
(1053,465,q),
(1053,537,o),
(999,678,o),
(897,786,o),
(741,852,o),
(639,852,q),
(539,852,o),
(385,788,o),
(279,680,o),
(225,541,o),
(225,465,q)
);
},
{
closed = 1;
nodes = (
(911,1122,l),
(844,1069,l),
(629,1210,l),
(434,1069,l),
(365,1120,l),
(551,1323,l),
(715,1323,l)
);
}
);
width = 1278;
}
);
unicode = 244;
},
{
glyphname = otilde;
layers = (
{
layerId = "D3759F44-48FA-4031-889A-0E35E35DF10A";
shapes = (
{
closed = 1;
nodes = (
(111,561,o),
(178,739,o),
(311,874,o),
(510,958,o),
(639,958,q),
(774,958,o),
(971,872,o),
(1102,733,o),
(1167,555,o),
(1167,465,q),
(1167,373,o),
(1102,197,o),
(971,55,o),
(774,-31,o),
(639,-31,q),
(510,-31,o),
(311,53,o),
(178,193,o),
(111,369,o),
(111,465,q)
);
},
{
closed = 1;
nodes = (
(225,389,o),
(279,250,o),
(383,141,o),
(539,76,o),
(639,76,q),
(741,76,o),
(897,143,o),
(999,252,o),
(1053,389,o),
(1053,465,q),
(1053,537,o),
(999,678,o),
(897,786,o),
(741,852,o),
(639,852,q),
(539,852,o),
(385,788,o),
(279,680,o),
(225,541,o),
(225,465,q)
);
},
{
closed = 1;
nodes = (
(979,1290,l),
(975,1286,o),
(975,1276,q),
(950,1186,o),
(836,1096,o),
(766,1096,q),
(731,1096,o),
(664,1124,o),
(616,1163,q),
(565,1202,o),
(522,1225,o),
(498,1225,q),
(457,1225,o),
(406,1157,o),
(387,1114,q),
(387,1112,o),
(385,1106,q),
(383,1102,l),
(299,1130,l),
(328,1212,o),
(420,1321,o),
(498,1321,q),
(549,1321,o),
(623,1278,o),
(655,1247,q),
(696,1219,o),
(750,1190,o),
(774,1190,q),
(801,1190,o),
(842,1219,o),
(870,1260,o),
(889,1300,o),
(895,1319,q)
);
}
);
width = 1278;
}
);
unicode = 245;
},
{
glyphname = odieresis;
layers = (
{
layerId = "D3759F44-48FA-4031-889A-0E35E35DF10A";
shapes = (
{
closed = 1;
nodes = (
(111,561,o),
(178,739,o),
(311,874,o),
(510,958,o),
(639,958,q),
(774,958,o),
(971,872,o),
(1102,733,o),
(1167,555,o),
(1167,465,q),
(1167,373,o),
(1102,197,o),
(971,55,o),
(774,-31,o),
(639,-31,q),
(510,-31,o),
(311,53,o),
(178,193,o),
(111,369,o),
(111,465,q)
);
},
{
closed = 1;
nodes = (
(225,389,o),
(279,250,o),
(383,141,o),
(539,76,o),
(639,76,q),
(741,76,o),
(897,143,o),
(999,252,o),
(1053,389,o),
(1053,465,q),
(1053,537,o),
(999,678,o),
(897,786,o),
(741,852,o),
(639,852,q),
(539,852,o),
(385,788,o),
(279,680,o),
(225,541,o),
(225,465,q)
);
},
{
closed = 1;
nodes = (
(578,1323,l),
(578,1094,l),
(424,1094,l),
(424,1323,l)
);
},
{
closed = 1;
nodes = (
(854,1323,l),
(854,1094,l),
(700,1094,l),
(700,1323,l)
);
}
);
width = 1278;
}
);
unicode = 246;
},
{
glyphname = divide;
layers = (
{
layerId = "D3759F44-48FA-4031-889A-0E35E35DF10A";
shapes = (
{
closed = 1;
nodes = (
(678,1124,o),
(735,1071,o),
(735,1028,q),
(735,991,o),
(682,934,o),
(639,934,q),
(598,934,o),
(543,991,o),
(543,1028,q),
(543,1071,o),
(602,1124,o),
(639,1124,q)
);
},
{
closed = 1;
nodes = (
(1137,592,l),
(141,592,l),
(141,698,l),
(1137,698,l)
);
},
{
closed = 1;
nodes = (
(676,358,o),
(735,305,o),
(735,262,q),
(735,219,o),
(676,166,o),
(639,166,q),
(600,166,o),
(543,221,o),
(543,262,q),
(543,305,o),
(600,358,o),
(639,358,q)
);
}
);
width = 1278;
}
);
unicode = 247;
},
{
glyphname = oslash;
layers = (
{
layerId = "D3759F44-48FA-4031-889A-0E35E35DF10A";
shapes = (
{
closed = 1;
nodes = (
(127,49,l),
(225,147,l),
(190,193,o),
(145,283,o),
(119,369,o),
(111,440,o),
(111,467,q),
(111,557,o),
(176,737,o),
(311,872,o),
(508,958,o),
(639,958,q),
(713,958,o),
(895,918,o),
(963,862,q),
(1067,969,l),
(1149,889,l),
(1051,791,l),
(1087,745,o),
(1135,649,o),
(1159,563,o),
(1167,487,o),
(1167,465,q),
(1167,369,o),
(1100,190,o),
(965,51,o),
(768,-31,o),
(643,-31,q),
(633,-31,o),
(565,-29,o),
(471,-8,o),
(360,33,o),
(309,68,q),
(211,-31,l)
);
},
{
closed = 1;
nodes = (
(391,145,l),
(412,131,o),
(451,109,o),
(508,90,o),
(584,76,o),
(639,76,q),
(741,76,o),
(897,143,o),
(999,252,o),
(1053,389,o),
(1053,465,q),
(1053,602,o),
(967,707,q)
);
},
{
closed = 1;
nodes = (
(885,786,l),
(858,799,o),
(811,821,o),
(758,842,o),
(688,852,o),
(639,852,q),
(537,852,o),
(381,784,o),
(276,676,o),
(225,537,o),
(225,465,q),
(225,422,o),
(258,285,o),
(307,223,q)
);
}
);
width = 1278;
}
);
unicode = 248;
},
{
glyphname = ugrave;
layers = (
{
layerId = "D3759F44-48FA-4031-889A-0E35E35DF10A";
shapes = (
{
closed = 1;
nodes = (
(350,352,l),
(350,330,o),
(356,238,o),
(395,147,o),
(481,76,o),
(563,76,q),
(651,76,o),
(815,166,o),
(905,262,q),
(905,815,l),
(723,815,l),
(723,915,l),
(1012,915,l),
(1012,100,l),
(1184,100,l),
(1184,0,l),
(905,0,l),
(905,117,l),
(883,98,o),
(817,47,o),
(735,2,o),
(633,-31,o),
(571,-31,q),
(471,-31,o),
(342,43,o),
(270,154,o),
(244,287,o),
(244,352,q),
(244,815,l),
(68,815,l),
(68,915,l),
(350,915,l)
);
},
{
closed = 1;
nodes = (
(797,1071,l),
(686,1071,l),
(406,1317,l),
(633,1317,l)
);
}
);
width = 1278;
}
);
unicode = 249;
},
{
glyphname = uacute;
layers = (
{
layerId = "D3759F44-48FA-4031-889A-0E35E35DF10A";
shapes = (
{
closed = 1;
nodes = (
(350,352,l),
(350,330,o),
(356,238,o),
(395,147,o),
(481,76,o),
(563,76,q),
(651,76,o),
(815,166,o),
(905,262,q),
(905,815,l),
(723,815,l),
(723,915,l),
(1012,915,l),
(1012,100,l),
(1184,100,l),
(1184,0,l),
(905,0,l),
(905,117,l),
(883,98,o),
(817,47,o),
(735,2,o),
(633,-31,o),
(571,-31,q),
(471,-31,o),
(342,43,o),
(270,154,o),
(244,287,o),
(244,352,q),
(244,815,l),
(68,815,l),
(68,915,l),
(350,915,l)
);
},
{
closed = 1;
nodes = (
(459,1071,l),
(647,1317,l),
(874,1317,l),
(571,1071,l)
);
}
);
width = 1278;
}
);
unicode = 250;
},
{
glyphname = ucircumflex;
layers = (
{
layerId = "D3759F44-48FA-4031-889A-0E35E35DF10A";
shapes = (
{
closed = 1;
nodes = (
(350,352,l),
(350,330,o),
(356,238,o),
(395,147,o),
(481,76,o),
(563,76,q),
(651,76,o),
(815,166,o),
(905,262,q),
(905,815,l),
(723,815,l),
(723,915,l),
(1012,915,l),
(1012,100,l),
(1184,100,l),
(1184,0,l),
(905,0,l),
(905,117,l),
(883,98,o),
(817,47,o),
(735,2,o),
(633,-31,o),
(571,-31,q),
(471,-31,o),
(342,43,o),
(270,154,o),
(244,287,o),
(244,352,q),
(244,815,l),
(68,815,l),
(68,915,l),
(350,915,l)
);
},
{
closed = 1;
nodes = (
(911,1122,l),
(844,1069,l),
(629,1210,l),
(434,1069,l),
(365,1120,l),
(551,1323,l),
(715,1323,l)
);
}
);
width = 1278;
}
);
unicode = 251;
},
{
glyphname = udieresis;
layers = (
{
layerId = "D3759F44-48FA-4031-889A-0E35E35DF10A";
shapes = (
{
closed = 1;
nodes = (
(350,352,l),
(350,330,o),
(356,238,o),
(395,147,o),
(481,76,o),
(563,76,q),
(651,76,o),
(815,166,o),
(905,262,q),
(905,815,l),
(723,815,l),
(723,915,l),
(1012,915,l),
(1012,100,l),
(1184,100,l),
(1184,0,l),
(905,0,l),
(905,117,l),
(883,98,o),
(817,47,o),
(735,2,o),
(633,-31,o),
(571,-31,q),
(471,-31,o),
(342,43,o),
(270,154,o),
(244,287,o),
(244,352,q),
(244,815,l),
(68,815,l),
(68,915,l),
(350,915,l)
);
},
{
closed = 1;
nodes = (
(578,1323,l),
(578,1094,l),
(424,1094,l),
(424,1323,l)
);
},
{
closed = 1;
nodes = (
(854,1323,l),
(854,1094,l),
(700,1094,l),
(700,1323,l)
);
}
);
width = 1278;
}
);
unicode = 252;
},
{
glyphname = yacute;
layers = (
{
layerId = "D3759F44-48FA-4031-889A-0E35E35DF10A";
shapes = (
{
closed = 1;
nodes = (
(449,815,l),
(303,815,l),
(639,168,l),
(1010,815,l),
(864,815,l),
(864,915,l),
(1255,915,l),
(1255,815,l),
(1130,815,l),
(535,-225,l),
(725,-225,l),
(725,-326,l),
(86,-326,l),
(86,-225,l),
(414,-225,l),
(578,57,l),
(180,815,l),
(51,815,l),
(51,915,l),
(449,915,l)
);
},
{
closed = 1;
nodes = (
(459,1071,l),
(647,1317,l),
(874,1317,l),
(571,1071,l)
);
}
);
width = 1278;
}
);
unicode = 253;
},
{
glyphname = thorn;
layers = (
{
layerId = "D3759F44-48FA-4031-889A-0E35E35DF10A";
shapes = (
{
closed = 1;
nodes = (
(326,764,l),
(338,784,o),
(391,844,o),
(481,901,o),
(606,944,o),
(692,944,q),
(801,944,o),
(975,862,o),
(1100,731,o),
(1167,557,o),
(1167,467,q),
(1167,358,o),
(1083,180,o),
(952,55,o),
(782,-14,o),
(696,-14,q),
(684,-14,o),
(606,-8,o),
(500,25,o),
(381,100,o),
(326,168,q),
(322,168,l),
(322,-233,l),
(639,-233,l),
(639,-334,l),
(41,-334,l),
(41,-233,l),
(215,-233,l),
(215,1229,l),
(25,1221,l),
(25,1321,l),
(322,1339,l),
(322,764,l)
);
},
{
closed = 1;
nodes = (
(313,379,o),
(385,236,o),
(496,141,o),
(631,92,o),
(692,92,q),
(764,92,o),
(895,150,o),
(993,250,o),
(1053,387,o),
(1053,469,q),
(1053,535,o),
(1008,668,o),
(918,770,o),
(784,838,o),
(694,838,q),
(610,838,o),
(471,778,o),
(371,680,o),
(313,545,o),
(313,473,q)
);
}
);
width = 1278;
}
);
unicode = 254;
},
{
glyphname = ydieresis;
layers = (
{
layerId = "D3759F44-48FA-4031-889A-0E35E35DF10A";
shapes = (
{
closed = 1;
nodes = (
(51,915,l),
(51,815,l),
(180,815,l),
(578,57,l),
(414,-225,l),
(86,-225,l),
(86,-326,l),
(725,-326,l),
(725,-225,l),
(535,-225,l),
(1130,815,l),
(1255,815,l),
(1255,915,l),
(864,915,l),
(864,815,l),
(1010,815,l),
(639,168,l),
(303,815,l),
(449,815,l),
(449,915,l)
);
},
{
closed = 1;
nodes = (
(424,1094,l),
(578,1094,l),
(578,1323,l),
(424,1323,l)
);
},
{
closed = 1;
nodes = (
(700,1094,l),
(854,1094,l),
(854,1323,l),
(700,1323,l)
);
}
);
width = 1278;
}
);
unicode = 255;
},
{
glyphname = OE;
layers = (
{
layerId = "D3759F44-48FA-4031-889A-0E35E35DF10A";
shapes = (
{
closed = 1;
nodes = (
(1143,815,l),
(1051,815,l),
(1030,1100,l),
(750,1100,l),
(750,686,l),
(889,686,l),
(889,842,l),
(987,842,l),
(987,430,l),
(889,430,l),
(889,586,l),
(750,586,l),
(750,100,l),
(1061,100,l),
(1073,393,l),
(1171,393,l),
(1171,0,l),
(516,0,l),
(389,0,o),
(209,115,o),
(92,289,o),
(35,496,o),
(35,590,q),
(35,717,o),
(115,940,o),
(262,1106,o),
(469,1200,o),
(594,1200,q),
(1143,1200,l)
);
},
{
closed = 1;
nodes = (
(588,1100,l),
(481,1100,o),
(317,1018,o),
(207,881,o),
(150,696,o),
(150,596,q),
(150,518,o),
(195,342,o),
(289,197,o),
(440,100,o),
(549,100,q),
(643,100,l),
(643,1100,l)
);
}
);
width = 1278;
}
);
unicode = 338;
},
{
glyphname = oe;
layers = (
{
layerId = "D3759F44-48FA-4031-889A-0E35E35DF10A";
shapes = (
{
closed = 1;
nodes = (
(682,436,l),
(680,326,o),
(729,182,o),
(805,102,o),
(891,70,o),
(926,70,q),
(995,70,o),
(1128,104,o),
(1171,117,q),
(1210,25,l),
(1096,-12,o),
(961,-33,o),
(930,-33,q),
(911,-33,o),
(840,-20,o),
(756,16,o),
(672,96,o),
(639,166,q),
(631,147,o),
(594,82,o),
(526,14,o),
(424,-33,o),
(348,-33,q),
(264,-33,o),
(154,25,o),
(82,113,o),
(43,219,o),
(23,319,o),
(20,401,o),
(20,420,q),
(20,522,o),
(59,715,o),
(143,868,o),
(276,961,o),
(375,961,q),
(438,961,o),
(532,915,o),
(596,858,o),
(633,799,o),
(639,784,q),
(688,872,o),
(834,958,o),
(903,958,q),
(987,958,o),
(1100,870,o),
(1169,741,o),
(1202,594,o),
(1202,535,q),
(1202,510,o),
(1200,451,o),
(1196,436,q)
);
},
{
closed = 1;
nodes = (
(575,584,o),
(541,745,o),
(483,834,o),
(414,858,o),
(375,858,q),
(309,858,o),
(219,780,o),
(162,653,o),
(137,500,o),
(137,426,q),
(137,367,o),
(156,242,o),
(203,137,o),
(283,70,o),
(344,70,q),
(403,70,o),
(481,115,o),
(532,188,o),
(561,274,o),
(573,360,o),
(575,430,o),
(575,449,q)
);
},
{
closed = 1;
nodes = (
(1096,530,l),
(1096,590,o),
(1073,707,o),
(1026,801,o),
(954,856,o),
(903,856,q),
(887,856,o),
(815,836,o),
(741,768,o),
(684,639,o),
(682,530,q)
);
}
);
width = 1278;
}
);
unicode = 339;
},
{
glyphname = Scaron;
layers = (
{
layerId = "D3759F44-48FA-4031-889A-0E35E35DF10A";
shapes = (
{
closed = 1;
nodes = (
(1079,1223,l),
(1069,1174,o),
(1061,1110,o),
(1061,1069,q),
(1061,1032,o),
(1069,907,o),
(1079,815,q),
(983,799,l),
(979,834,o),
(954,944,o),
(918,999,q),
(905,1018,o),
(864,1063,o),
(801,1102,o),
(711,1128,o),
(647,1128,q),
(565,1128,o),
(442,1079,o),
(365,1006,o),
(326,918,o),
(326,877,q),
(326,803,o),
(397,717,o),
(500,672,o),
(610,653,o),
(649,649,q),
(768,637,o),
(905,608,o),
(1016,537,o),
(1094,418,o),
(1094,326,q),
(1094,231,o),
(1014,96,o),
(891,6,o),
(735,-37,o),
(655,-37,q),
(592,-37,o),
(496,-14,o),
(426,16,o),
(379,49,o),
(365,61,q),
(362,63,o),
(352,70,o),
(348,70,q),
(340,70,o),
(330,57,o),
(326,53,q),
(322,39,o),
(315,10,o),
(307,-43,q),
(211,-43,l),
(221,8,o),
(229,102,o),
(229,125,q),
(229,147,l),
(229,164,o),
(225,221,o),
(219,287,o),
(213,350,o),
(211,373,q),
(307,373,l),
(315,332,o),
(342,229,o),
(379,182,q),
(410,145,o),
(526,70,o),
(641,70,q),
(739,70,o),
(868,117,o),
(946,190,o),
(977,276,o),
(977,317,q),
(977,387,o),
(915,471,o),
(827,516,o),
(723,532,o),
(682,537,q),
(621,543,o),
(457,569,o),
(311,637,o),
(211,762,o),
(211,868,q),
(211,942,o),
(274,1073,o),
(387,1176,o),
(543,1235,o),
(635,1235,q),
(692,1235,o),
(782,1214,o),
(846,1186,o),
(889,1157,o),
(899,1149,q),
(924,1128,o),
(942,1118,o),
(948,1118,q),
(963,1118,o),
(969,1143,o),
(979,1194,q),
(983,1217,o),
(983,1223,q)
);
},
{
closed = 1;
nodes = (
(365,1567,l),
(432,1618,l),
(647,1481,l),
(844,1620,l),
(911,1567,l),
(725,1368,l),
(563,1368,l)
);
}
);
width = 1278;
}
);
unicode = 352;
},
{
glyphname = scaron;
layers = (
{
layerId = "D3759F44-48FA-4031-889A-0E35E35DF10A";
shapes = (
{
closed = 1;
nodes = (
(1026,944,l),
(1020,909,o),
(1008,821,o),
(1008,760,q),
(1008,715,o),
(1014,653,o),
(1018,627,q),
(924,616,l),
(918,647,o),
(895,725,o),
(829,791,o),
(700,838,o),
(590,838,q),
(463,838,o),
(326,745,o),
(326,680,q),
(326,623,o),
(391,555,o),
(512,520,o),
(672,508,o),
(764,502,q),
(784,502,o),
(885,489,o),
(991,442,o),
(1073,348,o),
(1073,264,q),
(1073,188,o),
(999,74,o),
(881,2,o),
(737,-33,o),
(668,-33,q),
(608,-33,o),
(512,-12,o),
(430,16,o),
(373,47,o),
(354,57,q),
(354,57,o),
(352,59,q),
(348,61,o),
(342,61,q),
(328,61,o),
(311,8,o),
(301,-29,q),
(207,-29,l),
(211,0,o),
(219,53,o),
(219,106,q),
(219,174,o),
(211,281,o),
(207,317,q),
(301,328,l),
(305,301,o),
(330,215,o),
(401,135,o),
(532,74,o),
(643,74,q),
(676,74,o),
(782,88,o),
(885,125,o),
(958,199,o),
(958,260,q),
(958,307,o),
(913,362,o),
(834,389,o),
(721,397,o),
(653,401,q),
(610,403,o),
(463,418,o),
(317,471,o),
(211,580,o),
(211,676,q),
(211,733,o),
(266,831,o),
(365,903,o),
(504,944,o),
(588,944,q),
(684,944,o),
(803,899,o),
(834,883,q),
(838,877,o),
(866,862,o),
(881,862,q),
(897,862,o),
(913,903,o),
(918,913,q),
(922,936,o),
(926,948,o),
(930,958,q)
);
},
{
closed = 1;
nodes = (
(365,1284,l),
(432,1335,l),
(647,1196,l),
(844,1337,l),
(911,1284,l),
(725,1083,l),
(563,1083,l)
);
}
);
width = 1278;
}
);
unicode = 353;
},
{
glyphname = Ydieresis;
layers = (
{
layerId = "D3759F44-48FA-4031-889A-0E35E35DF10A";
shapes = (
{
closed = 1;
nodes = (
(485,1100,l),
(324,1100,l),
(645,571,l),
(963,1100,l),
(797,1100,l),
(797,1200,l),
(1210,1200,l),
(1210,1100,l),
(1075,1100,l),
(694,465,l),
(694,100,l),
(946,100,l),
(946,0,l),
(334,0,l),
(334,100,l),
(588,100,l),
(588,465,l),
(203,1100,l),
(68,1100,l),
(68,1200,l),
(485,1200,l)
);
},
{
closed = 1;
nodes = (
(578,1606,l),
(578,1376,l),
(424,1376,l),
(424,1606,l)
);
},
{
closed = 1;
nodes = (
(854,1606,l),
(854,1376,l),
(700,1376,l),
(700,1606,l)
);
}
);
width = 1278;
}
);
unicode = 376;
},
{
glyphname = Zcaron;
layers = (
{
layerId = "D3759F44-48FA-4031-889A-0E35E35DF10A";
shapes = (
{
closed = 1;
nodes = (
(1051,1112,l),
(307,100,l),
(999,100,l),
(999,444,l),
(1100,444,l),
(1100,0,l),
(178,0,l),
(178,100,l),
(913,1100,l),
(295,1100,l),
(295,788,l),
(195,788,l),
(195,1200,l),
(1051,1200,l)
);
},
{
closed = 1;
nodes = (
(365,1567,l),
(432,1618,l),
(647,1481,l),
(844,1620,l),
(911,1567,l),
(725,1368,l),
(563,1368,l)
);
}
);
width = 1278;
}
);
unicode = 381;
},
{
glyphname = zcaron;
layers = (
{
layerId = "D3759F44-48FA-4031-889A-0E35E35DF10A";
shapes = (
{
closed = 1;
nodes = (
(1057,823,l),
(367,100,l),
(956,100,l),
(956,297,l),
(1057,297,l),
(1057,0,l),
(221,0,l),
(221,100,l),
(905,815,l),
(342,815,l),
(342,627,l),
(244,627,l),
(244,915,l),
(1057,915,l)
);
},
{
closed = 1;
nodes = (
(365,1284,l),
(432,1335,l),
(647,1196,l),
(844,1337,l),
(911,1284,l),
(725,1083,l),
(563,1083,l)
);
}
);
width = 1278;
}
);
unicode = 382;
},
{
glyphname = florin;
layers = (
{
layerId = "D3759F44-48FA-4031-889A-0E35E35DF10A";
shapes = (
{
closed = 1;
nodes = (
(1073,1296,l),
(1047,1303,o),
(971,1315,o),
(920,1315,q),
(799,1315,o),
(670,1253,o),
(606,1163,o),
(596,1063,o),
(596,1022,q),
(596,905,l),
(971,905,l),
(971,815,l),
(596,815,l),
(596,109,l),
(596,35,o),
(563,-74,o),
(502,-119,q),
(432,-172,o),
(250,-211,o),
(158,-211,q),
(129,-211,o),
(74,-207,o),
(51,-203,q),
(59,-96,l),
(92,-100,o),
(168,-109,o),
(205,-109,q),
(274,-109,o),
(424,-70,o),
(459,-31,q),
(481,0,o),
(489,82,o),
(489,123,q),
(489,815,l),
(262,815,l),
(262,905,l),
(489,905,l),
(489,1032,l),
(489,1079,o),
(512,1212,o),
(602,1331,o),
(786,1415,o),
(948,1415,q),
(1042,1415,o),
(1083,1405,q)
);
}
);
width = 1278;
}
);
unicode = 402;
},
{
glyphname = circumflex;
layers = (
{
layerId = "D3759F44-48FA-4031-889A-0E35E35DF10A";
shapes = (
{
closed = 1;
nodes = (
(911,1122,l),
(844,1069,l),
(629,1210,l),
(434,1069,l),
(365,1120,l),
(551,1323,l),
(715,1323,l)
);
}
);
width = 1278;
}
);
unicode = 710;
},
{
glyphname = tilde;
layers = (
{
layerId = "D3759F44-48FA-4031-889A-0E35E35DF10A";
shapes = (
{
closed = 1;
nodes = (
(979,1290,l),
(975,1286,o),
(975,1276,q),
(950,1186,o),
(836,1096,o),
(766,1096,q),
(731,1096,o),
(664,1124,o),
(616,1163,q),
(565,1202,o),
(522,1225,o),
(498,1225,q),
(457,1225,o),
(406,1157,o),
(387,1114,q),
(387,1112,o),
(385,1106,q),
(383,1102,l),
(299,1130,l),
(328,1212,o),
(420,1321,o),
(498,1321,q),
(549,1321,o),
(623,1278,o),
(655,1247,q),
(696,1219,o),
(750,1190,o),
(774,1190,q),
(801,1190,o),
(842,1219,o),
(870,1260,o),
(889,1300,o),
(895,1319,q)
);
}
);
width = 1278;
}
);
unicode = 732;
},
{
glyphname = uni1200;
layers = (
{
layerId = "D3759F44-48FA-4031-889A-0E35E35DF10A";
shapes = (
{
closed = 1;
nodes = (
(170,1128,l),
(76,1226,l),
(217,1318,l),
(405,1132,l),
(405,237,l),
(580,123,l),
(781,233,l),
(781,1130,l),
(687,1224,l),
(828,1318,l),
(1016,1128,l),
(1016,188,l),
(1110,96,l),
(969,2,l),
(781,190,l),
(781,214,l),
(405,2,l),
(170,143,l)
);
}
);
width = 1184;
}
);
unicode = 4608;
},
{
glyphname = uni1201;
layers = (
{
layerId = "D3759F44-48FA-4031-889A-0E35E35DF10A";
shapes = (
{
closed = 1;
nodes = (
(1016,687,l),
(1171,743,l),
(1171,852,l),
(1125,899,l),
(1218,945,l),
(1406,852,l),
(1406,616,l),
(1454,569,l),
(1360,523,l),
(1171,616,l),
(1171,725,l),
(1016,669,l),
(1016,186,l),
(1110,94,l),
(969,0,l),
(781,188,l),
(781,210,l),
(405,0,l),
(170,141,l),
(170,1126,l),
(76,1224,l),
(217,1316,l),
(405,1130,l),
(405,235,l),
(580,121,l),
(781,231,l),
(781,1128,l),
(687,1222,l),
(828,1316,l),
(1016,1126,l)
);
}
);
width = 1530;
}
);
unicode = 4609;
},
{
glyphname = uni1202;
layers = (
{
layerId = "D3759F44-48FA-4031-889A-0E35E35DF10A";
shapes = (
{
closed = 1;
nodes = (
(976,190,l),
(1063,103,l),
(1157,162,l),
(1157,264,l),
(1110,311,l),
(1204,358,l),
(1392,264,l),
(1392,29,l),
(1439,-18,l),
(1345,-65,l),
(1157,29,l),
(1157,143,l),
(933,0,l),
(742,188,l),
(742,687,l),
(405,476,l),
(170,616,l),
(170,1125,l),
(76,1222,l),
(217,1314,l),
(405,1128,l),
(405,711,l),
(580,606,l),
(742,707,l),
(742,1126,l),
(647,1220,l),
(788,1314,l),
(976,1125,l)
);
}
);
width = 1513;
}
);
unicode = 4610;
},
{
glyphname = uni1203;
layers = (
{
layerId = "D3759F44-48FA-4031-889A-0E35E35DF10A";
shapes = (
{
closed = 1;
nodes = (
(170,1130,l),
(76,1228,l),
(217,1320,l),
(405,1134,l),
(405,761,l),
(580,656,l),
(742,757,l),
(742,1132,l),
(647,1226,l),
(788,1320,l),
(976,1130,l),
(976,193,l),
(1070,102,l),
(930,7,l),
(742,195,l),
(742,738,l),
(405,526,l),
(170,667,l)
);
}
);
width = 1144;
}
);
unicode = 4611;
},
{
glyphname = uni1204;
layers = (
{
layerId = "D3759F44-48FA-4031-889A-0E35E35DF10A";
shapes = (
{
closed = 1;
nodes = (
(1065,74,l),
(1065,468,l),
(1021,485,l),
(976,468,l),
(976,107,l),
(1030,54,l)
);
},
{
closed = 1;
nodes = (
(976,478,l),
(1092,521,l),
(1211,468,l),
(1211,52,l),
(1240,27,l),
(1180,0,l),
(1065,52,l),
(1065,62,l),
(945,0,l),
(742,138,l),
(742,738,l),
(405,526,l),
(170,667,l),
(170,1123,l),
(76,1220,l),
(217,1313,l),
(405,1126,l),
(405,761,l),
(569,652,l),
(742,757,l),
(742,1125,l),
(647,1218,l),
(788,1313,l),
(976,1123,l)
);
}
);
width = 1316;
}
);
unicode = 4612;
},
{
glyphname = uni1205;
layers = (
{
layerId = "D3759F44-48FA-4031-889A-0E35E35DF10A";
shapes = (
{
closed = 1;
nodes = (
(405,1130,l),
(405,235,l),
(580,121,l),
(781,231,l),
(781,1128,l),
(687,1222,l),
(828,1316,l),
(1016,1126,l),
(1016,186,l),
(1110,94,l),
(969,0,l),
(781,188,l),
(781,210,l),
(405,0,l),
(170,141,l),
(170,593,l),
(381,660,l),
(381,743,l),
(170,808,l),
(170,1126,l),
(76,1224,l),
(217,1316,l)
);
}
);
width = 1184;
}
);
unicode = 4613;
},
{
glyphname = uni1206;
layers = (
{
layerId = "D3759F44-48FA-4031-889A-0E35E35DF10A";
shapes = (
{
closed = 1;
nodes = (
(1016,835,l),
(1016,186,l),
(1110,94,l),
(969,0,l),
(781,188,l),
(781,210,l),
(405,0,l),
(170,141,l),
(170,1126,l),
(76,1224,l),
(217,1316,l),
(405,1130,l),
(405,235,l),
(580,121,l),
(781,231,l),
(781,1072,l),
(687,1166,l),
(1192,1345,l),
(1314,1239,l),
(1314,871,l),
(1354,837,l),
(1273,802,l),
(1116,871,l),
(1116,884,l)
);
},
{
closed = 1;
nodes = (
(1016,1266,l),
(1016,857,l),
(1116,900,l),
(1116,1224,l),
(1061,1280,l)
);
}
);
width = 1428;
}
);
unicode = 4614;
},
{
glyphname = uni1208;
layers = (
{
layerId = "D3759F44-48FA-4031-889A-0E35E35DF10A";
shapes = (
{
closed = 1;
nodes = (
(980,166,l),
(1074,81,l),
(931,2,l),
(743,161,l),
(743,676,l),
(571,770,l),
(407,680,l),
(407,162,l),
(502,83,l),
(360,2,l),
(170,166,l),
(170,1150,l),
(76,1230,l),
(219,1311,l),
(407,1148,l),
(407,698,l),
(743,878,l),
(980,757,l)
);
}
);
width = 1148;
}
);
unicode = 4616;
},
{
glyphname = uni1209;
layers = (
{
layerId = "D3759F44-48FA-4031-889A-0E35E35DF10A";
shapes = (
{
closed = 1;
nodes = (
(971,523,l),
(1094,568,l),
(1094,662,l),
(1049,704,l),
(1141,743,l),
(1329,662,l),
(1329,459,l),
(1376,418,l),
(1282,376,l),
(1094,459,l),
(1094,554,l),
(971,508,l),
(971,166,l),
(1065,79,l),
(924,0,l),
(736,161,l),
(736,683,l),
(566,778,l),
(405,687,l),
(405,162,l),
(497,81,l),
(358,0,l),
(170,166,l),
(170,1163,l),
(76,1240,l),
(217,1323,l),
(405,1161,l),
(405,704,l),
(736,886,l),
(971,763,l)
);
}
);
width = 1452;
}
);
unicode = 4617;
},
{
glyphname = uni120A;
layers = (
{
layerId = "D3759F44-48FA-4031-889A-0E35E35DF10A";
shapes = (
{
closed = 1;
nodes = (
(973,155,l),
(1054,79,l),
(1148,132,l),
(1148,221,l),
(1101,260,l),
(1195,300,l),
(1383,221,l),
(1383,16,l),
(1430,-26,l),
(1336,-65,l),
(1148,16,l),
(1148,114,l),
(926,-7,l),
(738,152,l),
(738,673,l),
(568,768,l),
(405,676,l),
(405,154,l),
(499,74,l),
(358,-7,l),
(170,155,l),
(170,1154,l),
(76,1232,l),
(217,1314,l),
(405,1150,l),
(405,694,l),
(738,878,l),
(973,756,l)
);
}
);
width = 1506;
}
);
unicode = 4618;
},
{
glyphname = uni120B;
layers = (
{
layerId = "D3759F44-48FA-4031-889A-0E35E35DF10A";
shapes = (
{
closed = 1;
nodes = (
(969,161,l),
(1063,76,l),
(922,-4,l),
(736,157,l),
(736,678,l),
(566,772,l),
(403,683,l),
(403,394,l),
(497,314,l),
(356,233,l),
(170,396,l),
(170,1159,l),
(76,1237,l),
(217,1320,l),
(403,1157,l),
(403,700,l),
(736,882,l),
(969,759,l)
);
}
);
width = 1137;
}
);
unicode = 4619;
},
{
glyphname = uni120C;
layers = (
{
layerId = "D3759F44-48FA-4031-889A-0E35E35DF10A";
shapes = (
{
closed = 1;
nodes = (
(978,481,l),
(1164,546,l),
(1354,464,l),
(1354,85,l),
(1401,43,l),
(1307,4,l),
(1118,85,l),
(1118,100,l),
(931,4,l),
(742,162,l),
(742,680,l),
(569,774,l),
(407,685,l),
(407,166,l),
(501,85,l),
(360,4,l),
(170,168,l),
(170,1157,l),
(76,1235,l),
(217,1316,l),
(407,1156,l),
(407,702,l),
(742,884,l),
(978,761,l)
);
},
{
closed = 1;
nodes = (
(1118,114,l),
(1118,464,l),
(1049,492,l),
(978,468,l),
(978,166,l),
(1066,88,l)
);
}
);
width = 1475;
}
);
unicode = 4620;
},
{
glyphname = uni120D;
layers = (
{
layerId = "D3759F44-48FA-4031-889A-0E35E35DF10A";
shapes = (
{
closed = 1;
nodes = (
(1239,76,l),
(1092,0,l),
(906,159,l),
(906,662,l),
(690,781,l),
(403,683,l),
(403,481,l),
(590,544,l),
(778,463,l),
(778,81,l),
(825,41,l),
(730,0,l),
(542,81,l),
(542,96,l),
(502,78,l),
(358,0,l),
(170,162,l),
(170,1156,l),
(76,1235,l),
(217,1316,l),
(403,1156,l),
(403,700,l),
(906,882,l),
(1139,759,l),
(1137,161,l)
);
},
{
closed = 1;
nodes = (
(495,88,l),
(542,110,l),
(542,463,l),
(474,488,l),
(403,464,l),
(403,161,l)
);
}
);
width = 1314;
}
);
unicode = 4621;
},
{
glyphname = uni120E;
layers = (
{
layerId = "D3759F44-48FA-4031-889A-0E35E35DF10A";
shapes = (
{
closed = 1;
nodes = (
(1141,568,l),
(969,517,l),
(969,162,l),
(1063,79,l),
(922,0,l),
(736,161,l),
(736,680,l),
(566,774,l),
(403,685,l),
(403,161,l),
(497,81,l),
(356,0,l),
(170,162,l),
(170,1159,l),
(76,1239,l),
(217,1320,l),
(403,1157,l),
(403,702,l),
(736,884,l),
(969,761,l),
(969,537,l),
(1141,590,l),
(1141,696,l),
(1078,718,l),
(1182,752,l),
(1342,694,l),
(1342,680,l),
(1499,723,l),
(1658,667,l),
(1658,364,l),
(1698,333,l),
(1616,304,l),
(1459,364,l),
(1459,374,l),
(1427,358,l),
(1302,304,l),
(1141,423,l)
);
},
{
closed = 1;
nodes = (
(1420,367,l),
(1459,383,l),
(1459,667,l),
(1403,689,l),
(1342,669,l),
(1342,421,l)
);
}
);
width = 1774;
}
);
unicode = 4622;
},
{
glyphname = uni120F;
layers = (
{
layerId = "D3759F44-48FA-4031-889A-0E35E35DF10A";
shapes = (
{
closed = 1;
nodes = (
(1090,31,l),
(1090,-81,l),
(1269,-157,l),
(1358,-119,l),
(1313,-81,l),
(1313,112,l),
(1135,188,l),
(1047,150,l),
(1090,112,l),
(1090,52,l),
(969,41,l),
(969,740,l),
(736,861,l),
(403,678,l),
(403,1135,l),
(217,1300,l),
(76,1216,l),
(170,1137,l),
(170,376,l),
(356,214,l),
(497,293,l),
(403,374,l),
(403,662,l),
(566,752,l),
(736,658,l),
(736,18,l),
(638,11,l),
(638,100,l),
(461,176,l),
(373,138,l),
(418,100,l),
(418,-94,l),
(595,-172,l),
(683,-132,l),
(638,-94,l),
(638,-12,l)
);
}
);
width = 1385;
}
);
unicode = 4623;
},
{
glyphname = uni1210;
layers = (
{
layerId = "D3759F44-48FA-4031-889A-0E35E35DF10A";
shapes = (
{
closed = 1;
nodes = (
(620,749,l),
(376,636,l),
(376,161,l),
(470,81,l),
(329,0,l),
(141,162,l),
(141,674,l),
(47,727,l),
(188,808,l),
(376,673,l),
(376,652,l),
(620,765,l),
(620,1156,l),
(526,1235,l),
(667,1316,l),
(855,1156,l),
(855,698,l),
(1119,859,l),
(1354,738,l),
(1354,162,l),
(1448,79,l),
(1307,0,l),
(1119,159,l),
(1119,656,l),
(958,745,l),
(855,680,l),
(855,161,l),
(949,81,l),
(808,0,l),
(620,162,l)
);
}
);
width = 1506;
}
);
unicode = 4624;
},
{
glyphname = uni1211;
layers = (
{
layerId = "D3759F44-48FA-4031-889A-0E35E35DF10A";
shapes = (
{
closed = 1;
nodes = (
(1354,468,l),
(1511,531,l),
(1511,626,l),
(1465,666,l),
(1558,707,l),
(1746,626,l),
(1746,423,l),
(1794,381,l),
(1699,342,l),
(1511,423,l),
(1511,517,l),
(1354,454,l),
(1354,162,l),
(1448,79,l),
(1307,0,l),
(1119,159,l),
(1119,656,l),
(958,745,l),
(855,680,l),
(855,161,l),
(949,81,l),
(808,0,l),
(620,162,l),
(620,749,l),
(376,636,l),
(376,161,l),
(470,81,l),
(329,0,l),
(141,162,l),
(141,674,l),
(47,727,l),
(188,808,l),
(376,673,l),
(376,652,l),
(620,765,l),
(620,1156,l),
(526,1235,l),
(667,1316,l),
(855,1156,l),
(855,698,l),
(1119,859,l),
(1354,738,l)
);
}
);
width = 1834;
}
);
unicode = 4625;
},
{
glyphname = uni1212;
layers = (
{
layerId = "D3759F44-48FA-4031-889A-0E35E35DF10A";
shapes = (
{
closed = 1;
nodes = (
(1354,155,l),
(1437,81,l),
(1532,134,l),
(1532,221,l),
(1484,262,l),
(1578,302,l),
(1766,221,l),
(1766,16,l),
(1813,-26,l),
(1720,-65,l),
(1532,16,l),
(1532,116,l),
(1307,-9,l),
(1119,154,l),
(1119,654,l),
(958,743,l),
(855,678,l),
(855,155,l),
(949,74,l),
(808,-9,l),
(620,155,l),
(620,749,l),
(376,633,l),
(376,155,l),
(470,74,l),
(329,-9,l),
(141,155,l),
(141,673,l),
(47,727,l),
(188,808,l),
(376,671,l),
(376,651,l),
(620,765,l),
(620,1159,l),
(526,1239,l),
(667,1322,l),
(855,1159,l),
(855,698,l),
(1119,859,l),
(1354,738,l)
);
}
);
width = 1868;
}
);
unicode = 4626;
},
{
glyphname = uni1213;
layers = (
{
layerId = "D3759F44-48FA-4031-889A-0E35E35DF10A";
shapes = (
{
closed = 1;
nodes = (
(620,749,l),
(376,636,l),
(376,340,l),
(470,260,l),
(329,179,l),
(141,342,l),
(141,674,l),
(47,727,l),
(188,808,l),
(376,673,l),
(376,652,l),
(620,765,l),
(620,1156,l),
(526,1235,l),
(667,1316,l),
(855,1156,l),
(855,698,l),
(1119,859,l),
(1354,738,l),
(1354,162,l),
(1448,79,l),
(1307,0,l),
(1119,159,l),
(1119,656,l),
(958,745,l),
(855,680,l),
(855,340,l),
(949,260,l),
(808,179,l),
(620,342,l)
);
}
);
width = 1506;
}
);
unicode = 4627;
},
{
glyphname = uni1214;
layers = (
{
layerId = "D3759F44-48FA-4031-889A-0E35E35DF10A";
shapes = (
{
closed = 1;
nodes = (
(1484,112,l),
(1484,463,l),
(1416,490,l),
(1347,466,l),
(1347,162,l),
(1432,85,l)
);
},
{
closed = 1;
nodes = (
(1347,479,l),
(1532,544,l),
(1718,463,l),
(1718,81,l),
(1765,41,l),
(1670,0,l),
(1484,81,l),
(1484,96,l),
(1300,0,l),
(1112,159,l),
(1112,658,l),
(953,745,l),
(850,680,l),
(850,161,l),
(944,81,l),
(802,0,l),
(616,162,l),
(616,750,l),
(374,636,l),
(374,161,l),
(468,81,l),
(328,0,l),
(141,162,l),
(141,674,l),
(47,730,l),
(188,810,l),
(374,673,l),
(374,654,l),
(616,765,l),
(616,1157,l),
(523,1237,l),
(664,1318,l),
(850,1156,l),
(850,700,l),
(1112,859,l),
(1347,740,l)
);
}
);
width = 1834;
}
);
unicode = 4628;
},
{
glyphname = uni1215;
layers = (
{
layerId = "D3759F44-48FA-4031-889A-0E35E35DF10A";
shapes = (
{
closed = 1;
nodes = (
(620,1132,l),
(568,1180,l),
(441,1132,l),
(441,1027,l),
(488,985,l),
(394,944,l),
(206,1027,l),
(206,1237,l),
(159,1278,l),
(253,1320,l),
(441,1237,l),
(441,1156,l),
(705,1271,l),
(855,1130,l),
(855,721,l),
(1119,888,l),
(1354,763,l),
(1354,170,l),
(1448,83,l),
(1307,0,l),
(1119,166,l),
(1119,678,l),
(958,768,l),
(855,704,l),
(855,168,l),
(949,85,l),
(808,0,l),
(620,170,l),
(620,774,l),
(376,656,l),
(376,168,l),
(470,85,l),
(329,0,l),
(141,170,l),
(141,698,l),
(47,752,l),
(188,837,l),
(376,696,l),
(376,674,l),
(620,792,l)
);
}
);
width = 1504;
}
);
unicode = 4629;
},
{
glyphname = uni1216;
layers = (
{
layerId = "D3759F44-48FA-4031-889A-0E35E35DF10A";
shapes = (
{
closed = 1;
nodes = (
(618,752,l),
(376,638,l),
(376,162,l),
(468,81,l),
(329,0,l),
(141,162,l),
(141,676,l),
(47,732,l),
(188,812,l),
(376,674,l),
(376,656,l),
(618,766,l),
(618,1161,l),
(524,1239,l),
(666,1322,l),
(854,1159,l),
(854,702,l),
(1116,862,l),
(1351,742,l),
(1351,343,l),
(1444,260,l),
(1304,179,l),
(1116,340,l),
(1116,660,l),
(956,747,l),
(854,683,l),
(854,342,l),
(947,260,l),
(806,179,l),
(618,343,l)
);
}
);
width = 1506;
}
);
unicode = 4630;
},
{
glyphname = uni1217;
layers = (
{
layerId = "D3759F44-48FA-4031-889A-0E35E35DF10A";
shapes = (
{
closed = 1;
nodes = (
(1475,27,l),
(1475,-85,l),
(1654,-161,l),
(1743,-123,l),
(1698,-85,l),
(1698,109,l),
(1520,185,l),
(1432,147,l),
(1475,109,l),
(1475,49,l),
(1354,38,l),
(1354,738,l),
(1119,859,l),
(855,698,l),
(855,1156,l),
(667,1316,l),
(526,1235,l),
(620,1156,l),
(620,765,l),
(376,652,l),
(376,673,l),
(188,808,l),
(47,727,l),
(141,674,l),
(141,342,l),
(329,179,l),
(470,260,l),
(376,340,l),
(376,636,l),
(620,749,l),
(620,376,l),
(808,214,l),
(949,293,l),
(855,374,l),
(855,680,l),
(958,745,l),
(1119,656,l),
(1119,14,l),
(1023,7,l),
(1023,96,l),
(846,172,l),
(757,134,l),
(802,96,l),
(802,-98,l),
(980,-176,l),
(1068,-136,l),
(1023,-98,l),
(1023,-16,l)
);
}
);
width = 1777;
}
);
unicode = 4631;
},
{
glyphname = uni1218;
layers = (
{
layerId = "D3759F44-48FA-4031-889A-0E35E35DF10A";
shapes = (
{
closed = 1;
nodes = (
(1334,1103,l),
(1334,235,l),
(1416,174,l),
(1558,250,l),
(1558,1101,l),
(1428,1171,l)
);
},
{
closed = 1;
nodes = (
(1334,1119,l),
(1558,1278,l),
(1794,1173,l),
(1794,235,l),
(1872,174,l),
(1746,92,l),
(1558,235,l),
(1287,92,l),
(1099,233,l),
(1099,1101,l),
(968,1175,l),
(862,1108,l),
(862,235,l),
(940,174,l),
(816,92,l),
(628,235,l),
(358,92,l),
(170,235,l),
(170,1137,l),
(76,1209,l),
(217,1278,l),
(405,1135,l),
(405,1119,l),
(628,1278,l),
(862,1173,l),
(862,1128,l),
(1099,1278,l),
(1334,1173,l)
);
},
{
closed = 1;
nodes = (
(628,250,l),
(628,1101,l),
(499,1171,l),
(405,1103,l),
(405,233,l),
(485,174,l)
);
}
);
width = 1946;
}
);
unicode = 4632;
},
{
glyphname = uni1219;
layers = (
{
layerId = "D3759F44-48FA-4031-889A-0E35E35DF10A";
shapes = (
{
closed = 1;
nodes = (
(1794,745,l),
(1920,802,l),
(1920,911,l),
(1873,958,l),
(1967,1006,l),
(2155,911,l),
(2155,676,l),
(2202,629,l),
(2108,582,l),
(1920,676,l),
(1920,787,l),
(1794,727,l),
(1794,235,l),
(1872,174,l),
(1746,92,l),
(1558,235,l),
(1287,92,l),
(1099,233,l),
(1099,1101,l),
(968,1175,l),
(862,1108,l),
(862,235,l),
(940,174,l),
(816,92,l),
(628,235,l),
(358,92,l),
(170,235,l),
(170,1137,l),
(76,1209,l),
(217,1278,l),
(405,1135,l),
(405,1119,l),
(628,1278,l),
(862,1173,l),
(862,1128,l),
(1099,1278,l),
(1334,1173,l),
(1334,1119,l),
(1558,1278,l),
(1794,1173,l)
);
},
{
closed = 1;
nodes = (
(628,250,l),
(628,1101,l),
(499,1171,l),
(405,1103,l),
(405,233,l),
(485,174,l)
);
},
{
closed = 1;
nodes = (
(1334,1103,l),
(1334,235,l),
(1416,174,l),
(1558,250,l),
(1558,1101,l),
(1428,1171,l)
);
}
);
width = 2276;
}
);
unicode = 4633;
},
{
glyphname = uni121A;
layers = (
{
layerId = "D3759F44-48FA-4031-889A-0E35E35DF10A";
shapes = (
{
closed = 1;
nodes = (
(1790,179,l),
(1873,96,l),
(1965,154,l),
(1965,250,l),
(1918,295,l),
(2012,340,l),
(2200,250,l),
(2200,26,l),
(2248,-20,l),
(2153,-65,l),
(1965,26,l),
(1965,136,l),
(1743,-2,l),
(1555,181,l),
(1555,606,l),
(1284,468,l),
(1097,604,l),
(1097,1139,l),
(966,1211,l),
(861,1144,l),
(861,580,l),
(938,521,l),
(814,443,l),
(626,580,l),
(358,443,l),
(170,580,l),
(170,1175,l),
(76,1242,l),
(217,1311,l),
(405,1173,l),
(405,1157,l),
(626,1311,l),
(861,1209,l),
(861,1166,l),
(1097,1311,l),
(1330,1209,l),
(1330,1157,l),
(1555,1311,l),
(1790,1209,l)
);
},
{
closed = 1;
nodes = (
(626,595,l),
(626,1139,l),
(497,1208,l),
(405,1141,l),
(405,578,l),
(483,521,l)
);
},
{
closed = 1;
nodes = (
(1330,1141,l),
(1330,606,l),
(1412,546,l),
(1555,620,l),
(1555,1139,l),
(1425,1208,l)
);
}
);
width = 2322;
}
);
unicode = 4634;
},
{
glyphname = uni121B;
layers = (
{
layerId = "D3759F44-48FA-4031-889A-0E35E35DF10A";
shapes = (
{
closed = 1;
nodes = (
(1336,1156,l),
(1336,614,l),
(1418,555,l),
(1562,628,l),
(1562,1154,l),
(1430,1220,l)
);
},
{
closed = 1;
nodes = (
(629,604,l),
(629,1154,l),
(499,1220,l),
(405,1156,l),
(405,586,l),
(485,528,l)
);
},
{
closed = 1;
nodes = (
(1562,614,l),
(1289,476,l),
(1101,613,l),
(1101,1154,l),
(969,1224,l),
(864,1159,l),
(864,590,l),
(942,528,l),
(817,450,l),
(629,590,l),
(358,450,l),
(170,590,l),
(170,1188,l),
(76,1258,l),
(217,1323,l),
(405,1186,l),
(405,1170,l),
(629,1323,l),
(864,1222,l),
(864,1179,l),
(1101,1323,l),
(1336,1222,l),
(1336,1170,l),
(1562,1323,l),
(1797,1222,l),
(1797,183,l),
(1898,85,l),
(1752,0,l),
(1564,181,l)
);
}
);
width = 1974;
}
);
unicode = 4635;
},
{
glyphname = uni121C;
layers = (
{
layerId = "D3759F44-48FA-4031-889A-0E35E35DF10A";
shapes = (
{
closed = 1;
nodes = (
(1739,0,l),
(1556,161,l),
(1556,607,l),
(1285,472,l),
(1097,606,l),
(1097,1135,l),
(968,1206,l),
(862,1141,l),
(862,582,l),
(940,523,l),
(816,448,l),
(628,582,l),
(358,448,l),
(170,582,l),
(170,1170,l),
(76,1239,l),
(217,1306,l),
(405,1168,l),
(405,1154,l),
(628,1306,l),
(862,1204,l),
(862,1163,l),
(1097,1306,l),
(1332,1204,l),
(1332,1154,l),
(1556,1306,l),
(1792,1204,l),
(1792,517,l),
(1909,557,l),
(2027,508,l),
(2027,50,l),
(2058,26,l),
(1996,0,l),
(1880,50,l),
(1880,58,l)
);
},
{
closed = 1;
nodes = (
(1880,69,l),
(1880,508,l),
(1837,523,l),
(1792,508,l),
(1792,102,l),
(1846,52,l)
);
},
{
closed = 1;
nodes = (
(1332,1137,l),
(1332,607,l),
(1414,550,l),
(1556,622,l),
(1556,1135,l),
(1427,1204,l)
);
},
{
closed = 1;
nodes = (
(628,597,l),
(628,1135,l),
(499,1204,l),
(405,1137,l),
(405,580,l),
(485,523,l)
);
}
);
width = 2132;
}
);
unicode = 4636;
},
{
glyphname = uni121D;
layers = (
{
layerId = "D3759F44-48FA-4031-889A-0E35E35DF10A";
shapes = (
{
closed = 1;
nodes = (
(426,155,l),
(528,58,l),
(381,-26,l),
(192,154,l),
(192,378,l),
(628,546,l),
(628,666,l),
(358,528,l),
(170,666,l),
(170,1182,l),
(76,1253,l),
(217,1320,l),
(405,1180,l),
(405,1166,l),
(628,1320,l),
(862,1218,l),
(862,1173,l),
(1040,1320,l),
(1275,1218,l),
(1275,1166,l),
(1499,1320,l),
(1734,1218,l),
(1734,651,l),
(1812,591,l),
(1676,486,l),
(1499,609,l),
(1228,474,l),
(1040,609,l),
(1040,1148,l),
(931,1206,l),
(862,1157,l),
(862,606,l),
(426,445,l)
);
},
{
closed = 1;
nodes = (
(628,680,l),
(628,1148,l),
(499,1216,l),
(405,1150,l),
(405,664,l),
(485,607,l)
);
},
{
closed = 1;
nodes = (
(1275,1150,l),
(1275,611,l),
(1356,554,l),
(1499,626,l),
(1499,1148,l),
(1368,1216,l)
);
}
);
width = 1886;
}
);
unicode = 4637;
},
{
glyphname = uni121E;
layers = (
{
layerId = "D3759F44-48FA-4031-889A-0E35E35DF10A";
shapes = (
{
closed = 1;
nodes = (
(1275,1146,l),
(1275,676,l),
(1356,616,l),
(1501,692,l),
(1501,1144,l),
(1368,1213,l)
);
},
{
closed = 1;
nodes = (
(629,678,l),
(629,1144,l),
(499,1213,l),
(405,1146,l),
(405,662,l),
(485,606,l)
);
},
{
closed = 1;
nodes = (
(629,154,l),
(629,664,l),
(358,526,l),
(170,664,l),
(170,1179,l),
(76,1249,l),
(217,1316,l),
(405,1177,l),
(405,1163,l),
(629,1316,l),
(864,1215,l),
(864,1171,l),
(1040,1316,l),
(1275,1215,l),
(1275,1163,l),
(1501,1316,l),
(1736,1215,l),
(1736,714,l),
(1813,656,l),
(1678,554,l),
(1501,673,l),
(1228,539,l),
(1040,674,l),
(1040,1144,l),
(933,1202,l),
(864,1154,l),
(864,155,l),
(968,58,l),
(819,-26,l)
);
}
);
width = 1887;
}
);
unicode = 4638;
},
{
glyphname = uni121F;
layers = (
{
layerId = "D3759F44-48FA-4031-889A-0E35E35DF10A";
shapes = (
{
closed = 1;
nodes = (
(1893,38,l),
(1893,-74,l),
(2072,-150,l),
(2160,-110,l),
(2115,-74,l),
(2115,121,l),
(1938,195,l),
(1849,157,l),
(1893,121,l),
(1893,60,l),
(1797,50,l),
(1797,1222,l),
(1562,1323,l),
(1336,1170,l),
(1336,1222,l),
(1101,1323,l),
(864,1179,l),
(864,1222,l),
(629,1323,l),
(405,1170,l),
(405,1186,l),
(217,1323,l),
(76,1258,l),
(170,1188,l),
(170,590,l),
(358,450,l),
(629,590,l),
(817,450,l),
(942,528,l),
(864,590,l),
(864,1159,l),
(969,1224,l),
(1101,1154,l),
(1101,613,l),
(1289,476,l),
(1562,614,l),
(1562,31,l),
(1458,18,l),
(1458,107,l),
(1280,183,l),
(1192,145,l),
(1237,107,l),
(1237,-87,l),
(1414,-162,l),
(1503,-124,l),
(1458,-87,l),
(1458,-5,l)
);
},
{
closed = 1;
nodes = (
(629,604,l),
(485,528,l),
(405,586,l),
(405,1156,l),
(499,1220,l),
(629,1154,l)
);
},
{
closed = 1;
nodes = (
(1336,1156,l),
(1430,1220,l),
(1562,1154,l),
(1562,628,l),
(1418,555,l),
(1336,614,l)
);
}
);
width = 2182;
}
);
unicode = 4639;
},
{
glyphname = uni1220;
layers = (
{
layerId = "D3759F44-48FA-4031-889A-0E35E35DF10A";
shapes = (
{
closed = 1;
nodes = (
(629,150,l),
(376,0,l),
(141,105,l),
(141,985,l),
(47,1061,l),
(188,1128,l),
(376,989,l),
(376,177,l),
(514,102,l),
(629,172,l),
(629,985,l),
(535,1061,l),
(676,1128,l),
(864,989,l),
(864,177,l),
(1000,110,l),
(1121,183,l),
(1121,987,l),
(1027,1059,l),
(1168,1128,l),
(1356,985,l),
(1356,141,l),
(1450,69,l),
(1309,0,l),
(1121,143,l),
(1121,159,l),
(864,0,l),
(629,105,l)
);
}
);
width = 1506;
}
);
unicode = 4640;
},
{
glyphname = uni1221;
layers = (
{
layerId = "D3759F44-48FA-4031-889A-0E35E35DF10A";
shapes = (
{
closed = 1;
nodes = (
(1363,548,l),
(1511,616,l),
(1511,725,l),
(1465,772,l),
(1558,819,l),
(1746,725,l),
(1746,490,l),
(1794,443,l),
(1699,396,l),
(1511,490,l),
(1511,600,l),
(1363,530,l),
(1363,141,l),
(1458,69,l),
(1316,0,l),
(1128,143,l),
(1128,159,l),
(873,0,l),
(638,105,l),
(638,150,l),
(383,0,l),
(148,105,l),
(148,985,l),
(54,1061,l),
(195,1128,l),
(383,989,l),
(383,177,l),
(521,102,l),
(638,172,l),
(638,985,l),
(544,1061,l),
(685,1128,l),
(873,989,l),
(873,177,l),
(1007,105,l),
(1128,183,l),
(1128,987,l),
(1034,1059,l),
(1175,1128,l),
(1363,985,l)
);
}
);
width = 1830;
}
);
unicode = 4641;
},
{
glyphname = uni1222;
layers = (
{
layerId = "D3759F44-48FA-4031-889A-0E35E35DF10A";
shapes = (
{
closed = 1;
nodes = (
(1358,186,l),
(1441,102,l),
(1535,159,l),
(1535,257,l),
(1488,304,l),
(1582,350,l),
(1770,257,l),
(1770,27,l),
(1817,-18,l),
(1723,-65,l),
(1535,27,l),
(1535,139,l),
(1311,-2,l),
(1123,183,l),
(1123,662,l),
(864,506,l),
(629,609,l),
(629,652,l),
(376,506,l),
(141,609,l),
(141,1177,l),
(47,1253,l),
(188,1318,l),
(376,1180,l),
(376,678,l),
(514,606,l),
(629,673,l),
(629,1177,l),
(535,1253,l),
(676,1318,l),
(864,1180,l),
(864,678,l),
(1002,607,l),
(1123,685,l),
(1123,1179,l),
(1028,1251,l),
(1170,1318,l),
(1358,1177,l)
);
}
);
width = 1841;
}
);
unicode = 4642;
},
{
glyphname = uni1223;
layers = (
{
layerId = "D3759F44-48FA-4031-889A-0E35E35DF10A";
shapes = (
{
closed = 1;
nodes = (
(629,654,l),
(376,506,l),
(141,609,l),
(141,1177,l),
(47,1253,l),
(188,1318,l),
(376,1180,l),
(376,678,l),
(514,606,l),
(629,673,l),
(629,1177,l),
(535,1253,l),
(676,1318,l),
(862,1180,l),
(862,678,l),
(998,607,l),
(1119,685,l),
(1119,1179,l),
(1025,1251,l),
(1166,1318,l),
(1354,1177,l),
(1354,139,l),
(1448,67,l),
(1307,0,l),
(1119,141,l),
(1119,664,l),
(862,506,l),
(629,609,l)
);
}
);
width = 1549;
}
);
unicode = 4643;
},
{
glyphname = uni1224;
layers = (
{
layerId = "D3759F44-48FA-4031-889A-0E35E35DF10A";
shapes = (
{
closed = 1;
nodes = (
(1484,128,l),
(1484,526,l),
(1416,559,l),
(1347,530,l),
(1347,186,l),
(1432,96,l)
);
},
{
closed = 1;
nodes = (
(1347,546,l),
(1532,618,l),
(1718,526,l),
(1718,92,l),
(1765,47,l),
(1670,0,l),
(1484,92,l),
(1484,109,l),
(1300,0,l),
(1112,183,l),
(1112,662,l),
(857,504,l),
(624,607,l),
(624,652,l),
(373,504,l),
(139,607,l),
(139,1175,l),
(45,1249,l),
(186,1314,l),
(373,1179,l),
(373,676,l),
(508,604,l),
(624,671,l),
(624,1175,l),
(530,1249,l),
(671,1314,l),
(857,1179,l),
(857,676,l),
(992,606,l),
(1112,683,l),
(1112,1177,l),
(1020,1247,l),
(1159,1314,l),
(1347,1175,l)
);
}
);
width = 1828;
}
);
unicode = 4644;
},
{
glyphname = uni1225;
layers = (
{
layerId = "D3759F44-48FA-4031-889A-0E35E35DF10A";
shapes = (
{
closed = 1;
nodes = (
(376,564,l),
(629,671,l),
(629,1175,l),
(535,1249,l),
(676,1314,l),
(862,1179,l),
(862,676,l),
(998,606,l),
(1119,683,l),
(1119,1177,l),
(1025,1247,l),
(1166,1314,l),
(1354,1175,l),
(1354,629,l),
(1448,561,l),
(1307,490,l),
(1119,631,l),
(1119,662,l),
(862,504,l),
(629,607,l),
(629,652,l),
(376,537,l),
(376,139,l),
(470,67,l),
(329,0,l),
(141,141,l),
(141,1175,l),
(47,1249,l),
(188,1314,l),
(376,1179,l)
);
}
);
width = 1518;
}
);
unicode = 4645;
},
{
glyphname = uni1226;
layers = (
{
layerId = "D3759F44-48FA-4031-889A-0E35E35DF10A";
shapes = (
{
closed = 1;
nodes = (
(628,154,l),
(628,654,l),
(376,506,l),
(141,609,l),
(141,1177,l),
(47,1253,l),
(188,1318,l),
(376,1180,l),
(376,678,l),
(514,606,l),
(629,673,l),
(629,1177,l),
(535,1253,l),
(676,1318,l),
(862,1180,l),
(862,561,l),
(1119,685,l),
(1119,1179,l),
(1025,1251,l),
(1166,1318,l),
(1354,1177,l),
(1354,645,l),
(1448,573,l),
(1307,506,l),
(1119,647,l),
(1119,664,l),
(862,544,l),
(862,139,l),
(956,67,l),
(816,0,l)
);
}
);
width = 1504;
}
);
unicode = 4646;
},
{
glyphname = uni1227;
layers = (
{
layerId = "D3759F44-48FA-4031-889A-0E35E35DF10A";
shapes = (
{
closed = 1;
nodes = (
(1448,27,l),
(1448,-85,l),
(1627,-161,l),
(1714,-123,l),
(1670,-85,l),
(1670,109,l),
(1494,185,l),
(1405,147,l),
(1448,109,l),
(1448,49,l),
(1354,40,l),
(1354,1177,l),
(1166,1318,l),
(1025,1251,l),
(1119,1179,l),
(1119,685,l),
(998,607,l),
(862,678,l),
(862,1180,l),
(676,1318,l),
(535,1253,l),
(629,1177,l),
(629,673,l),
(514,606,l),
(376,678,l),
(376,1180,l),
(188,1318,l),
(47,1253,l),
(141,1177,l),
(141,609,l),
(376,506,l),
(629,654,l),
(629,609,l),
(862,506,l),
(1119,664,l),
(1119,18,l),
(994,7,l),
(994,96,l),
(817,172,l),
(730,134,l),
(774,96,l),
(774,-98,l),
(951,-176,l),
(1040,-136,l),
(994,-98,l),
(994,-16,l)
);
}
);
width = 1739;
}
);
unicode = 4647;
},
{
glyphname = uni1228;
layers = (
{
layerId = "D3759F44-48FA-4031-889A-0E35E35DF10A";
shapes = (
{
closed = 1;
nodes = (
(311,181,l),
(426,64,l),
(768,155,l),
(768,252,l),
(721,297,l),
(816,342,l),
(1004,252,l),
(1004,26,l),
(1051,-20,l),
(956,-65,l),
(768,26,l),
(768,136,l),
(264,-2,l),
(76,177,l),
(76,640,l),
(539,859,l),
(539,1195,l),
(448,1260,l),
(590,1322,l),
(778,1237,l),
(778,947,l),
(311,727,l)
);
}
);
width = 1126;
}
);
unicode = 4648;
},
{
glyphname = uni1229;
layers = (
{
layerId = "D3759F44-48FA-4031-889A-0E35E35DF10A";
shapes = (
{
closed = 1;
nodes = (
(718,448,l),
(718,124,l),
(812,81,l),
(671,0,l),
(483,105,l),
(483,390,l),
(264,338,l),
(76,502,l),
(76,794,l),
(537,994,l),
(537,1201,l),
(445,1258,l),
(586,1316,l),
(774,1239,l),
(774,1074,l),
(311,875,l),
(311,504,l),
(425,398,l),
(877,504,l),
(877,591,l),
(830,631,l),
(922,673,l),
(1110,591,l),
(1110,385,l),
(1157,343,l),
(1063,302,l),
(877,385,l),
(877,485,l)
);
}
);
width = 1232;
}
);
unicode = 4649;
},
{
glyphname = uni122A;
layers = (
{
layerId = "D3759F44-48FA-4031-889A-0E35E35DF10A";
shapes = (
{
closed = 1;
nodes = (
(1006,195,l),
(264,0,l),
(76,179,l),
(76,633,l),
(539,854,l),
(539,1186,l),
(448,1249,l),
(590,1313,l),
(778,1228,l),
(778,940,l),
(311,721,l),
(311,183,l),
(426,64,l),
(768,155,l),
(768,488,l),
(676,552,l),
(817,614,l),
(1006,530,l)
);
}
);
width = 1081;
}
);
unicode = 4650;
},
{
glyphname = uni122B;
layers = (
{
layerId = "D3759F44-48FA-4031-889A-0E35E35DF10A";
shapes = (
{
closed = 1;
nodes = (
(730,454,l),
(810,380,l),
(810,147,l),
(264,0,l),
(76,179,l),
(76,636,l),
(539,855,l),
(539,1188,l),
(448,1253,l),
(590,1316,l),
(778,1232,l),
(778,942,l),
(311,723,l),
(311,183,l),
(430,67,l),
(573,107,l),
(573,338,l),
(481,411,l),
(1004,554,l),
(1004,611,l),
(956,656,l),
(1051,702,l),
(1239,611,l),
(1239,385,l),
(1285,340,l),
(1192,295,l),
(1004,385,l),
(1004,526,l)
);
}
);
width = 1361;
}
);
unicode = 4651;
},
{
glyphname = uni122C;
layers = (
{
layerId = "D3759F44-48FA-4031-889A-0E35E35DF10A";
shapes = (
{
closed = 1;
nodes = (
(712,206,l),
(712,502,l),
(651,528,l),
(754,566,l),
(911,501,l),
(911,486,l),
(1110,586,l),
(1232,486,l),
(1232,65,l),
(1271,33,l),
(1190,0,l),
(1032,65,l),
(1032,78,l),
(998,60,l),
(873,0,l),
(712,132,l),
(712,177,l),
(264,0,l),
(76,179,l),
(76,638,l),
(539,857,l),
(539,1192,l),
(448,1256,l),
(590,1320,l),
(774,1233,l),
(774,945,l),
(311,725,l),
(311,183,l),
(412,83,l)
);
},
{
closed = 1;
nodes = (
(991,72,l),
(1032,94,l),
(1032,472,l),
(991,512,l),
(911,472,l),
(911,130,l)
);
}
);
width = 1347;
}
);
unicode = 4652;
},
{
glyphname = uni122D;
layers = (
{
layerId = "D3759F44-48FA-4031-889A-0E35E35DF10A";
shapes = (
{
closed = 1;
nodes = (
(398,1078,l),
(808,1186,l),
(808,1226,l),
(761,1271,l),
(855,1316,l),
(1043,1226,l),
(1043,996,l),
(1090,951,l),
(996,906,l),
(808,996,l),
(808,1161,l),
(398,1054,l),
(398,185,l),
(502,76,l),
(920,221,l),
(920,313,l),
(873,358,l),
(968,403,l),
(1156,313,l),
(1156,83,l),
(1202,38,l),
(1108,-7,l),
(920,83,l),
(920,195,l),
(350,0,l),
(162,183,l),
(162,1128,l),
(76,1206,l),
(206,1278,l),
(398,1150,l)
);
}
);
width = 1277;
}
);
unicode = 4653;
},
{
glyphname = uni122E;
layers = (
{
layerId = "D3759F44-48FA-4031-889A-0E35E35DF10A";
shapes = (
{
closed = 1;
nodes = (
(1016,868,l),
(1056,890,l),
(1056,1201,l),
(1016,1239,l),
(937,1201,l),
(937,928,l)
);
},
{
closed = 1;
nodes = (
(738,1159,l),
(398,1042,l),
(398,183,l),
(502,76,l),
(922,217,l),
(922,309,l),
(875,354,l),
(969,398,l),
(1157,309,l),
(1157,83,l),
(1204,38,l),
(1110,-7,l),
(922,83,l),
(922,192,l),
(350,0,l),
(162,179,l),
(162,1114,l),
(76,1188,l),
(206,1262,l),
(398,1135,l),
(398,1063,l),
(738,1179,l),
(738,1232,l),
(674,1256,l),
(780,1294,l),
(937,1230,l),
(937,1215,l),
(1134,1316,l),
(1256,1215,l),
(1256,861,l),
(1296,830,l),
(1215,797,l),
(1056,861,l),
(1056,875,l),
(1023,855,l),
(897,797,l),
(738,928,l)
);
}
);
width = 1370;
}
);
unicode = 4654;
},
{
glyphname = uni122F;
layers = (
{
layerId = "D3759F44-48FA-4031-889A-0E35E35DF10A";
shapes = (
{
closed = 1;
nodes = (
(899,1208,l),
(899,1096,l),
(1078,1020,l),
(1166,1059,l),
(1121,1096,l),
(1121,1289,l),
(944,1365,l),
(855,1327,l),
(899,1289,l),
(899,1230,l),
(371,1188,l),
(371,1277,l),
(193,1352,l),
(105,1314,l),
(150,1277,l),
(150,1083,l),
(328,1006,l),
(416,1045,l),
(371,1083,l),
(371,1164,l),
(539,1177,l),
(539,855,l),
(76,636,l),
(76,179,l),
(264,0,l),
(810,147,l),
(810,380,l),
(730,454,l),
(1004,526,l),
(1004,385,l),
(1192,295,l),
(1285,340,l),
(1239,385,l),
(1239,611,l),
(1051,702,l),
(956,656,l),
(1004,611,l),
(1004,554,l),
(481,411,l),
(573,338,l),
(573,107,l),
(430,67,l),
(311,183,l),
(311,723,l),
(778,942,l),
(778,1195,l)
);
}
);
width = 1361;
}
);
unicode = 4655;
},
{
glyphname = uni1230;
layers = (
{
layerId = "D3759F44-48FA-4031-889A-0E35E35DF10A";
shapes = (
{
closed = 1;
nodes = (
(452,911,l),
(452,1204,l),
(358,1262,l),
(499,1318,l),
(687,1240,l),
(687,1013,l),
(839,1094,l),
(1051,983,l),
(1051,162,l),
(1144,79,l),
(1004,0,l),
(817,161,l),
(817,962,l),
(723,1007,l),
(392,868,l),
(392,161,l),
(486,81,l),
(347,0,l),
(159,162,l),
(159,956,l),
(76,1013,l),
(206,1061,l),
(392,954,l),
(392,888,l)
);
}
);
width = 1220;
}
);
unicode = 4656;
},
{
glyphname = uni1231;
layers = (
{
layerId = "D3759F44-48FA-4031-889A-0E35E35DF10A";
shapes = (
{
closed = 1;
nodes = (
(1054,654,l),
(1204,707,l),
(1204,801,l),
(1157,840,l),
(1251,882,l),
(1439,801,l),
(1439,599,l),
(1486,557,l),
(1392,517,l),
(1204,599,l),
(1204,692,l),
(1054,640,l),
(1054,162,l),
(1148,79,l),
(1007,0,l),
(819,159,l),
(819,960,l),
(725,1004,l),
(394,866,l),
(394,161,l),
(488,81,l),
(347,0,l),
(159,162,l),
(159,954,l),
(76,1009,l),
(206,1059,l),
(394,953,l),
(394,886,l),
(454,908,l),
(454,1202,l),
(360,1258,l),
(501,1314,l),
(689,1237,l),
(689,1009,l),
(840,1090,l),
(1054,980,l)
);
}
);
width = 1560;
}
);
unicode = 4657;
},
{
glyphname = uni1232;
layers = (
{
layerId = "D3759F44-48FA-4031-889A-0E35E35DF10A";
shapes = (
{
closed = 1;
nodes = (
(1049,155,l),
(1132,81,l),
(1226,134,l),
(1226,221,l),
(1179,262,l),
(1273,302,l),
(1459,221,l),
(1459,14,l),
(1506,-26,l),
(1412,-65,l),
(1226,14,l),
(1226,116,l),
(1002,-9,l),
(816,154,l),
(816,960,l),
(721,1006,l),
(392,866,l),
(392,154,l),
(486,74,l),
(345,-9,l),
(159,155,l),
(159,954,l),
(76,1009,l),
(206,1059,l),
(392,953,l),
(392,884,l),
(452,908,l),
(452,1204,l),
(358,1260,l),
(499,1318,l),
(685,1240,l),
(685,1009,l),
(837,1092,l),
(1049,982,l)
);
}
);
width = 1582;
}
);
unicode = 4658;
},
{
glyphname = uni1233;
layers = (
{
layerId = "D3759F44-48FA-4031-889A-0E35E35DF10A";
shapes = (
{
closed = 1;
nodes = (
(452,918,l),
(452,1211,l),
(358,1268,l),
(499,1325,l),
(687,1249,l),
(687,1018,l),
(839,1099,l),
(1051,989,l),
(1051,166,l),
(1144,81,l),
(1004,0,l),
(817,161,l),
(817,969,l),
(723,1014,l),
(392,875,l),
(392,464,l),
(486,381,l),
(347,300,l),
(159,466,l),
(159,962,l),
(76,1018,l),
(206,1068,l),
(392,960,l),
(392,893,l)
);
}
);
width = 1220;
}
);
unicode = 4659;
},
{
glyphname = uni1234;
layers = (
{
layerId = "D3759F44-48FA-4031-889A-0E35E35DF10A";
shapes = (
{
closed = 1;
nodes = (
(1188,112,l),
(1188,464,l),
(1121,492,l),
(1049,468,l),
(1049,166,l),
(1137,85,l)
);
},
{
closed = 1;
nodes = (
(1049,481,l),
(1235,546,l),
(1421,464,l),
(1421,81,l),
(1468,41,l),
(1374,0,l),
(1188,81,l),
(1188,96,l),
(1002,0,l),
(816,161,l),
(816,968,l),
(721,1009,l),
(392,873,l),
(392,162,l),
(486,81,l),
(345,0,l),
(159,166,l),
(159,958,l),
(76,1016,l),
(206,1065,l),
(392,958,l),
(392,890,l),
(452,913,l),
(452,1208,l),
(358,1266,l),
(499,1322,l),
(685,1244,l),
(685,1016,l),
(837,1096,l),
(1049,985,l)
);
}
);
width = 1544;
}
);
unicode = 4660;
},
{
glyphname = uni1235;
layers = (
{
layerId = "D3759F44-48FA-4031-889A-0E35E35DF10A";
shapes = (
{
closed = 1;
nodes = (
(490,937,l),
(365,1209,l),
(266,1253,l),
(398,1322,l),
(591,1266,l),
(702,1023,l),
(846,1092,l),
(1051,985,l),
(1051,166,l),
(1144,79,l),
(1004,0,l),
(817,161,l),
(817,968,l),
(723,1009,l),
(392,873,l),
(392,162,l),
(486,81,l),
(347,0,l),
(159,166,l),
(159,958,l),
(76,1016,l),
(206,1065,l),
(392,958,l),
(392,890,l)
);
}
);
width = 1220;
}
);
unicode = 4661;
},
{
glyphname = uni1236;
layers = (
{
layerId = "D3759F44-48FA-4031-889A-0E35E35DF10A";
shapes = (
{
closed = 1;
nodes = (
(448,911,l),
(448,1204,l),
(354,1262,l),
(492,1318,l),
(676,1240,l),
(676,1013,l),
(828,1094,l),
(1038,983,l),
(1038,472,l),
(1130,388,l),
(992,309,l),
(806,470,l),
(806,962,l),
(714,1007,l),
(388,868,l),
(388,161,l),
(481,81,l),
(343,0,l),
(157,162,l),
(157,956,l),
(76,1013,l),
(204,1061,l),
(388,954,l),
(388,888,l)
);
}
);
width = 1206;
}
);
unicode = 4662;
},
{
glyphname = uni1237;
layers = (
{
layerId = "D3759F44-48FA-4031-889A-0E35E35DF10A";
shapes = (
{
closed = 1;
nodes = (
(1166,27,l),
(1166,-85,l),
(1345,-161,l),
(1432,-123,l),
(1389,-85,l),
(1389,109,l),
(1211,185,l),
(1123,147,l),
(1166,109,l),
(1166,49,l),
(1051,38,l),
(1051,989,l),
(839,1099,l),
(687,1018,l),
(687,1249,l),
(499,1325,l),
(358,1268,l),
(452,1211,l),
(452,918,l),
(392,893,l),
(392,960,l),
(206,1068,l),
(76,1018,l),
(159,962,l),
(159,466,l),
(347,300,l),
(486,381,l),
(392,464,l),
(392,875,l),
(723,1014,l),
(817,969,l),
(817,16,l),
(712,7,l),
(712,96,l),
(535,172,l),
(448,134,l),
(492,96,l),
(492,-98,l),
(669,-176,l),
(757,-136,l),
(712,-98,l),
(712,-16,l)
);
}
);
width = 1461;
}
);
unicode = 4663;
},
{
glyphname = uni1238;
layers = (
{
layerId = "D3759F44-48FA-4031-889A-0E35E35DF10A";
shapes = (
{
closed = 1;
nodes = (
(416,1232,l),
(356,1213,l),
(356,1110,l),
(403,1070,l),
(311,1028,l),
(123,1110,l),
(123,1313,l),
(76,1352,l),
(170,1394,l),
(356,1313,l),
(356,1233,l),
(586,1306,l),
(721,1201,l),
(878,1240,l),
(878,1334,l),
(832,1374,l),
(924,1416,l),
(1112,1334,l),
(1112,1132,l),
(1159,1092,l),
(1065,1051,l),
(878,1132,l),
(878,1224,l),
(721,1180,l),
(719,975,l),
(850,1045,l),
(1063,935,l),
(1063,162,l),
(1157,79,l),
(1016,0,l),
(830,159,l),
(830,915,l),
(736,958,l),
(405,821,l),
(405,161,l),
(499,81,l),
(358,0,l),
(172,162,l),
(172,909,l),
(87,966,l),
(219,1014,l),
(405,908,l),
(405,840,l),
(485,875,l),
(486,1166,l)
);
}
);
width = 1233;
}
);
unicode = 4664;
},
{
glyphname = uni1239;
layers = (
{
layerId = "D3759F44-48FA-4031-889A-0E35E35DF10A";
shapes = (
{
closed = 1;
nodes = (
(1049,642,l),
(1197,689,l),
(1197,781,l),
(1150,821,l),
(1242,861,l),
(1428,781,l),
(1428,578,l),
(1473,539,l),
(1382,499,l),
(1197,578,l),
(1197,673,l),
(1049,626,l),
(1049,162,l),
(1141,79,l),
(1004,0,l),
(817,159,l),
(817,913,l),
(725,956,l),
(402,819,l),
(402,161,l),
(492,81,l),
(354,0,l),
(170,162,l),
(170,906,l),
(87,962,l),
(217,1009,l),
(402,904,l),
(402,837,l),
(479,871,l),
(481,1164,l),
(412,1228,l),
(350,1211,l),
(350,1108,l),
(398,1066,l),
(307,1027,l),
(123,1108,l),
(123,1309,l),
(76,1351,l),
(168,1390,l),
(350,1309,l),
(350,1230,l),
(578,1302,l),
(712,1195,l),
(866,1237,l),
(866,1330,l),
(819,1372,l),
(911,1412,l),
(1097,1330,l),
(1097,1130,l),
(1142,1088,l),
(1051,1049,l),
(866,1130,l),
(866,1220,l),
(712,1179,l),
(711,973,l),
(839,1042,l),
(1049,933,l)
);
}
);
width = 1549;
}
);
unicode = 4665;
},
{
glyphname = uni123A;
layers = (
{
layerId = "D3759F44-48FA-4031-889A-0E35E35DF10A";
shapes = (
{
closed = 1;
nodes = (
(1061,157,l),
(1144,85,l),
(1239,136,l),
(1239,222,l),
(1192,264,l),
(1285,302,l),
(1472,222,l),
(1472,18,l),
(1518,-20,l),
(1425,-62,l),
(1239,18,l),
(1239,119,l),
(1016,-5,l),
(828,155,l),
(828,913,l),
(734,956,l),
(405,819,l),
(405,157,l),
(499,76,l),
(358,-5,l),
(172,157,l),
(172,908,l),
(87,962,l),
(219,1013,l),
(405,906,l),
(405,837,l),
(485,873,l),
(486,1166,l),
(416,1230,l),
(356,1213,l),
(356,1110,l),
(403,1068,l),
(309,1027,l),
(123,1110,l),
(123,1313,l),
(76,1352,l),
(170,1394,l),
(356,1313,l),
(356,1232,l),
(586,1304,l),
(719,1197,l),
(877,1240,l),
(877,1334,l),
(830,1374,l),
(924,1416,l),
(1110,1334,l),
(1110,1132,l),
(1157,1090,l),
(1063,1051,l),
(877,1132,l),
(877,1222,l),
(719,1180,l),
(718,973,l),
(848,1043,l),
(1061,933,l)
);
}
);
width = 1594;
}
);
unicode = 4666;
},
{
glyphname = uni123B;
layers = (
{
layerId = "D3759F44-48FA-4031-889A-0E35E35DF10A";
shapes = (
{
closed = 1;
nodes = (
(419,1228,l),
(360,1211,l),
(360,1108,l),
(407,1066,l),
(311,1027,l),
(123,1108,l),
(123,1309,l),
(76,1351,l),
(170,1390,l),
(360,1309,l),
(360,1230,l),
(591,1302,l),
(725,1195,l),
(882,1237,l),
(882,1330,l),
(835,1372,l),
(931,1412,l),
(1119,1330,l),
(1119,1130,l),
(1166,1088,l),
(1072,1049,l),
(882,1130,l),
(882,1220,l),
(725,1179,l),
(723,973,l),
(854,1042,l),
(1070,933,l),
(1070,162,l),
(1164,79,l),
(1023,0,l),
(833,159,l),
(833,913,l),
(740,956,l),
(409,819,l),
(409,463,l),
(502,381,l),
(362,300,l),
(172,464,l),
(172,906,l),
(87,962,l),
(219,1009,l),
(409,904,l),
(409,837,l),
(488,871,l),
(490,1164,l)
);
}
);
width = 1240;
}
);
unicode = 4667;
},
{
glyphname = uni123C;
layers = (
{
layerId = "D3759F44-48FA-4031-889A-0E35E35DF10A";
shapes = (
{
closed = 1;
nodes = (
(1061,476,l),
(1247,542,l),
(1432,461,l),
(1432,81,l),
(1479,40,l),
(1385,0,l),
(1201,81,l),
(1201,96,l),
(1014,0,l),
(828,159,l),
(828,913,l),
(734,956,l),
(405,819,l),
(405,161,l),
(499,81,l),
(358,0,l),
(172,162,l),
(172,906,l),
(87,962,l),
(219,1009,l),
(405,904,l),
(405,837,l),
(485,871,l),
(486,1164,l),
(416,1228,l),
(356,1211,l),
(356,1108,l),
(403,1066,l),
(309,1027,l),
(123,1108,l),
(123,1309,l),
(76,1351,l),
(170,1390,l),
(356,1309,l),
(356,1230,l),
(586,1302,l),
(719,1195,l),
(877,1237,l),
(877,1330,l),
(830,1372,l),
(924,1412,l),
(1110,1330,l),
(1110,1130,l),
(1157,1088,l),
(1063,1049,l),
(877,1130,l),
(877,1220,l),
(719,1179,l),
(718,973,l),
(848,1042,l),
(1061,933,l)
);
},
{
closed = 1;
nodes = (
(1201,110,l),
(1201,461,l),
(1132,486,l),
(1061,463,l),
(1061,162,l),
(1148,85,l)
);
}
);
width = 1555;
}
);
unicode = 4668;
},
{
glyphname = uni123D;
layers = (
{
layerId = "D3759F44-48FA-4031-889A-0E35E35DF10A";
shapes = (
{
closed = 1;
nodes = (
(440,1242,l),
(356,1213,l),
(356,1103,l),
(403,1065,l),
(309,1023,l),
(123,1103,l),
(123,1306,l),
(76,1347,l),
(170,1385,l),
(356,1306,l),
(356,1226,l),
(521,1280,l),
(716,1190,l),
(875,1235,l),
(875,1327,l),
(830,1368,l),
(922,1408,l),
(1110,1327,l),
(1110,1126,l),
(1156,1087,l),
(1063,1045,l),
(875,1126,l),
(875,1216,l),
(719,1175,l),
(833,969,l),
(960,1040,l),
(1173,931,l),
(1173,161,l),
(1268,79,l),
(1128,0,l),
(940,159,l),
(940,911,l),
(846,954,l),
(519,817,l),
(519,161,l),
(611,81,l),
(472,0,l),
(284,161,l),
(284,904,l),
(200,958,l),
(331,1007,l),
(519,902,l),
(519,835,l),
(624,880,l)
);
}
);
width = 1344;
}
);
unicode = 4669;
},
{
glyphname = uni123E;
layers = (
{
layerId = "D3759F44-48FA-4031-889A-0E35E35DF10A";
shapes = (
{
closed = 1;
nodes = (
(418,1228,l),
(358,1211,l),
(358,1108,l),
(405,1066,l),
(311,1027,l),
(123,1108,l),
(123,1309,l),
(76,1351,l),
(170,1390,l),
(358,1309,l),
(358,1230,l),
(590,1302,l),
(723,1195,l),
(880,1237,l),
(880,1330,l),
(833,1372,l),
(928,1412,l),
(1116,1330,l),
(1116,1130,l),
(1163,1088,l),
(1068,1049,l),
(880,1130,l),
(880,1220,l),
(723,1179,l),
(721,973,l),
(852,1042,l),
(1066,933,l),
(1066,468,l),
(1161,383,l),
(1020,304,l),
(832,464,l),
(832,913,l),
(738,956,l),
(407,819,l),
(407,161,l),
(501,81,l),
(360,0,l),
(172,162,l),
(172,906,l),
(87,962,l),
(219,1009,l),
(407,904,l),
(407,837,l),
(486,871,l),
(488,1164,l)
);
}
);
width = 1237;
}
);
unicode = 4670;
},
{
glyphname = uni123F;
layers = (
{
layerId = "D3759F44-48FA-4031-889A-0E35E35DF10A";
shapes = (
{
closed = 1;
nodes = (
(1173,27,l),
(1173,-85,l),
(1352,-161,l),
(1441,-123,l),
(1396,-85,l),
(1396,109,l),
(1218,185,l),
(1130,147,l),
(1173,109,l),
(1173,49,l),
(1070,40,l),
(1070,933,l),
(854,1042,l),
(725,973,l),
(725,1179,l),
(882,1220,l),
(882,1130,l),
(1072,1049,l),
(1166,1088,l),
(1119,1130,l),
(1119,1330,l),
(931,1412,l),
(835,1372,l),
(882,1330,l),
(882,1237,l),
(725,1195,l),
(591,1302,l),
(360,1230,l),
(360,1309,l),
(170,1390,l),
(76,1351,l),
(123,1309,l),
(123,1108,l),
(311,1027,l),
(407,1066,l),
(360,1108,l),
(360,1211,l),
(419,1228,l),
(490,1164,l),
(488,871,l),
(409,837,l),
(409,904,l),
(219,1009,l),
(87,962,l),
(172,906,l),
(172,464,l),
(362,300,l),
(502,381,l),
(409,463,l),
(409,819,l),
(740,956,l),
(833,913,l),
(833,16,l),
(719,7,l),
(719,96,l),
(544,172,l),
(456,134,l),
(501,96,l),
(501,-98,l),
(676,-176,l),
(765,-136,l),
(719,-98,l),
(719,-16,l)
);
}
);
width = 1465;
}
);
unicode = 4671;
},
{
glyphname = uni1240;
layers = (
{
layerId = "D3759F44-48FA-4031-889A-0E35E35DF10A";
shapes = (
{
closed = 1;
nodes = (
(524,533,l),
(524,938,l),
(376,877,l),
(376,555,l),
(457,504,l)
);
},
{
closed = 1;
nodes = (
(524,523,l),
(329,432,l),
(141,519,l),
(141,886,l),
(76,918,l),
(202,978,l),
(373,886,l),
(524,949,l),
(524,1161,l),
(430,1240,l),
(571,1322,l),
(759,1159,l),
(759,915,l),
(942,978,l),
(1130,897,l),
(1130,514,l),
(1177,474,l),
(1083,432,l),
(895,514,l),
(895,528,l),
(759,459,l),
(759,162,l),
(854,81,l),
(712,0,l),
(524,166,l)
);
},
{
closed = 1;
nodes = (
(759,478,l),
(895,546,l),
(895,897,l),
(828,924,l),
(759,902,l)
);
}
);
width = 1253;
}
);
unicode = 4672;
},
{
glyphname = uni1241;
layers = (
{
layerId = "D3759F44-48FA-4031-889A-0E35E35DF10A";
shapes = (
{
closed = 1;
nodes = (
(752,267,l),
(906,335,l),
(906,428,l),
(859,470,l),
(951,510,l),
(1137,428,l),
(1137,228,l),
(1184,186,l),
(1092,147,l),
(906,228,l),
(906,322,l),
(752,252,l),
(752,161,l),
(846,81,l),
(707,0,l),
(521,162,l),
(521,580,l),
(328,492,l),
(141,578,l),
(141,944,l),
(76,976,l),
(200,1036,l),
(369,944,l),
(521,1006,l),
(521,1156,l),
(426,1235,l),
(566,1316,l),
(752,1156,l),
(752,973,l),
(933,1036,l),
(1119,954,l),
(1119,573,l),
(1166,533,l),
(1074,492,l),
(888,573,l),
(888,590,l),
(752,519,l)
);
},
{
closed = 1;
nodes = (
(752,537,l),
(888,604,l),
(888,954,l),
(819,982,l),
(752,958,l)
);
},
{
closed = 1;
nodes = (
(521,593,l),
(521,994,l),
(373,933,l),
(373,614,l),
(454,562,l)
);
}
);
width = 1260;
}
);
unicode = 4673;
},
{
glyphname = uni1242;
layers = (
{
layerId = "D3759F44-48FA-4031-889A-0E35E35DF10A";
shapes = (
{
closed = 1;
nodes = (
(756,154,l),
(839,81,l),
(933,134,l),
(933,221,l),
(886,260,l),
(980,300,l),
(1166,221,l),
(1166,14,l),
(1213,-26,l),
(1119,-65,l),
(933,14,l),
(933,114,l),
(711,-9,l),
(521,155,l),
(521,516,l),
(328,425,l),
(141,512,l),
(141,878,l),
(76,911,l),
(202,973,l),
(371,878,l),
(521,942,l),
(521,1156,l),
(428,1233,l),
(568,1316,l),
(756,1154,l),
(756,908,l),
(937,973,l),
(1123,890,l),
(1123,506,l),
(1170,466,l),
(1078,425,l),
(890,506,l),
(890,521,l),
(756,452,l)
);
},
{
closed = 1;
nodes = (
(756,470,l),
(890,537,l),
(890,890,l),
(821,918,l),
(756,895,l)
);
},
{
closed = 1;
nodes = (
(521,526,l),
(521,931,l),
(374,868,l),
(374,548,l),
(456,495,l)
);
}
);
width = 1287;
}
);
unicode = 4674;
},
{
glyphname = uni1243;
layers = (
{
layerId = "D3759F44-48FA-4031-889A-0E35E35DF10A";
shapes = (
{
closed = 1;
nodes = (
(759,521,l),
(895,586,l),
(895,938,l),
(828,966,l),
(759,942,l)
);
},
{
closed = 1;
nodes = (
(524,564,l),
(329,474,l),
(141,561,l),
(141,928,l),
(76,958,l),
(202,1020,l),
(373,928,l),
(524,989,l),
(524,1159,l),
(430,1239,l),
(571,1320,l),
(759,1157,l),
(759,954,l),
(942,1020,l),
(1130,938,l),
(1130,557,l),
(1177,516,l),
(1083,474,l),
(895,557,l),
(895,569,l),
(759,501,l),
(759,428,l),
(418,311,l),
(418,161,l),
(512,81,l),
(371,0,l),
(183,162,l),
(183,255,l),
(524,371,l)
);
},
{
closed = 1;
nodes = (
(524,575,l),
(524,978,l),
(376,915,l),
(376,597,l),
(457,546,l)
);
}
);
width = 1253;
}
);
unicode = 4675;
},
{
glyphname = uni1244;
layers = (
{
layerId = "D3759F44-48FA-4031-889A-0E35E35DF10A";
shapes = (
{
closed = 1;
nodes = (
(763,459,l),
(938,519,l),
(1116,443,l),
(1116,90,l),
(1159,54,l),
(1072,16,l),
(893,90,l),
(893,105,l),
(704,16,l),
(526,166,l),
(526,575,l),
(331,486,l),
(141,571,l),
(141,935,l),
(76,968,l),
(202,1027,l),
(374,935,l),
(526,998,l),
(526,1154,l),
(432,1232,l),
(573,1313,l),
(763,1150,l),
(763,966,l),
(945,1027,l),
(1135,945,l),
(1135,568,l),
(1182,526,l),
(1088,486,l),
(899,568,l),
(899,580,l),
(763,512,l)
);
},
{
closed = 1;
nodes = (
(893,121,l),
(893,443,l),
(832,470,l),
(763,448,l),
(763,170,l),
(846,94,l)
);
},
{
closed = 1;
nodes = (
(763,531,l),
(899,599,l),
(899,945,l),
(832,975,l),
(763,951,l)
);
},
{
closed = 1;
nodes = (
(526,586,l),
(526,987,l),
(378,926,l),
(378,607,l),
(459,557,l)
);
}
);
width = 1258;
}
);
unicode = 4676;
},
{
glyphname = uni1245;
layers = (
{
layerId = "D3759F44-48FA-4031-889A-0E35E35DF10A";
shapes = (
{
closed = 1;
nodes = (
(618,1268,l),
(768,1134,l),
(768,850,l),
(949,911,l),
(1137,833,l),
(1137,459,l),
(1184,419,l),
(1090,378,l),
(904,459,l),
(904,472,l),
(768,405,l),
(768,159,l),
(862,79,l),
(721,0,l),
(533,159,l),
(533,466,l),
(340,378,l),
(152,463,l),
(152,821,l),
(87,854,l),
(215,911,l),
(381,821,l),
(533,884,l),
(533,1135,l),
(481,1182,l),
(358,1135,l),
(358,1036,l),
(403,996,l),
(311,956,l),
(123,1036,l),
(123,1235,l),
(76,1275,l),
(170,1314,l),
(358,1235,l),
(358,1157,l)
);
},
{
closed = 1;
nodes = (
(768,423,l),
(904,488,l),
(904,833,l),
(837,859,l),
(768,837,l)
);
},
{
closed = 1;
nodes = (
(533,478,l),
(533,873,l),
(385,812,l),
(385,499,l),
(466,448,l)
);
}
);
width = 1260;
}
);
unicode = 4677;
},
{
glyphname = uni1246;
layers = (
{
layerId = "D3759F44-48FA-4031-889A-0E35E35DF10A";
shapes = (
{
closed = 1;
nodes = (
(759,978,l),
(759,850,l),
(942,911,l),
(1130,832,l),
(1130,454,l),
(1177,412,l),
(1083,373,l),
(895,454,l),
(895,468,l),
(759,398,l),
(759,161,l),
(854,81,l),
(712,0,l),
(524,162,l),
(524,461,l),
(329,373,l),
(141,457,l),
(141,819,l),
(76,854,l),
(202,911,l),
(373,819,l),
(524,884,l),
(524,1148,l),
(430,1228,l),
(884,1313,l),
(1016,1273,l),
(1016,987,l),
(1051,971,l),
(980,954,l),
(842,1000,l)
);
},
{
closed = 1;
nodes = (
(759,992,l),
(840,1016,l),
(840,1264,l),
(801,1282,l),
(759,1273,l)
);
},
{
closed = 1;
nodes = (
(759,418,l),
(895,483,l),
(895,832,l),
(828,859,l),
(759,837,l)
);
},
{
closed = 1;
nodes = (
(524,472,l),
(524,873,l),
(376,810,l),
(376,492,l),
(457,441,l)
);
}
);
width = 1253;
}
);
unicode = 4678;
},
{
glyphname = uni1248;
layers = (
{
layerId = "D3759F44-48FA-4031-889A-0E35E35DF10A";
shapes = (
{
closed = 1;
nodes = (
(723,248,l),
(880,311,l),
(880,396,l),
(828,414,l),
(913,440,l),
(1042,394,l),
(1042,385,l),
(1202,457,l),
(1302,385,l),
(1302,88,l),
(1334,65,l),
(1268,43,l),
(1139,88,l),
(1139,98,l),
(1114,85,l),
(1009,43,l),
(880,136,l),
(880,290,l),
(723,230,l),
(723,162,l),
(817,81,l),
(676,0,l),
(488,166,l),
(488,524,l),
(293,434,l),
(105,521,l),
(105,888,l),
(40,920,l),
(168,982,l),
(336,888,l),
(488,951,l),
(488,1164,l),
(394,1242,l),
(535,1325,l),
(723,1163,l),
(723,918,l),
(906,982,l),
(1094,899,l),
(1094,516,l),
(1141,476,l),
(1047,434,l),
(859,516,l),
(859,530,l),
(723,461,l)
);
},
{
closed = 1;
nodes = (
(1106,92,l),
(1139,109,l),
(1139,376,l),
(1106,402,l),
(1042,376,l),
(1042,134,l)
);
},
{
closed = 1;
nodes = (
(723,479,l),
(859,548,l),
(859,899,l),
(792,928,l),
(723,904,l)
);
},
{
closed = 1;
nodes = (
(488,535,l),
(488,940,l),
(340,878,l),
(340,557,l),
(421,504,l)
);
}
);
width = 1389;
}
);
unicode = 4680;
},
{
glyphname = uni124A;
layers = (
{
layerId = "D3759F44-48FA-4031-889A-0E35E35DF10A";
shapes = (
{
closed = 1;
nodes = (
(1103,666,l),
(1226,705,l),
(1226,930,l),
(1179,969,l),
(1273,1009,l),
(1463,930,l),
(1463,790,l),
(1548,825,l),
(1736,761,l),
(1736,611,l),
(1782,571,l),
(1689,530,l),
(1501,611,l),
(1501,781,l),
(1103,644,l),
(1103,514,l),
(1150,472,l),
(1056,432,l),
(868,514,l),
(868,526,l),
(734,457,l),
(734,161,l),
(828,81,l),
(687,0,l),
(499,162,l),
(499,521,l),
(302,432,l),
(114,517,l),
(114,882,l),
(49,915,l),
(177,976,l),
(345,882,l),
(499,945,l),
(499,1157,l),
(405,1237,l),
(546,1318,l),
(734,1156,l),
(734,911,l),
(915,976,l),
(1103,895,l)
);
},
{
closed = 1;
nodes = (
(734,478,l),
(868,544,l),
(868,895,l),
(801,922,l),
(734,899,l)
);
},
{
closed = 1;
nodes = (
(499,531,l),
(499,935,l),
(349,873,l),
(349,554,l),
(430,502,l)
);
}
);
width = 1828;
}
);
unicode = 4682;
},
{
glyphname = uni124B;
layers = (
{
layerId = "D3759F44-48FA-4031-889A-0E35E35DF10A";
shapes = (
{
closed = 1;
nodes = (
(732,463,l),
(866,530,l),
(866,886,l),
(799,913,l),
(732,892,l)
);
},
{
closed = 1;
nodes = (
(497,199,l),
(497,506,l),
(300,416,l),
(112,504,l),
(112,875,l),
(47,908,l),
(176,969,l),
(343,875,l),
(497,938,l),
(497,1156,l),
(403,1235,l),
(544,1318,l),
(732,1154,l),
(732,904,l),
(913,969,l),
(1101,886,l),
(1101,499,l),
(1148,457,l),
(1054,416,l),
(866,499,l),
(866,514,l),
(732,441,l),
(732,264,l),
(1000,329,l),
(1000,-67,l),
(1099,-114,l),
(953,-192,l),
(765,-72,l),
(765,248,l),
(387,148,l),
(387,45,l),
(434,4,l),
(340,-38,l),
(152,45,l),
(152,197,l),
(105,238,l),
(199,280,l),
(387,197,l),
(387,168,l)
);
},
{
closed = 1;
nodes = (
(497,519,l),
(497,928,l),
(347,864,l),
(347,539,l),
(428,486,l)
);
}
);
width = 1232;
}
);
unicode = 4683;
},
{
glyphname = uni124C;
layers = (
{
layerId = "D3759F44-48FA-4031-889A-0E35E35DF10A";
shapes = (
{
closed = 1;
nodes = (
(871,50,l),
(871,396,l),
(802,423,l),
(732,398,l),
(732,102,l),
(819,26,l)
);
},
{
closed = 1;
nodes = (
(732,486,l),
(866,554,l),
(866,897,l),
(799,926,l),
(732,902,l)
);
},
{
closed = 1;
nodes = (
(732,412,l),
(918,476,l),
(1106,396,l),
(1106,20,l),
(1154,-18,l),
(1059,-58,l),
(871,20,l),
(871,36,l),
(685,-58,l),
(495,102,l),
(385,76,l),
(385,-27,l),
(432,-65,l),
(338,-105,l),
(150,-27,l),
(150,123,l),
(103,162,l),
(197,202,l),
(385,123,l),
(385,94,l),
(495,124,l),
(497,530,l),
(300,441,l),
(112,526,l),
(112,886,l),
(47,918,l),
(176,978,l),
(343,886,l),
(497,947,l),
(497,1157,l),
(403,1233,l),
(544,1314,l),
(732,1156,l),
(732,915,l),
(913,978,l),
(1101,897,l),
(1101,523,l),
(1148,481,l),
(1054,441,l),
(866,523,l),
(866,535,l),
(732,468,l)
);
},
{
closed = 1;
nodes = (
(497,542,l),
(497,937,l),
(347,877,l),
(347,562,l),
(428,512,l)
);
}
);
width = 1262;
}
);
unicode = 4684;
},
{
glyphname = uni124D;
layers = (
{
layerId = "D3759F44-48FA-4031-889A-0E35E35DF10A";
shapes = (
{
closed = 1;
nodes = (
(1094,654,l),
(1232,711,l),
(1232,804,l),
(1184,846,l),
(1278,886,l),
(1468,804,l),
(1468,614,l),
(1596,671,l),
(1784,609,l),
(1784,461,l),
(1832,419,l),
(1737,380,l),
(1549,461,l),
(1549,631,l),
(1232,514,l),
(1232,698,l),
(1094,640,l),
(1094,512,l),
(1141,472,l),
(1047,430,l),
(859,512,l),
(859,526,l),
(723,457,l),
(723,161,l),
(817,81,l),
(676,0,l),
(488,162,l),
(488,521,l),
(293,430,l),
(105,517,l),
(105,882,l),
(40,913,l),
(168,975,l),
(336,882,l),
(488,944,l),
(488,1156,l),
(394,1235,l),
(535,1316,l),
(723,1156,l),
(723,909,l),
(906,975,l),
(1094,893,l)
);
},
{
closed = 1;
nodes = (
(723,476,l),
(859,544,l),
(859,893,l),
(792,922,l),
(723,897,l)
);
},
{
closed = 1;
nodes = (
(488,531,l),
(488,933,l),
(340,873,l),
(340,554,l),
(421,501,l)
);
}
);
width = 1873;
}
);
unicode = 4685;
},
{
glyphname = uni1250;
layers = (
{
layerId = "D3759F44-48FA-4031-889A-0E35E35DF10A";
shapes = (
{
closed = 1;
nodes = (
(537,517,l),
(537,935,l),
(388,871,l),
(388,539,l),
(470,485,l)
);
},
{
closed = 1;
nodes = (
(537,1213,l),
(456,1291,l),
(329,1262,l),
(329,1097,l),
(376,1056,l),
(282,1014,l),
(94,1097,l),
(94,1309,l),
(47,1351,l),
(141,1392,l),
(329,1309,l),
(329,1282,l),
(638,1356,l),
(772,1247,l),
(962,1296,l),
(962,1323,l),
(915,1365,l),
(1009,1406,l),
(1197,1323,l),
(1197,1114,l),
(1244,1072,l),
(1150,1028,l),
(962,1114,l),
(962,1277,l),
(772,1228,l),
(772,909,l),
(954,976,l),
(1142,892,l),
(1142,497,l),
(1190,456,l),
(1096,414,l),
(908,497,l),
(908,512,l),
(772,440,l),
(772,168,l),
(866,85,l),
(725,0,l),
(537,170,l),
(537,506,l),
(342,414,l),
(154,502,l),
(154,880,l),
(88,913,l),
(217,976,l),
(385,880,l),
(537,945,l)
);
},
{
closed = 1;
nodes = (
(772,461,l),
(908,528,l),
(908,892,l),
(840,920,l),
(772,897,l)
);
}
);
width = 1316;
}
);
unicode = 4688;
},
{
glyphname = uni1251;
layers = (
{
layerId = "D3759F44-48FA-4031-889A-0E35E35DF10A";
shapes = (
{
closed = 1;
nodes = (
(770,461,l),
(906,528,l),
(906,892,l),
(839,920,l),
(770,897,l)
);
},
{
closed = 1;
nodes = (
(770,202,l),
(770,168,l),
(864,85,l),
(723,0,l),
(535,170,l),
(535,506,l),
(342,414,l),
(154,502,l),
(154,880,l),
(88,913,l),
(217,976,l),
(383,880,l),
(535,945,l),
(535,1213,l),
(454,1291,l),
(329,1262,l),
(329,1097,l),
(374,1056,l),
(282,1014,l),
(94,1097,l),
(94,1309,l),
(47,1351,l),
(141,1392,l),
(329,1309,l),
(329,1282,l),
(636,1356,l),
(770,1247,l),
(960,1296,l),
(960,1323,l),
(913,1365,l),
(1006,1406,l),
(1194,1323,l),
(1194,1114,l),
(1240,1072,l),
(1146,1028,l),
(960,1114,l),
(960,1277,l),
(770,1228,l),
(770,909,l),
(953,976,l),
(1139,892,l),
(1139,497,l),
(1186,456,l),
(1092,414,l),
(906,497,l),
(906,512,l),
(770,440,l),
(770,215,l),
(908,267,l),
(908,347,l),
(861,383,l),
(954,418,l),
(1141,347,l),
(1141,176,l),
(1188,139,l),
(1094,103,l),
(908,176,l),
(908,255,l)
);
},
{
closed = 1;
nodes = (
(535,517,l),
(535,935,l),
(387,871,l),
(387,539,l),
(468,485,l)
);
}
);
width = 1318;
}
);
unicode = 4689;
},
{
glyphname = uni1252;
layers = (
{
layerId = "D3759F44-48FA-4031-889A-0E35E35DF10A";
shapes = (
{
closed = 1;
nodes = (
(768,459,l),
(902,528,l),
(902,897,l),
(835,926,l),
(768,900,l)
);
},
{
closed = 1;
nodes = (
(533,166,l),
(533,506,l),
(340,412,l),
(154,502,l),
(154,884,l),
(88,918,l),
(215,982,l),
(383,884,l),
(533,951,l),
(533,1220,l),
(454,1302,l),
(328,1271,l),
(328,1106,l),
(374,1063,l),
(280,1021,l),
(94,1106,l),
(94,1318,l),
(47,1361,l),
(141,1403,l),
(328,1318,l),
(328,1291,l),
(633,1365,l),
(768,1254,l),
(956,1306,l),
(956,1332,l),
(909,1376,l),
(1004,1418,l),
(1190,1332,l),
(1190,1121,l),
(1237,1078,l),
(1142,1036,l),
(956,1121,l),
(956,1285,l),
(768,1237,l),
(768,915,l),
(949,982,l),
(1135,897,l),
(1135,497,l),
(1182,456,l),
(1090,412,l),
(902,497,l),
(902,512,l),
(768,440,l),
(768,162,l),
(852,87,l),
(945,141,l),
(945,231,l),
(899,275,l),
(992,316,l),
(1179,231,l),
(1179,18,l),
(1226,-22,l),
(1132,-65,l),
(945,18,l),
(945,123,l),
(723,-5,l)
);
},
{
closed = 1;
nodes = (
(533,517,l),
(533,938,l),
(387,875,l),
(387,539,l),
(468,485,l)
);
}
);
width = 1300;
}
);
unicode = 4690;
},
{
glyphname = uni1253;
layers = (
{
layerId = "D3759F44-48FA-4031-889A-0E35E35DF10A";
shapes = (
{
closed = 1;
nodes = (
(535,295,l),
(535,502,l),
(342,409,l),
(154,499,l),
(154,882,l),
(88,915,l),
(217,978,l),
(383,882,l),
(535,947,l),
(535,1216,l),
(454,1298,l),
(329,1268,l),
(329,1101,l),
(374,1059,l),
(282,1018,l),
(94,1101,l),
(94,1314,l),
(47,1358,l),
(141,1399,l),
(329,1314,l),
(329,1287,l),
(636,1361,l),
(770,1253,l),
(960,1302,l),
(960,1329,l),
(913,1372,l),
(1006,1414,l),
(1194,1329,l),
(1194,1118,l),
(1240,1076,l),
(1146,1032,l),
(960,1118,l),
(960,1282,l),
(770,1233,l),
(770,911,l),
(953,978,l),
(1139,893,l),
(1139,495,l),
(1186,452,l),
(1092,409,l),
(906,495,l),
(906,510,l),
(768,441,l),
(768,354,l),
(436,230,l),
(436,74,l),
(530,-11,l),
(388,-96,l),
(202,76,l),
(202,172,l)
);
},
{
closed = 1;
nodes = (
(770,457,l),
(906,526,l),
(906,893,l),
(839,922,l),
(770,899,l)
);
},
{
closed = 1;
nodes = (
(535,514,l),
(535,935,l),
(387,871,l),
(387,535,l),
(468,481,l)
);
}
);
width = 1289;
}
);
unicode = 4691;
},
